<svg xmlns="http://www.w3.org/2000/svg" xml:space="preserve" viewBox="0 0 326.998 172"><g fill-rule="evenodd" clip-rule="evenodd"><path d="M148.06 74.975c.095-1.567 2.133-.185 2.52 0-.1 1.567-2.13.184-2.52 0M165.7 90.726c-.178-1.018.596-1.085.63-1.891 1.22-.249.92 2.87-.63 1.891M169.48 90.726c-1.52 2.066-3.01-1.752 0 0M166.96 95.766c.256-1.569 2.442-.037 1.89 1.26-.83-.223-.99-1.11-1.89-1.26"/><path d="M114.04 57.963c13.421.666 27.018 3.537 39.062 6.93 1.198.338 2.286.823 3.15 1.89 5.858-.38 9.926 3.62 14.491 2.521 6.101 3.35 16.272 2.628 20.791 7.56-8.604-1.837-16.68-5.605-25.202-5.67 8.481 4.12 19.835 5.367 28.982 8.82 1.294-.176 1.257-1.683 1.89-2.52-.271-1.409-3.104-.255-4.41-.63 1.114-2.615 7.261-3.021 9.45-2.52 1.898-1.252 3.863-2.438 7.561-1.89 2.095-3.417 9.519-3.338 11.971-1.26 2.729-1.939 5.073-2.154 8.821-2.521.447-.043 1.783-1.262 1.89-1.26 1.786.042 1.441 2.032 1.891-.63 2.164 1.111 4.722.543 5.67-1.26 11.729.178 16.737-6.364 26.462-8.19 5.163-4.917 14.422-5.739 20.791-9.451 5.794 1.798 11.684-4.537 18.271-1.89-.09 3.061-5.102 1.199-6.931 2.52 4.262 1.914 9.979-1.144 15.751-.63 1.378.123 1.769 1.555 3.15 1.89 4.158 1.01 9.086-1.559 9.45 4.41.12 1.968-1.174 1.105-2.521 3.15-.269.408.315 1.524 0 1.89-1.731 2.009-5.187 3.714-6.93 5.04-.543-3.61 5.711-5.536 5.67-10.71-5.771-2.865-12.265-1.225-17.011 0-.529-.731-.831-1.689-.63-3.15-8.193-1.683-10.243 2.778-16.382 3.15.649 2.816 5.152-1.396 6.931.63 1.338-1.667 3.34-3.639 5.67-2.52-.244 1.855-2.968 1.231-3.779 2.52.301.865 4.189.039 5.04-.63 1.701.188 1.13 2.65 2.521 3.15-3.146 1.895-4.838 5.244-8.821 6.301 3.19 1.701 6.296-2.091 8.19-3.78.988 4.357-7.198 4.975-10.71 6.93 4.597 3.622 8.384-2.981 13.23-3.15-1.103 2.476-1.603 2.69-1.89 5.04-2.098 1.894-6.164 1.817-8.191 3.78 3.498 2.581 8.669-3.304 11.341-5.67 1.819 5.481-9.442 4.956-8.82 9.451-3.674-1.184-9.071 2.773-11.971 2.52 1.163 3.364 8.89.548 11.341-.63 2.018-.969 3.058-3.22 5.04-4.41 1.326-.796 2.984-.63 4.41-1.26 3.598-1.589 6.487-4.656 9.451-5.67 2.523-.626 1.988-4.312 5.67-3.78 1.491 5.166-5.035 7.489-8.82 9.451-.057 1.719 1.05 1.268 0 2.52-7.448 4.732-13.116 11.246-23.312 13.231-.295 1.345.9 1.2 1.891 1.26-4.815 3.284-10.211 2.492-15.121 5.041 3.198 2.125 6.637-.906 9.45-1.261-1.529 3.931-7.879 3.042-11.341 5.041-5.098-2.813-10.034 3.809-17.641 2.52 2.996-1.674-.539-2.266-3.15-1.89-1.861.548 1.462.942.63 2.52-9.67 1.499-17.352 3.919-27.722 3.15-.106-1.366 2.234-.285 3.15-.63-1.572-1.578-4.391-1.91-7.561-1.891-1.005.947.018 2.653 1.26 3.15-2.045 1.18-4.761-2.36-6.93-3.15-1.375 1.561.442 3.747 1.89 4.411.16 8.029 7.192 9.188 8.82 15.751 3.95 4.87 13.589 4.052 15.121 11.34 4.048.152 5.612 2.789 9.45 3.15.079 1.577 1.203 1.973-.63 2.521.771.91 2.405.955 3.15 1.89.108.854-3.646.816-1.26 1.891-1.809 1.164-3.339-3.073-5.671-1.891 2.153 2.887 4.508 5.574 6.301 8.82 2.188-1.283-1.829-3.297 0-4.41 3.769 1.346 2.961 8.94 6.931 8.19.497 3.353.627 4.368 0 8.191-2.126.501-8.82 4.422-8.821-.631 1.345-.294 1.2.9 1.261 1.891 2.979.249 2.873-2.587 6.3-1.891-.198-3.616-.166-5.245-1.89-8.19-1.237.674.414 3.737 1.26 4.41-.151 1.108-1.084 1.437-2.52 1.261-1.595.426 2.277 2.094-.631 2.52-2.814-.262-1.411-3.015-1.89-4.41-2.077-6.052-6.34-11.141-12.601-13.86-2.354-.674-1.796 1.564-3.78 1.26-1.554-.967-3.222-1.819-4.41-3.15-7.085-2.191-13.799-1.472-20.792-3.15-5.637-1.353-10.291-5.445-15.12-5.67-1.053-.049-1.441.937-2.521.63-4.96-1.409-7.666-6.567-12.601-7.561-1.979-.298-1.665 1.696-3.15 1.891 1.802 4.498 6.444 6.156 8.19 10.71-3.652 1.388-5.229 4.852-6.3 8.821-6.325 4.386-12.331 9.09-17.642 14.49-2.597-1.18-3.687-1.218-5.67.631-4.304-.271-6.498-2.507-9.451-2.521 1.045-4.246 5.658-9.349 10.081-6.301 4.216-3.345 10.389-4.731 10.711-11.971-1.238-2.358-3.905-.941-5.671-1.26-5.66-1.021-10.288-3.618-15.121-5.04-.512-8.967-12.617-2.477-15.121-9.451-4.822 3.561-9.105-3.686-13.231-.63.365-2.045-.429-2.931-.63-4.41-.903.776-1.194 2.167-1.26 3.78-2.526-2.44-6.454.379-8.19-2.521-4.92 4.102-11.471 3.346-17.641 1.261-7.081 11.4-11.824 25.138-18.901 36.542-.731.528-1.689.831-3.15.63-.723 3.477-3.213 5.188-3.78 8.82-3.783-.439-4.4 1.718-6.93 3.78-2.358-1.632-7.578-.402-8.19-3.78-2.153-.473-.801 2.56-3.15 1.891-.541-3.811 6.723-4.951 10.081-6.931 4.372-4.449 5.835-11.806 9.451-17.011.229-9.252 3.259-21.08 5.67-30.242-3.16-5.24-5.805-10.996-12.601-12.601-.294-8.316-8.132-9.089-8.19-17.642-2.299-1.271-2.427-4.713-5.67-5.04-.438-8.926-6.327-12.475-5.04-20.161-1.397-.347-.897 1.203-1.89 1.26-1.918.238-1.07-2.291-2.52-2.52-8.889.546-14.604-3.105-23.941.63-5.045-3.787-12.105-5.546-15.128-11.344 5.729-5.953 16.274-5.606 20.161-13.23.845-1.658 1.465-3.834 2.52-5.67 3.339-5.812 2.013-4.401 3.15-11.971.932.729 1.588.729 2.52 0-1.463-4.574-4.13-10.056-2.52-15.751 4.796-.062 5.065 5.297 6.931 8.19 1.258 1.952 3.246 2.864 3.78 5.04 3.051-4.51.536-14.585 7.561-15.121 5.982 4.309 8.412 12.169 12.601 18.271.561-.489 1.422-.677 2.52-.63-.148 3.088 1.874 4.006 4.41 4.41-.741 3.368 3.339 3.378 6.3 5.67 1.025.793 1.468 2.402 2.521 3.15 2.233 1.587 5.279 2.173 6.93 3.78 1.688 1.644 1.596 4.123 5.041 4.41v2.521c2.606.544 4.804 1.497 5.67 3.78 4.449-.669 5.556 2.004 8.821 2.52-.223.828-1.109.991-1.26 1.89 1.781 1.159 2.844 3.036 5.67 3.15 1.483-1.558-1.239-2.463-2.52-3.15 2.041-1.708 6.761 4.81 11.971 5.04-.47 1.94 1.73 1.212 1.26 3.151zm100.8 42.847c1.862.55-1.905.501-.631 2.521 2.37-.27 2.23 1.971 3.78 2.521.12-2.46-1.77-6.17-3.15-5.04zM172 80.015c2.266.884 6.34-.039 7.561 1.89-2.506.549-3.165.549-5.671 0-.106 3.461 3.4 1.627 5.041 1.89 1.028.165 1.723 1.142 2.52 1.26 1.187.177 1.395-.738 2.521-.63 5.209.501 11.402 3.721 14.49 6.931 2.301 2.391 3.474 6.064 5.671 8.82 3.358-.059 4.09 3.918 6.931 2.521 1.981 2.849 4.759 4.901 7.561 6.931.521-1.781-.889-1.633-.631-3.15-7-3.5-12.349-8.652-16.381-15.121 4.965.495 6.192 4.729 11.341 5.04-1.181-1.969-1.314-4.985-3.78-5.67-1.19.069-.438 2.083-1.89 1.89-2.715-2.535-7.712-2.789-9.451-6.3 3.537.256 8.298 6.436 10.711 1.89-4.917-.498-14.339-2.428-14.491-7.561-2.485.354-4.878-2.64-6.93-.63 1.706 1.105 3.535 1.36 5.04 2.52.306.236-.248 1.578 0 1.89.994 1.255 3.595.321 3.78 1.891-9.36-.116-15.38-11.418-23.94-6.304zm14.49 7.56c9.852 1.279 11.565 10.696 18.271 15.121-3.84-6.869-9.14-15.643-18.27-15.125zm40.95 31.505h-2.521c1.276 2.715 3.491 4.489 5.671 6.3-.62-2.53-2.61-3.68-3.15-6.3M45.99 15.75c.152-1.108 1.084-1.437 2.52-1.26V12.6c-2.23-.711-3.831 2.402-2.52 3.15m5.67.63c-1.358 2.317-4.224-.564-5.041 2.52 1.875 2.238 3.505-1.074 5.67-.63-1.073 2.314 1.202 1.819-.63 4.41 1.781.521 1.632-.888 3.15-.63-.186 1.285-1.705 1.235-1.89 2.52 2.966.265.798 2.009 1.89 4.41-1.202.269-1.14 1.8-3.15 1.26-.466 2.146 2.322 1.039 2.52 2.52-1.097-.047-1.959.141-2.52.63.356 1.534.54 3.241 2.52 3.15 2.312-3.239.316-6.877 3.15-9.451-1.287-9.84-7.011-15.247-10.709-22.68-1.173.603-2.105-1.887-2.52 0 2.488 4.022 4.522 8.499 7.56 11.971m-13.861 1.89c-1.523-1.449-2.038 1.664-2.52 3.15 2.971.739 1.37-3.48 3.15-.63 1.631-1.49 3.26-7.181 0-8.19.495 2.594-.967 3.233-.63 5.67m3.781 1.89c2.829.323 1.664-2.892.63-3.78-.726.744-.713 2.227-.63 3.78m3.15.63h1.26v-1.26h-1.26zm-1.26 8.821c.106-.734.996-.684 1.89-.63-1.784-2.836-3.958-5.282-5.67-8.19-.152 1.108-1.084 1.437-2.52 1.26.521 1.781-.888 1.632-.63 3.15 2.443-.571 5.736 1.808 6.93 4.41M32.759 27.09c1.191-.141 1.39.71 2.52.63-.027-.868.296-1.383.63-1.89-1.563-.092-3.058-.117-3.15 1.26m15.751 1.261v-2.52h-3.15c.217 1.672 1.654 2.126 3.15 2.52m-6.93 6.3c-.886-.164-.718-1.382-1.26-1.89-1.781-.521-1.632.888-3.15.63-.371-2.261.732-3.048 1.26-4.411-1.837-.721-3.726-.953-4.41.63 3.127.257-.562 2.156-.63 3.15 3.573-.289 5.513 5.139 8.19 1.891m0-1.89c.151-.899 1.038-1.062 1.26-1.89h-1.89c.098.741-.109 1.788.63 1.89m5.04 5.04c2.886.474 3.646 3.075 6.301 3.78-.196-3.165-2.692-4.028-3.78-6.3h1.89c.015-2.326-.282-4.338-2.521-4.411 1.111 3.741.097 4.997-1.89 6.931m22.051 2.52c1.452-2.406-1.258-5.229-3.15-6.3.184 2.966.928 5.372 3.15 6.3m-42.213-3.78c.394 1.496 3.878-.098 4.411 1.26-.865-1.436 1.624-2.369 0-2.52-.131 1.826-4.678-2.062-4.411 1.26m-3.149.63c-1.914 2.122 2.329 1.911 0 0m52.292 7.56c-1.958-2.452-2.109-6.711-5.67-7.561 1.06 3.352 1.814 7.008 5.67 7.561m-47.882-2.52c2.828 2.819 8.276-2.63 4.41-4.41.173 3.114-3.172 2.709-4.41 4.41m3.15-3.15c-2.547-2.216-1.486 2.027 0 0m49.143 3.78c-.95-.548.173-.943-.63-2.52-.943.107-2.325-.225-2.52.63.956.363 1.582 4.218 3.15 1.89m-11.341 1.89c1.66.19 2.067-.872 1.89-2.52h-1.89zM51.66 48.512c1.282-1.734-.814-5.462-3.15-5.67.341 2.598 1.281 4.598 3.15 5.67m14.491 3.78c.032-3.106-.586-7.294-3.78-8.82.047 4.152.998 7.402 3.78 8.82m19.531-6.93c1.513-1.513-2.067-1.632-1.89-.63-.008-.045 2.132.388 1.89.63m-39.062 5.04c2.414.128 2.116-3.653 0-3.78zm22.051-3.78c-1.913 2.122 2.329 1.91 0 0m8.191 9.45c-2.412-2.419-1.983-7.678-5.67-8.82 1.365 3.054 3.208 8.958 5.67 8.82m4.41-2.52c-2.034-1.746-2.395-5.166-5.67-5.67.272 3.103 3.134 6.925 5.67 5.67m5.67 2.52c-.388-2.779-3.355-6.282-5.041-5.67 1.297 2.274 2.647 4.494 5.041 5.67m206.66-5.04c-.535-.535-1.798.458-1.891.63-.6 1.106 2.32-.195 1.89-.63zm-205.4 1.26c.134 3.242 4.039 6.021 6.931 4.41-2.14-1.641-4.261-3.3-6.931-4.41m8.821 3.15c2.492 3.389 6.275 5.485 10.081 7.561-2.022-5.119-7.518-6.764-10.71-10.711-3.171 2.498-2.443-.827-6.301-.63 1.654 1.632 5.62 5.776 6.927 3.78zm-35.282 2.52c.528-1.533.977-4.089-1.26-4.41.107 1.782-.543 4.322 1.26 4.41m45.996-1.89h1.26v-1.26h-1.26zm-50.407.63v1.26c1.55.979 1.853-2.14.63-1.89-.035.385-.094.746-.63.63m14.491 0c-1.033 2.722.907 7.334 3.15 8.821.19-4.179-1.34-6.64-3.15-8.821m3.78 2.521c-.004-1.886-1.132-2.648-2.52-3.15.356 1.533.54 3.24 2.52 3.15m202.88 0c2.303-.847 6.314.014 6.93-2.521-2.53.621-6.44-.139-6.93 2.521m11.34 0c3.151 1.005 8.604-1.546 5.671-2.521-1.56 1.171-4.34 1.121-5.67 2.521zm-199.72 1.259c.166 2.172 3.912 4.032 5.041 3.15-2.512-2.738-4.672-5.829-9.451-6.3.027.867-.297 1.383-.63 1.89 1.57 1.881 3.091.532 5.04 1.26m208.54-3.15c-3.073 5.217-9.826 2.855-13.861 6.93 6.119-1.651 14.195-1.346 16.381-6.93zm-183.97 5.671c.133-.707.699-.981 1.26-1.26-.25-2.709-5.117-4.098-7.56-2.52 2.41.948 3.85 2.871 6.3 3.78m153.1-1.26c1.341-1.389 4.319-1.142 5.04-3.15-2.61-.275-6.23 1.721-5.04 3.15m-212.96 0c.036-.384.094-.746.63-.63-.071-.769-.188-1.492-1.26-1.26.099.741-.108 1.788.63 1.89m51.037 2.52c-.932-.328-1.588-.932-2.52-1.26-.47 1.396 2.32 2.596 2.52 1.26m-10.084-3.781c2.226 1.309 3.344 6.498 6.3 5.041.866 2.915 2.874 4.687 5.041 6.3-.54-6.604-7.262-10.377-11.344-11.341zm178.93 2.521c2.976 1.095 9.232.558 10.08-2.521-3.72.489-7.15 1.257-10.08 2.521m-197.84 1.26c1.313-.488-.464-3.788-1.26-1.89 1.04.009.352 1.747 1.26 1.89m22.681 28.981c-2.747-3.763-5.293-7.728-8.82-10.71.867 5.643 4.175 8.845 8.82 10.71m-10.711-11.34c-1.761-4.76-2.312-10.945-4.41-13.861.689-2.131.291-6.442-3.78-5.67 4.762 10.779 5.667 25.415 15.121 31.502-2.139-4.256-5.186-7.257-6.931-11.971m25.205-15.751c.137-2.474-3.474-4.47-5.04-3.15 2.72.011 2.32 3.138 5.04 3.15m-8.82 17.011c-.993-5.728-6.127-7.314-9.451-10.711-2.191-3.479-3.181-8.159-7.561-9.45 3.999 8.389 9.662 15.117 17.012 20.161m21.42-17.641c.097-2.828-2.831-2.629-5.67-2.52.09 2.642 2.88 2.573 5.67 2.52m20.79.63c.101-1.822-3.781-2.882-4.41-1.89 1.66.453 2.39 3.727 4.41 1.89m-35.91 4.41c2.831-.904 4.95 2.143 6.3.63-2.627-3.043-6.263-5.078-10.081-6.931.54 2.82 3.43 3.288 3.78 6.301zm11.34-4.41c-1.972-.366-5.011-2.933-6.931-1.26 1.64.692 4.74 3.204 6.93 1.26zm155.62 1.89c4.981.715 11.636-1.037 15.121-3.78-5.48 1.527-12.5.909-15.12 3.78zm-207.29-3.15c-.701 3.813 2.596 7.375 3.78 11.341.855 2.863-.571 6.014 1.89 8.19.801-2.649-1.645-5.267.63-5.67-.725 4.505 1.49 6.071 1.26 10.081 3.291.248.791-2.739.63-4.41-.384-3.992-1.299-9.585 0-13.23-2.938.973-2.497-2.771-4.41-4.411-.708 2.431 1.131 5.533 0 6.301-1.465-2.527-.658-7.324-3.78-8.192m9.451 9.45c.396 1.074 1.903 1.037 2.52 1.89 1.325 5.815 1.988 12.293 5.67 15.751-.346-2.513-.346-1.897 0-4.41-5.079-5.842-3.955-17.887-10.081-22.682 1.38 3.348 1.68 6.258 1.891 9.451m17.011-8.19c.838 3.121 2.974.984 0 0m59.854 1.89c-1.914-1.026-4.031-1.849-6.93-1.89-.3 2.838 5.14 3.23 6.93 1.89m-35.91 5.04q.115 2.404 2.521 2.52c-.642-2.742 1.303-2.897 1.89-4.41-3.978-.853-6.432-3.229-10.081-4.411 1.214 3.617 6.076 3.585 8.191 6.301zm-21.42.63c.707-3.284 3.759.449 5.04.63-.641-2.509-1.907-4.393-3.78-5.67-1.048 1.979 2.343 2.575.63 3.15-2.296-.854-3.113-3.188-5.67-3.78.892 2.254 1.625 4.671 3.78 5.67m190.9-5.67c-.942.107-2.325-.225-2.521.63.94-.108 2.32.225 2.52-.63zm-49.15 3.15c2.679-1.102 8.038.477 9.451-1.89-2.64-1.141-7.85-.051-9.45 1.89zm-91.98-.63c-.438-.493-3.516-1.402-3.78 0 1.34.965 3.43.435 3.78 0m114.04 1.89c2.181.738 5.796-.355 6.931-2.52-3.63-.473-5.32.984-6.93 2.52zm-101.44-.63c-1.775-.954-3.938-1.522-6.93-1.26.31 2.028 5.42 2.525 6.93 1.26m-28.98.63c.491.139.732.528.63 1.26h3.78c-.67-1.752-3.44-3.247-4.41-1.26m-37.804 6.931c-.991-3.209-1.125-7.275-5.04-7.561 1.483 2.717 2.329 6.071 5.04 7.561m49.144-4.41c2.121 1.029 4.59 1.71 6.3 3.15 1.543-.837-.692-2.344.63-2.52 3.586.819 10.904 1.724 15.121 1.26-6.872-2.368-14.583-3.898-22.682-5.04.26 2.152 1.7.8.63 3.15zm113.41-1.891c1.765-.725 3.274-.725 5.04 0 .69-2.005-5.74-2.005-5.04 0m49.77 1.891c.787-2.444 3.689.882 4.41-1.89-1.191.141-1.39-.71-2.52-.63-.7.426-3.27 2.093-1.89 2.52m-96.4-.631c5.733.404 12.157 3.619 16.381-.63-5.17.025-12.65-1.27-16.38.63zm49.15 1.89c2.472.913 6.816-.372 8.82 0 .365.068-.191 1.386.631 1.26.207-.032-.191-2.333.63-1.89 3.312 1.771 10.229-.333 9.45-2.52-6.08 1.865-14.02.186-19.53 3.15zm-168.22 4.411c.118-3.478-1.696-5.024-3.15-6.93.877 2.482.679 6.04 3.15 6.93m27.724 11.34c.229 3.206 1.92 6.221 0 8.19 5.889-.622 3.309-7.04 3.15-9.45-3.413.045-4.713-3.898-6.93-5.671-.833-.665-3.023-.411-3.78-1.26-1.998-2.239-3.924-3.926-6.3-5.67-1.754-1.288-3.51-3.606-5.67-3.15 5.6 6.571 12.71 11.645 19.53 17.006zm-11.97-14.49c1.307-1.297-.002-3.196-1.89-3.15.21 1.469.64 2.714 1.89 3.15m67.41 0c-1.356-2.646-7.936-3.39-10.711-2.52 3.15 1.178 6.91 3.949 10.71 2.52zm-105.85 2.52c.63-1.05 2.914-.446 3.15-1.89.071.769.188 1.492 1.26 1.26.51-2.4-1.846-1.934-1.89-3.78-1.939.441-1.211.441-3.15 0-.455 1.925.644 2.296.63 3.78-.35-.002-.715.51 0 .63m129.79-2.52c2.018 1.883 3.501.384 6.931.63.06-2.797-6.14-2.365-6.93-.63zm47.88.63h5.04c-.33-2.039-5.13-2.673-5.04 0m-115.29 1.89c.087-2.817-3.04-2.421-5.041-3.15.32 2.403 2.25 3.212 5.04 3.15zm14.49.63c.409-2.746-3.988-3.955-5.67-2.52 1.06 1.668 2.78 2.675 5.67 2.52m121.6-.63h2.521c-.099-.741.108-1.789-.63-1.89.25 1.509-2.87-.35-1.89 1.89zm-97.66 2.52c-.639-3.771-5.935-2.886-10.081-3.15 1.67 3.721 6.66 2.454 10.08 3.15zm30.24-1.89c.746.802 2.38.267 3.15-.63-1.47-.192-2.71-1.345-3.15.63m51.66.63c2.501-.439 6.979 1.098 7.561-1.26-2.11-.798-6.67-1-7.56 1.26zm-112.14 2.52c-.662-2.908-3.042-4.099-6.931-3.78 1.12 2.446 4.36 2.78 6.93 3.78zm134.83 0c2.21 1.364 3.621-1.31 6.301 0-.247-1.921 1.656-3.208-.631-3.78-.13 3.021-4.44 1.864-5.67 3.78m-205.4 1.89c-.057.993-1.607.493-1.26 1.891 2.06 1.995-.491 5.447 1.89 6.301.594-3.409 1.73-9.595.63-12.601-.712 3.634-.725.134-2.52 0-.93 2.82 1.845 1.934 1.26 4.409m147.43-3.78c-.314 3.208 6.382 2.238 6.301 0-1.83-.817-4.47-.817-6.3 0zm-92.61 5.04c.024-2.335-.968-3.653-1.89-5.041h-2.52c.88 2.265 1.8 4.494 4.41 5.041m-28.354-1.26c-.523 3.482 3.439 5.776 5.04 5.041-2.727-.637-2.469-4.256-5.044-5.041zm3.784 2.52c.139-2.477-2.194-5.75-3.78-4.41 1.583 1.143 1.787 3.669 3.78 4.41m4.41 1.891c.657.662 2.449 3.351 3.15 1.89-.635-.007-.792-1.104 0-1.26 1.626.054.663 2.697 3.15 1.89-1.524-4.566-5.183-6.998-8.821-9.45.311 3.89 4.312 4.088 5.041 7.561-1.58.83-1.98-2.493-2.52-.631m141.12-6.931c-2.762-.012-5.9-.024-6.3.63 1.08.998 6.44 2.763 6.3-.63m-44.1 1.26c-.43 1.95 3.61 2.624 4.41 1.26-1.6-.366-3.07-2.523-4.41-1.26m-88.2 7.56c-1.383 3.253.585 6.33-1.26 9.45 7.591-1.564-.875-7.775 3.15-10.71-2.347-2.273-3.755-5.485-7.561-6.301-.17 4.576 4.4 4.41 5.67 7.556zm63.63 0c-4.07-3.074-9.45-8.186-15.751-6.931 2.772 1.849 7.626 1.615 9.451 4.41-4.575-1.054-6.811-1.03-10.081-3.78-.396 1.074-1.903 1.037-2.52 1.891 4.245 1.013 9.778 4.073 10.081 6.931-2.207-.52-5.599.507-7.561 3.15 2.386 1.616 6.863 4.461 8.82 4.41-1.861-1.479-6.048-3.35-5.04-5.671 1.955.59 4.923 3.445 6.931 1.891-3.278-.085-.458-2.556-.63-3.15 1.664.672 3.482 4.461 5.67 2.521-1.418-1.958-7.278-2.782-5.67-5.671 9.934 5.816 16.739 14.762 24.571 22.682 1.281 2.919 2.657 5.742 4.41 8.19-.264-3.122.19-2.053 2.52-1.891-1.193-2.777-2.34-7.597-5.67-6.3.015-1.484-1.085-1.855-.63-3.78-2.498-1.912-4.357-4.464-7.561-5.671-3.599-7.322-12.029-9.812-17.011-15.751 1.78.557 3.95 3.994 5.67 2.516zm17.64 24.575c.06.99-.085 2.185 1.26 1.891v-1.261c-.63 0-.75-.51-1.26-.63m3.78-8.19c-6.331-2.278-8.191-9.029-14.49-11.341.392 4.408 4.95 5.234 7.561 7.561 6.022 5.368 9.896 11.947 13.86 19.531.279 1.19-.856 3.797 1.261 3.15-.19-8.84-4.51-13.55-8.19-18.9zm10.71 17.64c.184-3.334-.899-5.401-3.15-6.301 1.78 1.37.07 6.23 3.15 6.3zm-28.35-34.025c-.633 1.086 2.299 3.978 5.04 3.78-.8-2.141-2.97-2.906-5.04-3.78m1.89.63c5.894 3.263 12.354 3.701 14.49 9.451 5.961 1.81 7.335 8.206 13.23 10.08-.837-4.198-5.107-6.409-8.19-9.45-5.651-5.577-8.632-13.528-17.011-13.231 1.815 1.756 5.398 1.742 6.301 4.411-5.116-.975-7.099-5.083-12.601-5.671-2.004-.307-1.02-3.601-3.78-3.15.31 3.348 4.47 5.847 7.56 7.556zm88.21-6.93c-.775 2.095 4.259 1.541 4.41.631-2.44.596-2.6-2.457-4.41-.631M76.849 98.285c.619-4.953-3.114-7.748-1.26-11.971-.867.027-1.383-.297-1.89-.631.354 4.896-1.137 11.638 3.15 12.602m27.095-9.451c.034-1.084-.485-1.615-1.26-1.89-.04 1.084.48 1.616 1.26 1.89m115.29.63c2.612-.17 2.455.828 4.41 0-.01-2.969-4.6-3.251-4.41 0m-61.74-.63c-1.993.104-2.105-1.674-4.41-1.26-.82 2.336 3.73 2.503 4.41 1.26m54.81 1.261c1.418.629 2.8 3.151 3.15.63-2.521-.42-3.519-2.362-6.301-2.521-1.3 2.573 2.06 1.406 3.15 1.891zm15.12-1.261c-1.098.048-1.96-.141-2.521-.63-1 1.755 2.72 1.742 2.52.63zm41.59 1.891c2.632.557 9.065-.041 10.711-2.521-5.15-.736-7.9.928-10.71 2.521zm-189.64 7.56c.258-.792.812-1.288 1.89-1.261.566 1.845.566 1.937 0 3.78 2.494-.813 1.287 2.074 3.78 1.261-.369-4.157 1.397-8.432-2.52-11.341-.442 2.751 1.071 3.549.63 6.3-.746-.935-2.38-.979-3.15-1.89-.621-1.305-.923-6.169-2.52-4.41.427 1.617-.046 5.823 1.89 7.567zm80.645-4.41c.07-2.382-1.233-3.388-3.15-3.78-.07 2.381 1.23 3.386 3.15 3.78m99.55 0c1.202-1.948 6.442.142 6.3-3.15-3.13-.372-7.9.9-6.3 3.15m-110.89 1.26c.731.528 1.689.831 3.15.63.201-1.479.995-2.365.63-4.41-2.33.187-4.14.902-3.78 3.78m-58.595 0q-.171 2.061 1.89 1.89c.434-1.694-1.302-1.218-1.89-1.89m.631 3.78c-.037-2.508-3.736-4.632-5.041-3.78 1.181 4.975 6.185 5.568 10.081 6.3.034 1.084-.485 1.615-1.26 1.891-5.046-.006-6.582 3.499-10.081 5.04-.394 1.913 3.755 2.479 1.26 4.41-.265-1.204-.228-2.712-1.89-2.52-.846.414-1.173 1.347-1.26 2.52 1.539.629 1.342.209 3.78.63-.508 2.818 1.121 3.5 3.15 3.78-1.04-2.32-.579-6.141-2.52-7.56 2.219-2.121 3.817-1.119 5.67-1.261.027-.867-.297-1.383-.63-1.89 3.206-.821 5.302-4.234 8.191-1.891-.178-1.647.23-2.71 1.89-2.52.099.741-.108 1.788.63 1.89-.114-2.844 3.779-1.681 3.78-4.41-3.14-1.061-4.476-3.925-7.561-5.04v3.15c.979.911 2.94.84 3.78 1.89-2.219 1.125-8.09-.783-9.451-.63.117-.934 1.522-.578 2.52-.63-.301-3.479-2.354-5.207-5.04-6.301-.063 3.003 2.431 3.449 2.52 6.301-1.195-.145-1.394.706-2.523.626zm-3.781.63v1.26h1.26v-1.26q-.63-.005-1.26-.004zm1.89 11.344c1.837.926 1.837-2.816 0-1.891zm6.931-3.78c1.66.189 2.068-.873 1.89-2.521-1.662-.19-1.625 1.31-1.89 2.52zm133.56-13.234c.279-3.22-4.456-1.424-6.93-1.891 1.2 2.718 4.44 1.823 6.93 1.891m-84.42 3.78c-.234-2.077-1.472-3.148-2.52-4.411-1.81 2.129.79 3.877 2.52 4.411m94.51-3.15c2.786.153 4.59 1.29 7.561 1.26-.93-2.422-5.69-3.335-7.56-1.26zm-134.2 2.519c1.066-2.788-2.579-4.085-3.78-2.52 1.91.191 1.77 2.432 3.78 2.52m11.97-.629c1.754 1.01 1.742-2.721.63-2.52-.2.852-.9 1.203-.63 2.52m-5.04 1.26c.201-1.462-.102-2.419-.63-3.15h-1.89c.39 1.496.84 2.932 2.52 3.15m119.07-1.26c-1.44-.282-4.442-2.222-5.671-.63 1.42.303 4.72 1.945 5.67.63zm-90.09 1.89c-1.55-.55-1.411-2.79-3.78-2.521-.7 2.422 2.7 3.965 3.78 2.521m85.05-.63c-2.021-.31-7.645-2.961-7.561-1.261 2.93-.38 4.7 3.675 7.56 1.261zm-80.01 3.784c2.985-.675 1.458 3.163 3.78 3.15-.794-2.75-.186-2.801.63-5.04-.435-1.287-2.164-4.5-3.78-2.521.873 1.018 1.785 1.995 2.52 3.15-1.436.865-2.368-1.624-2.52 0 1.12.3-.27.67-.63 1.26zm51.66 3.15c-3.807-2.283-5.279-6.9-10.08-8.19 2.41 3.262 6.35 8.34 10.08 8.19m69.31-8.194c-1.306.375-4.139-.778-4.41.63 1.06 1.496 3.49 1.183 4.41-.63m-47.26 3.15c-1.497-.225-3.623-3.041-5.04-1.26 1.73.336 3.71 4.364 5.04 1.26m23.94-.63c1.581-.52 5.425 1.225 5.04-1.26-2.14-.044-4.39-.196-5.04 1.26m-130.41 3.784c-3.553 1.914-10.803 3.468-10.71 6.931 6.79-.561 8.841-5.86 15.121-6.931-.164-1.845 1.425-1.936 1.26-3.78-.806-.035-.873-.808-1.89-.63-1.35 1.377-1.96 3.49-3.78 4.41zm-35.915-1.26c-.144-1.116.635-3.154-1.26-2.52-.176 1.43.151 2.36 1.26 2.52m99.545 1.26c1.88 1.06 3.384 2.496 5.671 3.15-1.175-2.815-2.741-5.239-5.041-6.931.46 1.921-1.09 1.851-.63 3.781m-113.41-3.154c-.043.008.039.586 0 .63-2.992 3.42 3.025-1.168 0-.634zm93.246 5.044c.239-2.969-.051-5.409-3.15-5.04-.1 2.83 1.32 4.13 3.15 5.04m-51.66-.63c2.338-.182 4.328-.712 5.041-2.521-2.27-1.809-4.03 1.1-5.04 2.52zm20.79-1.26c1.084.033 1.615-.485 1.89-1.261-.99.06-2.19-.09-1.89 1.26zm-1.26 3.15c-.381-1.299 1.017-4.377-1.26-3.78-.88.86-.6 3.79 1.26 3.78m56.7 3.78c-.488-4.142-5.07-7.518-8.82-6.301 3.12 1.91 4.48 5.6 8.82 6.3zm-43.47-3.15c-.584 1.904.9 4.899 0 5.04-1.335-2.235-1.321-5.819-3.78-6.931.034 1.084-.485 1.615-1.26 1.891-.935-.746-.98-2.38-1.89-3.15-1.024 2.713-.082 8.323 3.15 8.82.817-1.562-1.406-3.058 0-3.15.119 1.771 2.056 1.725 2.52 3.15-1.473 2.089 1.157 4.431 1.26 6.931 1.098.047 1.959-.141 2.521-.63-.847-2.094-1.99-3.891-2.521-6.301 2.409.532 2.329 3.552 3.15 5.671 4.087-.561.416-4.013 0-5.671-.315-1.232 1.374-4.021 0-2.52-.69 1.05-2.01-2.57-3.15-3.15m76.86 3.15c-1.292-3.329-4.508-4.733-7.561-6.301 1.65 2.97 2.83 6.41 7.56 6.3zm-69.93 2.52c-.562 1.983-.645 3.78 0 6.301 3.17-.79 2.66-5.27 0-6.3zm13.23-3.78c-.672.588-.196 2.324-1.89 1.891-.73-1.791-1.3-3.74-3.78-3.78.036 2.274 1.57 3.05 1.89 5.04-1.601-1.659-2.552.118-3.15 1.26-3.192-2.688-6.449-5.311-8.82-8.82 1.826 4.895 5.188 8.252 6.3 13.861.506-1.595 2.594-1.607 3.78-2.521.987.903.496 3.284 2.52 3.15 1.106-.743-1.455-3.124-1.26-5.041 2.462.899 2.114 4.606 5.041 5.041-.335-1.766-.925-3.275-1.26-5.041 1.633 1.451 2.909 1.236 4.41.631.89-4.05-1.56-4.74-3.78-5.67zm5.67 3.15c.107-.942-.226-2.325.63-2.521 8.59 1.7 13.213 7.369 18.901 11.971-2.843-8.708-10.292-12.81-18.271-16.381-.469 1.939 1.729 1.211 1.26 3.15-1.674-.634-3.208-.657-4.41.63 1.1.94-.56 2.63 1.89 3.15zm-2.52-5.04c-1.252-.009-.801-1.719-2.52-1.261-.11 1.82 2.13 3.47 2.52 1.26zm39.06 2.52c2.396 3.485 4.171 7.59 8.19 9.451 1.12-4.78-4.89-7.08-8.19-9.45zm4.41 0c-2.063-.538-2.977-4.598-5.04-3.149.22 2.12 3.26 4.68 5.04 3.15zm-110.88 2.52c3.266-.095 6.456-.265 6.301-3.78-2.067-.94-5.322 1.61-6.305 3.78zm20.795-3.15c.899.151 1.062 1.038 1.89 1.261.198-.853.896-1.204.63-2.521-1.44-.18-2.37.15-2.52 1.26m6.93.63c1.838.927 1.838-2.816 0-1.89zm5.04 3.15c2.095.775 1.541-4.259.63-4.41-.87.81-.63 2.73-.63 4.41m3.15 3.78c4.268-.905.309-6.013-.63-7.561-1.23 3.14.71 4.04.63 7.56zm60.48 2.52c.377-1.122-1.847-2.617 0-3.15.179 3.354 2.713 4.674 3.78 6.301.565.859-.453 3.394 1.891 2.52-.285-5.176-3.51-7.411-5.04-11.341-1.72-.057-1.269 1.05-2.521 0 .278-2.378-1.242-2.958-1.891-4.41h-1.89c1.78 3.47 2.71 7.79 5.67 10.08zm-22.05-5.04q-.115-2.404-2.521-2.52c-.43 2.11 1.06 2.3 2.52 2.52zm45.99 3.15c-1.214-.256-.497-2.442-2.52-1.89-1.146 4.819 5.723 6.801 7.561 10.71.688-2.818-3.251-4.268-1.891-5.67.934 1.129 3.424 4.653 4.41 1.891-3.447-3.068-7.099-9.275-10.71-10.081.59 1.74 4.65 3.29 3.15 5.04m-122.22-5.04c-.557-.484-1.799.387-1.89.63-.89 2.37 3.135.45 1.89-.63m91.985 2.52c-.266-1.205-.229-2.712-1.891-2.521.27 1.2.23 2.71 1.89 2.52zm-78.12.63c2.636.987.688-3.848 0-1.261.76.13.38.69 0 1.26zm19.53 0c.172-.858-.39-2.46-.63-1.261-.17.85.39 2.46.63 1.26zm100.17 1.89c-1.485-.194-1.172-2.188-3.149-1.89-.36 1.68 2.6 3.21 3.15 1.89zm-131.68.63h1.89v-1.89h-1.89zm5.671 0c.027.868-.296 1.384-.63 1.891 1.569 1.384 4.139-.051 4.41-1.891-1.32-1.38-1.8.31-3.784 0zm2.524 3.78c1.873.92 4.746-1.74 6.301-3.149-1.121-.561-1.602-1.76-3.78-1.261 2.02 3.08-1.58 2.6-2.52 4.41zm-11.344-2.52h1.89c.081-1.132-.626-1.475-1.89-1.261zm2.52 0c1.325 5.76 6.652.43 0 0m32.764 3.78c2.393 1.27 2.498-2.864 1.26-3.15-.27 1.2-1.36 1.58-1.26 3.15m58.59-2.52c1.754 3.286 3.983 6.098 7.561 7.561-1.29-3.75-4.24-5.84-7.56-7.56zm6.3 3.15c.025-1.916.366-4.146-1.891-3.78-1.13 1.2-.18 3.88 1.89 3.78zm-51.66 1.89v-3.78h-1.89c.32 1.57-.02 3.8 1.89 3.78m1.89 1.89h1.26c.489-.142 1.243-.018 1.26-.63-2.259-.472.084-5.545-3.15-5.041-.75 2.86 2.34 3.77.63 5.67zm20.16-4.41h1.26v-1.261h-1.26zm61.74 1.26c1.619.061.9 2.459 2.52 2.521.071-.77.188-1.492 1.261-1.261-.046 2.146 1.853 2.348 3.149 3.15-.18-3.14-4.69-7.38-6.93-4.41m-75.6 3.78c.552-2.427.473-4.175-2.52-4.41.47 1.84 1.52 3.09 2.52 4.41m66.15 3.15c2.657.106-.011-.968 0-1.891 2.8-.524 1.821-4.294 1.261-5.67-.14.491-.528.732-1.261.63.208 1.473.758 2.603 1.261 3.78h-1.891c-.52 1.78.89 1.63.63 3.15zm10.08-3.15c-.555-1.546-.567-3.633-2.521-3.78-.25 2.35.51 3.69 2.52 3.78zm-11.34.63c.131-1.811-.16-3.2-1.26-3.78-.13 1.81.16 3.2 1.26 3.78m-13.23-.63a1.346 1.346 0 0 0 0-2.521c-1.05 1.25.06.8 0 2.52zm19.53-.63c-.993-.058-.494-1.607-1.891-1.261-.99 1.74 1.64 2.82 1.89 1.26zm-68.04 1.89c-.144-1.116.635-3.155-1.26-2.52.09 1.17.41 2.1 1.26 2.52m60.48 1.26c-.118-1.772-1.097-2.685-3.15-2.521.12 1.77 1.1 2.68 3.15 2.52zm12.6 4.41c1.707-2.16-.684-5.593-2.521-6.301.14 2.8.15 5.73 2.52 6.3zm9.45-3.78c.992-.937.702-2.815-1.26-2.521.09 1.17.42 2.1 1.26 2.52zm3.78 0c.178-1.648-.229-2.71-1.89-2.521-1.13 1.08.2 2.48 1.89 2.52zm-1.26 6.93c-.354-1.368-3.094-3.569-4.41-1.89 1.46.64 2.04 2.17 4.41 1.89m-6.3-3.78c-.133.706-.699.98-1.26 1.26-.333-2.188-1.706-3.334-2.521-5.04-.319 4.52 1.668 6.732 5.041 7.56 1.44-1.43-.42-2.77-1.26-3.78m-13.23 0c-.744-.091-1.429-1.122-1.891 0 .75.09 1.43 1.12 1.89 0zm-32.76 1.26c.139-.491.527-.732 1.26-.63.144 1.116-.635 3.155 1.26 2.52 1.16-3.12-4.08-3.77-2.52-1.89m-4.41 6.93c1.771-.118 2.684-1.097 2.52-3.15h-1.89c.26 1.52-1.15 1.37-.63 3.15m-6.93 4.41c.452-.671 2.46-2.902.63-3.78.49 1.61-2.47 2.89-.63 3.78m-102.07 10.71c.363-1.317 1.562-1.798 1.26-3.78-2.121-.8-2.605 3.19-1.26 3.78m189.02 0c.098-1.777-1.781-1.579-2.521-2.52-.28 2.12 1.33 3.72 2.52 2.52zm-202.88 11.97h1.89c.081-1.131-.625-1.474-1.89-1.26z"/></g></svg>