<svg xmlns="http://www.w3.org/2000/svg" xml:space="preserve" id="Layer_1" x="0" y="0" style="enable-background:new 0 0 1264 1720" version="1.1" viewBox="0 0 1264 1720">
  <style>
    .st0{fill:#020102}.st4{fill:#040104}
  </style>
  <path d="M1165.482 607.729c-33.471-44.448-68.52-49.784-113.86-35.49 3.316-4.206 18.793-17.53 24.641-49.219 3.929-21.084 2.628-42.73 6.144-63.852 19.372-31.076 31.29-67.616 29.181-103.86-.747-11.632-30.335 4.536-36.429 6.48 5.354-7.786 42.947-50.378 41.536-105.038-.746-15.964-32.222 17.217-45.145 23.14 34.414-66.495 45.541-125.145 8.955-204.905-21.294-41.629-106.986 12.591-144.65 43.583-69.505 57.497-132.073 139.729-183.182 186.296-13.152-11.044-35.894-15.5-52.815-18.136-2.01-.431-3.904.704-5.043 2.287-18.674-11.703-46.97-8.234-62.7 13.443-15.121-20.87-42.889-25.609-62.692-13.447-.785-.892-1.6-1.864-2.79-2.176-1.974-.626-39.03 4.362-55.021 18.016-68.227-61.367-164.51-198.438-263.258-235.605-27.613-10.479-53.501-15.835-64.56 5.457-38.628 83.937-22.771 144.335 8.686 205.119-13.562-6.135-24.627-21.491-39.151-26.873-2.782-1.105-6.054 1.254-5.994 4.215-.788 39.077 17.44 73.918 41.595 104.654-5.511-1.668-35.664-18.322-36.455-6.544-2.164 36.151 9.813 72.89 29.21 103.967 6.449 38.884-3.185 76.865 30.789 113.016-12.728-3.28-46.286-17.06-81.48 4.688-11.042 6.809-42.73 34.255-30.128 37.786 27.205 6.544 54.569 12.739 82.376 16.135-46.316 9.694-74.144 29.938-77.555 81.1-.277 2.325 1.476 4.706 3.831 4.991 21.651 2.009 44.164 1.148 64.543-7.125-18.865 38.526-7.828 76.607-63.306 66.13-3.191-.559-5.994 3.037-4.74 6.007 8.039 20.304 18.334 38.401 35.256 51.259-21.66.407-28.325-2.346-24.437 8.293 8.841 22.709 22.131 36.374 39.407 48.481-10.418-.203-23.818-5.104-24.13-5.124-3.123-.047-5.418 3.605-3.989 6.399 14.837 30.729 35.888 57.995 65.26 75.908-4.101 10.6-3.167 20.926 2.457 31.032-14.33 29.479-14.163 72.052 5.96 106.173-13.939-5.86-15.732-16.171-18.229-17.777-1.783-1.288-4.501-.994-5.909.713-1.279 1.403-11.99 32.011 16.199 56.454 12.359 10.67 27.001 18.157 41.258 25.909-13.52-.166-26.433-4.97-38.502-10.695-2.905-1.549-6.745 1.049-6.416 4.304 3.687 21.625 16.021 36.84 38.195 43.238 3.008.951 6.143 1.399 9.172 2.252-18.575 4.01-37.15 9.479-53.6 19.219-11.717 5.811 30.16 36.737 77.922 29.287-14.669 9.869-71.356 39.98-53.012 86.484.729 1.804 2.73 3.008 4.676 2.705 26.625-4.467 51.536-16.736 72.602-33.434-16.59 31.592-26.348 61.453-13.959 98.387 3.286 10.974 31.943-14.969 39.373-23.229-4.044 27.056 16.221 54.43 52.564 62.299-44.136 13.154-74.177 32.426-68.592 77.935.226 1.937 1.847 3.592 3.78 3.878 2.359.36 38.673-9.681 72.171-28.336-18.746 30.957-24.051 57.271-.862 89.291 2.747 3.733 3.632 3.733 7.769 2.782 25.606-6.256 35.412-23.398 43.063-45.085 12.499 67.978 90.695 95.349 93.711 95.324 2.001-.021 3.844-1.57 4.228-3.524 5.679-27.591-11.161-56.272-25.281-80.439 72.587 54.332 110.255 64.436 132.807 95.887.7.943 1.792 1.613 2.986 1.724 5.48.29 4.755-1.005 8.212-5.085 26.445-33.108 78.429-48.739 132.397-93.656-5.852 11.639-32.592 48.355-25.951 81.318.286 1.792 1.741 3.341 3.558 3.652 1.005.224 80.863-24.033 94.428-95.251 7.709 21.804 17.378 38.692 42.863 45.047 1.519.341 3.153.939 4.701.35 2.811-.95 17.481-20.822 18.494-42.662 1.019-19.284-7.078-35.224-16.079-49.697 12.522 6.852 28.469 15.989 69.966 28.157 2.449.87 5.422-.772 5.905-3.345 6.143-45.882-24.812-65.087-68.421-78.297 38.824-9.092 55.978-36.555 52.534-62.111 9.197 9.615 17.898 17.353 32.632 25.567 1.437.87 5.181 1.914 7.129-3.886 11.653-36.336 2.147-65.534-14.313-96.83 29.952 22.234 73.866 39.954 77.342 30.162 14.194-38.015-18.631-65.365-53.375-86.13 29.311 4.814 55.183-2.29 78.899-21.877 11.247-9.622-39.945-23.432-54.326-26.565 2.063-.817 12.945-1.971 23.835-8.605 20.327-12.341 32.03-48.048 15.154-40.328-11.463 5.354-23.741 9.65-36.519 9.842 4.698-3.14 34.116-16.3 48.703-33.468 17.502-20.516 12.792-56.804 2.845-49.637-2.432 1.52-4.583 12.095-18.217 17.735 20.59-36.327 19.766-77.577 5.905-106.117 5.275-9.764 6.837-19.935 2.461-31.037 29.248-17.869 50.171-44.691 65.149-75.674 1.546-2.828-.484-8.476-7.048-5.819-6.749 2.509-13.878 4.078-21.083 4.364 17.004-12.119 31.409-25.953 40.422-51.049.61-1.885-.265-4.07-1.958-5.06-2.034-1.311-4.209-.295-23.366-.729 11.035-8.818 22.151-19.97 33.788-47.7.628-1.62 4.026-7.472-1.271-9.343-1.212-.482-2.517-.162-3.724.073-52.694 10.397-43.755-29.649-61.664-66.463 20.414 8.319 42.999 9.189 64.701 7.159 2.257-.35 3.98-2.615 3.72-4.889-3.401-49.345-29.293-71.744-77.474-81.143 23.236-3.346 33.024-4.493 82.005-16.101 3.075-.593 4.513-4.637 2.61-7.086zm-17.909-7.039c-18.052-8.018-25.799-9.059-37.15-11.049 3.272-3.208 6.749-6.203 10.162-9.266 12.883 5.836 24.265 16.792 26.988 20.315zm-64.07-26.391c10.333-.938 20.892.09 30.729 3.469-.749 1.129-8.658 8.125-10.166 9.339-4.257 4.195.635-.467-35.264 3.771.546-.712 13.801-16.522 14.701-16.579zm-10.043 1.515c-.768 1-13.642 16.955-15.572 17.154-9.518 1.877-18.805 4.714-28.187 7.099 2.261-4.117 5.175-7.841 7.683-11.813 1.262-2.417 27.731-11.501 36.076-12.44zm-1.903 112.807c-2.341-1.419-8.767-6.612-9.987-8.238-1.715-1.007-3.003-2.555-4.509-3.814l-.021-.329c-.226-.158-.674-.473-.9-.635-.145-5.7-.192-11.412-.145-17.116 2.913 1.477 15.259 9.313 17.79 10.828-.464 4.461-2.228 19.296-2.228 19.304zm-84.12-15.905c20.453 10.127 39.608 23.623 50.806 43.374-10.051-7.257-22.602-11.101-35.004-10.175-3.08.538-4.305 4.475-2.62 6.933 4.607 7.107 9.462 14.108 13.311 21.668.333.508.789 1.015.755 1.689 2.045 2.061 10.07 19.325 10.644 22.214 1.501 2.311 21.773 45.751-1.28 87.026-1.399 2.333-2.611 4.808-4.411 6.877-.54-4.421.481-19.805-13.609-35.217-1.664-2.065-3.776-3.703-5.41-5.776-5.962-2.683-6.641 1.027-8.097 2.935-.001.041-5.805 21.827-7.585 29.142-.017.135-2.103 12.846-2.261 13.443-.189 24.346 3.88 23.864 5.017 28.554 2.244 2.44 3.925 5.401 6.561 7.487 1.024.977 2.449 1.617 3.144 2.914 4.4 1.227 4.518 4.559 23.69 8.31-8.608 12.923-28.529 7.691-33.716 7.27-8.989-.785-2.793 14.814 1.728 20.337.546.764 1.301 1.459 1.557 2.41 1.591.994 2.995 2.278 4.258 3.673 1.49.638 21.916 16.466 46.587-7.538 1.6-1.497 2.777-3.456 4.689-4.612-.124 2.099-.158 4.266-.858 6.28.097 2.926-2.945 16.435-11.527 27.312-15.413 18.335-34.832 15.284-40.465 11.711-9.359-2.406-23.498-15.849-25.03-18.976-1.226-.677-4.808-5.273-5.699-6.997-1.056-1.076-5.317-7.044-5.879-8.904-1.323-.892-1.621-2.713-2.986-3.55-1.95-1.267-4.782-.832-6.182 1.041-.823 1.246-1.084 2.777-1.941 4.006-.245 2.063-4.516 12.902-5.179 14.181-1.304-2.182-4.441-10.824-4.676-13.541-4.715-7.538-5.046-41.099-1.783-49.356-.366-1.913 4.065-17.654 5.896-20.904.132-1.374.819-2.607 1.306-3.874 10.965-27.421 14.789-23.301 11.757-30.38-1.22-.606-2.487-1.408-3.891-1.237-3.246.282-24.712 23.132-28.588 25.503 2.329-18.914 34.377-57.173 36.455-58.357.132-.964.913-1.638 1.468-2.376 37.685-45.197 33.603-53.927 31.237-71.258-5.724-37.251-40.362-49.214-62.53-34.714-2.167 1.314-3.844 3.268-6.007 4.573-.406 1.002-16.429 23.845-20.303 26.852 1.015-3.545 2.7-6.856 3.844-10.358 5.798-15.977 8.908-32.751 14.228-48.869 1.763-5.424 4.564-9.364.503-11.86-1.859-1.506-49.508-6.229-87.363.482-1.595.234-3.14.892-4.765.738-8.544 2.637-6.302.34-33.042 10.009 5.894-4.281 19.616-12.825 21.404-12.982.661-1.011 1.843-1.416 2.85-1.988 42.2-22.632 77.697-28.759 82.167-30.371 2.159-.631 4.095-1.911 6.331-2.291.785-1 28.635-14.481 18.541-45.618-3.731-12.059-13.023-22.649-24.714-27.299-3.225-1.361-6.689-1.877-10.064-2.679-3.108.274-11.099-1.494-24.629 4.501-2.329.9-4.351 2.462-6.736 3.208-.442.477-9.287 6.688-9.88 6.954 0 0-10.27 9.186-18.212 19.415-.759.943-1.404 1.988-2.274 2.837-.418.154-.764.068-1.045-.256-14.23-12.315-9.24-30.378-5.328-33.007 1.433-3.396 4.253-5.96 6.839-8.498 18.083-16.265 40.144-14.625 45.499-19.407.073-1.51.235-3.08-.371-4.505-11.528-29.205-45.988-33.334-50.52-35.435 2.099-.734 4.258-1.361 6.498-1.472 2.525-.945 21.057-4.954 37.73 2.684 29.691 13.408 28.439 40.876 39.872 34.889 2.146-4.556 2.982-9.595 3.831-14.518 4.026-20.769-4.875-40.319-5.9-43.195 21.184 12.718 29.696 44.49 29.748 49.215.817 1.239 3.603 14.245 3.895 19.087 2.257 7.133-.376 16.609 8.989 13.818 5.529-7.77 8.755-14.097 8.848-14.232l5.141-15.742c.457-4.71 1.485-9.36 1.634-14.104.264-12.567-.781-20.209-.781-20.209a33.083 33.083 0 0 1 1.89 1.745l-.277.23c15.938 20.154 20.251 45.455 18.038 58.895.611 3.394-1.089 13.246-1.638 14.859-.07 1.253-1.858 11.816-5.179 16.617-.304 1.147-24.582 55.84-24.582 55.84.111 2.304 2.278 4.006 4.484 4.108 3.904.251 7.59 1.664 11.416 2.363 4.692 1.113 39.788 4.48 58.084 37.444-11.287-3.714-28.127-8.508-42.611.887-.571 3.794-1.791 5.08 4.258 8.097zm-160.358 365.463c3.305 3.84 17.747 28.323 2.176 48.464-3.006-13.312-9.122-28.516-22.282-33.801-8.674-3.992-20.192-3.469-22.308-2.282-4.376 2.371-1.028 7.275-.248 9.07 14.617 32.461 8.317 68.524-5.089 80.209-10.098 22.323-88.17 7.375-147.209 52.15-8.364-6.603-18.534-12.414-18.541-12.419-.866-.269-1.707-.653-2.381-1.242-82.062-31.833-101.206-18.798-120.793-33.293-24.737-19.521-22.47-61.129-8.908-88.775 4.004-9.737-18.252-7.643-27.871-1.408-1.954 1.148-3.537 2.803-5.418 4.044-1.348 1.711-2.73 3.409-4.202 5.013-2.691 5.407-4.604 5.833-8.968 22.73-5.265-7.21-7.918-16.365-6.817-25.264 2.875-24.813 22.467-32.074 10.461-37.385-33.699-2.73-58.736 2.889-61.062 36.911-38.639-48.272-125-53.313-164.91-83.536 73.743 32.122 176.431 9.643 217.738 24.13.299-.013.887-.043 1.182-.055l-.307.132c32.146 6.892 53.064 25.431 53.583 30.772 4.626 55.396 51.618 79.094 53.703 80.998l16.322 8.093c5.045 5.438 20.758 33.269 77.568 33.161 41.029-.196 58.105-13.655 74.586-30.49 3.204-5.639 4.805-1.899 23.72-14.343 1.489-.969 2.888-2.082 4.488-2.863a3.723 3.723 0 0 1 1.608-1.177c2.898-2.792 9.42-6.947 18.528-17.436 1.293-1.451 2.359-3.106 3.823-4.398 3.212-5.475 16.19-20.517 19.718-48.127.286-1.732.17-3.528.738-5.201 1.99-2.8 8.842-8.883 10.512-9.735 34.401-34.339 134.716-21.865 182.755-26.207 50.399-3.361 71.693-15.129 76.006-15.947.431-.653 1.382-.674 2.078-.951a10.77 10.77 0 0 1-2.445 1.608c-5.991 9.539-78.693 31.728-103.395 41.954-26.605 10.998-35.734 19.168-39.266 21.002-2.116 2.12-4.723 3.694-6.898 5.764-2.654 2.125-4.842 4.77-7.47 6.911-1.455 2.142-3.323 3.955-4.945 5.968-1.653-27.584-18.477-35.083-41.006-37.777-3.369.013-19.831-.206-22.381 1.997-4.445 4.197 1.618 7.873 3.827 13.031zm-101.088 279.594c.41.538.815 1.092 1.246 1.651 1.199.529 2.474 1.041 3.831.84 19.348-2.017 27.62-11.631 30.281-13.289 1.826-2.372 4.061-4.424 5.747-6.916.9-1.195 1.587-2.555 2.662-3.601 2.133-4.249 4.595-8.353 6.31-12.807 17.648 28.498 23.206 65.184 12.76 103.395-6.597 24.224-18.646 44.362-21.975 48.554.383-2.276 8.091-22.818-3.639-44.198-.973-1.877-2.304-3.541-3.217-5.439-1.987-2.048-11.119-16.121-34.782-23.195.288-54.969-29.063-119.547-77.299-158.459 28.96 3.778 63.829 15.383 81.612 38.596 1.523 2.116 3.225 4.177 4.164 6.647 2.336 2.286 15.701 26.038-5.495 61.088-2.704 4.538-2.52 3.546-2.206 7.133zm-10.038 47.777c-.237 4.595 4.029 5.039 5.618 5.567 20.378 6.102 34.736 18.221 38.75 39.117l-.077.397c5.285 34.537-31.236 75.912-72.265 43.178-1.544-1.194-2.884-2.769-4.774-3.409-3.311-1.155-7.935 2.929-4.463 7.551 16.769 22.402 9.316 53.402 2.457 61.561-.23.87-.635 1.711-1.369 2.282-.452 1.364-4.082 5.695-5.043 6.719-15.581 20.284-53.93 23.464-74.543 9.33l-.064-.269c-19.784-8.371-36.74-50.876-14.59-79.872 1.365-1.787 1.438-4.569-.307-6.126-4.365-4.878-7.98 3.475-19.317 8.839l-.303-.038c-1.869 1.72-16.186 8.63-31.775 3.195-39.315-14.847-38.839-74.367-5.435-86.489 3.283-2.767 16.012-6.569 17.014-6.903 4.99-1.89 1.14-7.915 3.042-18.75 1.464-53.64 44.785-125.03 83.57-147.653 52.355 35.27 84.111 105.977 83.874 161.773zm-219.244 68.161c.38.84.704 1.719.969 2.628-.35-.555-.738-1.071-.956-1.664-22.921-29.589-41.794-98.57-8.656-151.045 2.569 5.995 6.327 12.816 6.327 12.816 11.59 14.91 8.362 9.606 13.524 14.804 1.005.528 19.359 12.045 28.972 8.144.503-.755 1.003-1.51 1.523-2.244 0-1.357-.004-2.777-.798-3.921-38.033-59.842 10.87-100.275 78.315-108.865-3.666 3.659-14.639 10.992-34.548 36.186-.414 1.001-43.33 56.673-42.274 119.88-.132.853.35 2.381-.875 2.594-14.283 4.57-20.517 10.25-23.05 11.553l-8.447 8.012c-1.51 2.466-3.485 4.62-4.885 7.167-12.737 21.175-5.182 42.094-5.141 43.955zM243.37 903.999c2.406-.781 4.936-1.028 7.363-1.732 13.018-3.734 14.406-6.48 18.212-8.524 2.536-3.473 26.253-16.817 1.348-82.402-4.202-3.218-7.001.235-8.34 1.502-11.214 10.92-17.422 23.256-17.112 39.113-2.264-1.852-13.964-19.989-15.29-43.17-1.499-49.913 35.054-98.039 34.518-97.039 4.898-9.139-17.477-7.217-30.627-.393-2.466 1.148-4.62 2.829-7.022 4.091 18.108-36.348 65.456-42.407 53.626-51.634-3.283-2.436-12.005-4.514-15.729-4.582-7.489-.139-12.175-.475-25.951 4.467 9.561-15.909 24.816-28.341 42.415-34.292 37.081-7.609 32.655-5.644 30.055-14.633-2.019-2.08-9.121-19.085-9.386-20.085-1.213-2.083-13.486-30.211-13.618-30.729-3.546-5.494-6.016-19.693-6.101-22.568-.579-1.698-1.327-9.539-.798-12.304-1.901-20.756 7.974-44.421 19.548-57.329-.16 8.256-1.792 10.696.337 28.869.333 2.794 1.288 5.482 1.485 8.298l5.077 14.138s4.583 8.111 7.436 11.694c1.677 2.244 5.631 2.15 7.107-.269 1.335-2.155.862-4.855 1.766-7.159-.012-1.832 1.018-9.343 1.608-10.346.461-4.154 3.157-17.72 4.33-19.117.089-2.248 2.853-10.32 3.754-11.625 2.282-9.468 14.94-27.779 24.676-32.449-8.852 26.434-5.982 25.957-6.728 36.007.193.763 1.282 9.783 1.297 10.994 1.169 3.153 1.762 6.506 2.632 9.761 7.044 6.779 9.494-4.851 13.135-8.481 1.794-4.16 23.88-41.357 72.073-26.668-35.772 7.964-42.529 22.648-46.088 25.789-4.53 8.933-7.765 12.115-2.892 16.182 28.145 4.04 43.153 15.059 46.561 20.866 4.027 3.671 8.39 12.622 7.594 18.554.722 4.961-3.04 14.704-10.158 19.919-6.957-8.596-16.516-21.075-32.355-30.277-15.598-8.317-32.38-10.08-46.813-.576-9.482 6.491-12.255 12.817-14.787 16.378-.938 2.692-2.351 5.222-3.02 8.016-.734 2.133-.836 4.42-1.557 6.553.196 1.531-.115 3.067-.183 4.607-.102 1.958.422 3.899.273 5.866.708 3.119 1.271 6.306 2.632 9.232 7.935 18.788 29.015 22.241 31.804 23.251 5.93.426 31.178 8.65 34.232 10.397 2.362-.186 36.179 14.597 39.979 17.892 2.738 1.034 17.327 9.438 23.029 13.955-6.453-1.235-32.488-16.245-99.846-12.944-12.262.966-20.162 1.291-23.933 1.95-1.425 1.549-2.961 3.605-1.971 5.815 7.7 19.97 5.111 22.001 20.759 66.25-3.699-3.177-13.04-16.276-17.129-22.568-15.25-22.951-55.555-21.184-68.69 12.662-8.54 21.227-5.583 35.907 4.121 52.342 15.423 25.769 57.78 65.614 62.056 92.824-5.426-3.503-25.526-26.202-29.437-25.994-2.765-.192-5.107 2.799-4.373 5.452 1.683 5.059 12.45 18.098 20.085 50.516.299 1.433.806 2.85.742 4.343 2.949 8.317 2.885 36.336-7.261 59.07-1.099-1.815-6.453-16.316-6.954-18.012-2.646-3.035-6.252-2.52-7.922.35-11.481 18.588-22.045 27.529-23.579 28.076-1.647 1.779-3.66 3.43-5.93 4.292-1.833 1.722-12.644 8.642-27.001 6.48-25.244-4.83-34.933-35.602-34.334-47.333 5.443 4.244 18.475 24.078 45.934 15.179 1-.706 15.572-7.591 17.551-24.876 1.444-11.774-27.487 5.49-38.235-11.882zm-46.199-266.112c14.89-2.087 41.443-3.832 43.72-3.921-11.197 5.242-29.403 15.264-29.403 15.264-1.459-1.022-13.176-10.15-14.317-11.343zm10.875 37.769c-1 .818-10.243 9.656-15.371 12.969-2.674-19.263-2.647-19.34-1.647-19.663 2.729-1.674 14.188-8.903 17.129-10.439.051 5.708-.077 11.42-.111 17.133zm46.365-155.055c4.701 7.227 8.818 14.816 12.854 22.432.678 1.046-4.512 13.232-4.974 14.232-5.653-6.574-11.147-13.289-16.758-19.897.777-1.649 7.889-15.24 8.878-16.767zm-11.805 8.891c-.367 1.238-.067.531-1.28 2.739-1.037-1.016-16.796-19.371-16.6-20.806.03-1.007.989-20.932 1.617-25.29 8.217 6.215 23.946 26.927 24.091 28.656-.337 1.01-6.354 12.711-7.828 14.701zm28.742 21.638c4.572 9.768 13.914 34.727 14.044 35.192-.286-.281-18.303-23.138-18.46-23.34.204-1.628 3.874-10.797 4.416-11.852zm19.385 53.374c-17.744-5.185-41.132-14.956-56.621-26.113 9.134-4.202 18.366-8.2 27.577-12.24 10.158 12.414 20.017 25.094 29.044 38.353zm-15.354 6.702c-16.054-3.629-29.743-7.676-31.583-8.434-2.419-3.247-4.531-6.728-6.843-10.055-.956-.555.802-.998.341-.047 1.089-.222 37.153 18.035 38.085 18.536zm-32.431-2.329c32.756 9.468 36.499 9.087 41.058 9.979-6.907 3.775-49.253 6.476-55.23 5.776 1.685-2.086 12.99-14.589 14.172-15.755zm-22.18 15.435c-3.112.514-20.989-.716-32.892-2.095 5.422-7.931 11.203-15.627 16.796-23.443 10.682 2.21 21.199 5.167 31.655 8.255-1.395 1.741-13.918 15.588-15.559 17.283zm-6.455 30.503c13.975-8.165 27.494-14.795 30.473-15.862-.755.884-29.056 29.481-30.601 30.401-.12-4.846.073-9.697.128-14.539zm312.669-43.157c1.135-.785.998 1.817.081.635-21-7.809-30.927-19.5-34.932-22.402-6.262-.591-6.964 4.221-5.619 6.57 23.672 48.201 28.593 48.776 32.18 54.91 1.04.918 5.012 5.49 5.439 6.288 0 0 12.363 13.187 29.509 25.226 1.728 1.297 3.724 2.274 5.201 3.891 12.849 6.761 25.087 37.045 29.701 51.237 25.487 79.826 16.66 181.68 13.14 189.671-.044 4.045-3.256 22.396-4.778 26.442.175 2.274-.789 4.569-1.514 6.724-.036-1.287.304-28.975.491-30.188l-1.728-40.435-.273-.094c-.436-8.898-1.613-14.98-1.399-17.999-.58-1.177-.469-2.59-.708-3.857-12.917-131.103-85.799-186.078-90.772-192.623-1.523-1.066-3.008-2.252-4.202-3.682l-20.567-15.887c-1.07-.462-7.966-5.077-8.835-5.875 0 0-20.35-12.82-43.583-22.632-.52-.235-.985-.546-1.433-.858-.602-.136-1.207-.281-1.706-.627-.001 0-19.75-7.923-40.222-13.622-3.364-1.212-11.345-1.875-15.465-4.108-27.759-7.331-25.543-51.918 7.304-59.377 24.492-4.408 50.078 22.983 57.973 36.621 1.877 1.581 3.567 3.984 8.131.521 28.472-21.254 22.305-63.695-38.396-76.437 10.108-19.503 38.456-25.346 60.166-28.089 10.028-7.848-7.657-11.07-10.247-12.79-6.879-1.3-9.542-4.835-35.495-5.964 17.019-26.831 54.735-38.738 84.006-7.598 1.267 1.318 2.564 2.636 3.477 4.245 1.401 1.215 5.516 6.856 6.515 9.258 4.582 5.767 15.261 29.12 16.962 56.702-20.724-10.287-36.062-54.625-40.021-28.472-6.009 44.728 10.768 82.585 41.619 114.675zm163.54 409.717c.947 1.001 6.572 13.905 3.212 27.619l-.158.162c-1.152 4.744-3.515 9.151-6.374 13.084-1.698-2.988-2.287-3.144-5.725-6.237-1.07-.361-6.741-4.363-15.712-4.654-26.403-1.266-40.75 22.35-10.789 33.084-7.228 3.34-17.908 5.044-22.402 16.13-.073 1.515-.516 2.986-1.135 4.369-3.43-7.702 1.739-10.263-23.251-20.384 14.071-3.902 17.839-10.635 17.679-16.369.427-18.117-39.118-24.315-49.368-5.183-10.604-12.156-9.704-26.516-4.428-41.139 17.627-46.744 77.393-29.105 86.873-29.825-.252.064-.76.188-1.015.252 25.387 4.63 32.945 27.953 32.593 29.091zm10.367-331.048c1.588-1.602 26.361-20.273 26.361-20.273l15.235-15.209c4.063-6.465 10.887-8.852 35.107-58.464 1.169-2.082.183-4.462-1.357-6.024-7.238-3.281-7.672 7.809-32.41 19.155-2.316 1.032-4.612 2.206-7.107 2.726 1.928-2.449 4.326-4.484 6.348-6.86 27.216-29.826 31.919-57.557 33.157-60.23.156-1.009 7.244-31.557 1.66-52.786-.67-2.321-3.409-3.622-5.661-2.884-1.369.371-2.09 1.698-3.144 2.53-7.488 10.888-20.419 28.808-30.409 33.485-.458-12.321 7.926-40.552 9.475-41.327.253-2.28 3.972-9.766 5.051-11.135 1.68-4.017 7.273-11.962 8.643-13.089 2.062-3.344 9.122-10.097 11.071-11.105 2.086-2.291 4.885-3.75 7.479-5.375 30.189-17.79 58.967 4.799 61.548 10.328 2.123 1.301 6.414 6.835 7.777 9.053-13.243.578-18.119 1.177-18.119 1.177l-21.787 6.353c-4.817 3.266-7.184.832-8.976 7.419 2.156 4.574 3.361 3.612 9.573 4.654 20.622 3.178 43.452 9.053 53.66 27.167-5.337.93-10.465 2.701-15.691 4.057-1.135.786-19.657 6.45-30.115 19.719-1.472 1.647-2.508 3.618-3.95 5.281-1.281 3.115-7.696 13.432-3.601 27.09.661 2.474 1.954 4.71 2.769 7.133 22.773 29.75 17.238 8.197 34.855-4.688 1.832-2.587 9.394-8.919 11.514-9.893 2.518-2.496 10.779-6.794 13.191-7.201 22.164-11.628 51.122 11.911 44.377 38.327-.615 1.979-1.084 4.117-2.47 5.729-.755 2.104-2.167 4.096-3.985 5.41-8.413 11.706-44.94 12.434-83.323 32.658-.875.371-1.702.969-2.666 1.024 0 0-25.012 12.459-46.403 28.797-1.152.9-2.265 1.868-3.579 2.525-2.658 2.579-23.77 18.454-42.346 42.837-.729.921-1.399 1.916-2.304 2.679-.725 1.519-1.826 2.807-2.811 4.155-31.078 42.817-40.618 84.836-43.178 91.156-.009.294-.03.883-.038 1.182l-.115-.294c-2.976 14.172-8.44 21.073-15.226 99.765.018.597-.594 19.997-.691 20.597.071.558.413 33.362.396 33.553-2.604-9.037-6-27.461-5.938-30.431-.957-2.802-4.984-39.48-4.377-51.698-3.943-32.348 4.938-150.86 42.53-188.755zm236.3 275.822c1.254 2.035 4.245 2.654 6.199 1.246 2.355-1.532 3.965-9.297 8.942-21.003 13.495 19.368 27.413 32.106 49.718 35.896-55.379 13.897-144.174-11.923-211.979 27.048-.107.495-.388.704-.853.636-.311-.435.247-1.301.768-.947-.299-.631.324-1.16.542-1.685 32.851-56.647 90.602-88.158 124.769-131.177 1.688-2.326 17.457-17.176 18.46-17.973-2.418 7.502-25.475 55.086 3.434 107.959zm-27.9-98.86c-.136.879-.021 1.898-.657 2.624-19.32 24.489-91.872 63.797-128.963 131.331-.371.802-.777 1.613-1.425 2.235-.256-1.493-.388-2.99-.589-4.479-2.753-17.666-18.887-49.016-17.043-54.415 23.088-54.573 73.034-83.274 167.623-123.519-5.941 9.201-17.045 25.974-18.946 46.223zm-152.602 202.23c-11.226 17.246-32.866 33.111-41.719 35.964-6.636 4.703-56.351 24.768-75.917 7.035 1.616-3.654.013-11.85 5.819-14.091 1.577-1.948 19.823-8.488 20.823-8.677 20.739-10.634 21.818-15.928 26.519-19.548 1.647-2.713 3.703-5.154 5.166-7.978 1.502-2.321 2.325-4.983 3.626-7.406-.03-1.732.793-3.315 1.195-4.961 1.689-5.401.87-11.122.969-16.672-1.133-3.03-5.639-29.348-23.451-40.853-.239-2.713-.555-5.427-.452-8.153-.201.23-.388.478-.563.734.123-1-3.088-70.045.469-96.087 2.015-41.189 17.073-95.399 20.009-99.061.156-1.681 2.362-7.75 3.259-8.648.136-1.715.789-3.34 1.719-4.77 2.037-6.429 9.203-21.198 10.324-22.474 1.141-3.835 12.815-23.559 15.192-25.7-.64 2.167-1.22 4.381-2.321 6.374-3.652 11.834-6.139 24.829-6.139 24.829 0 .066-2.188 21.758-2.188 21.758-.075 12.225.631 40.409.631 40.409a14.4 14.4 0 0 1 .486-1.241c6.917 91.051 36 134.379 46.793 173.819.001 4.99 14.182 33.588-10.249 75.398zm-262.601-38.374c-5.806-24.326 14.875-69.549 27.069-104.172 25.297-70.293 21.691-108.872 23.771-117.278 0 0 .522-14.859.218-27.718 0 0-1.039-13.2-1.719-19.07-.418-3.038-1.395-5.99-1.374-9.078 0 0-4.24-17.277-6.058-21.331-.819-1.506-1.404-3.135-1.647-4.829 1.182.896 1.954 2.176 2.696 3.443l-.192.256c1.985 2.342 11.189 17.997 12.014 20.729 3.21 4.749 13.175 27.304 13.763 31.083 1.315 2.183 5.481 14.837 5.887 16.997.8 1.021 3.558 10.206 3.601 12.897 1.365 2.366 5.582 21.544 5.576 23.37 4.479 14.879 9.106 63.246 8.929 81.873 1.904 2.989-.728 68.61-1.916 72.692-1.566 1.732-3.631 2.986-5.589 4.236-6.173 7.697-1.593.224-10.674 14.023 0 0-2.341 4.942-5.021 11.63-.968 2.504-1.54 5.145-2.53 7.645-.009 1.651-.546 3.255-.793 4.889-.614 3.055-.294 6.186-.602 9.275.597 2.585.687 5.273 1.455 7.837.478 2.193 1.523 4.245 1.89 6.468 1.31 2.214 2.427 4.539 3.575 6.847 1.442 1.711 2.752 3.554 3.848 5.52 0 0 6.144 7.185 13.571 12.479.465.35.9.764 1.31 1.216.021.008 8.823 5.472 17.747 8.72.806.32 1.753.469 2.415 1.101 2.614.495 10.85 3.503 12.735 5.486 5.229 2.285 4.594 8.091 5.858 14.104-1.379 3.475-16.048 10.808-42.973 4.659-29.261-6.538-50.584-22.071-52.589-25.085-2.661-1.106-13.1-11.455-14.496-14.036-3.604-3.38-11.548-15.517-13.477-22.125-1.932-2.452-6.19-17.467-5.964-22.415-.357-.739-.395-1.566-.314-2.338zM330.4 858.21c31.008 27.984 15.658 20.323 58.826 58.622 32.005 28.269 62.818 53.406 84.39 90.499.196.529.845 1.062.546 1.694.495-.354 1.045.516.764.951-.486.068-.772-.145-.858-.64-59.342-37.644-159.961-14.042-211.927-27.073 14.375-1.797 31.155-9.141 49.68-35.879 2.692 6.395 4.825 13.029 7.487 19.437 1.442 3.046 6.293 3.063 7.803.06 12.54-23.673 13.198-42.248 13.857-44.402-.061-21.514 2.32-27.553-10.568-63.269zm24.676 11.114c-1.604-18.878-9.807-33.718-18.694-47.342-1.199-.294.367-1.425.521-.29 1.009.387 81.48 34.898 115.085 59.684 23.004 16.937 41.659 38.301 52.295 65.221-7.94 23.23-16.112 39.164-18.882 57.201-.905-1.331-1.647-2.765-2.304-4.219-38.935-67.865-115.107-109.639-128.021-130.255zm90.034-111.263c-33.164-8.099-42.73-49.144-17.334-68.673 6.126-.119 12.27.516 18.293 1.638-12.552 18.99-9.302 45.946-.959 67.035zm5.251-65.567c13.032 23.747 6.27 51.625-1.694 62.764-6.83-15.83-11.471-45.639 1.694-62.764zm5.427 1.033c16.945 5.145 31.493 17.069 40.597 32.167-2.073 19.209-21.498 35.766-44.846 33.507 11.954-19.823 14.053-43.868 4.249-65.674zm25.567 4.291c-35.591-28.88-69.751-14.231-83.506-11.638-.794-.148-14.498-10.285-15.171-11.378-1.779-.81-9.621-6.675-10.269-7.683-1.916-.857-10.68-7.621-11.681-8.413 3.546-.388 20.266-1.38 23.208-.853 1.591-.386 13.445-.409 17.112.2 1.99-.3 72.934-.938 109.854 46.646 11.15 14.393 17.268 31.642 17.918 35.435 1.721 2.676 7.19 26.803 6.937 41.075-1.989-1.024-18.548-14.042-30.247-22.884-.24-31.431-5.917-43.542-24.155-60.507zm-88.856-2.7c.743 2.708 2.635 56.424 52.338 70.516 16.578 4.727 34.24 4.019 51.019.768 4.282-.524-1.899-4.042 34.957 24.236.87.55 1.677 1.203 2.41 1.946-1.005.06-113.948 1.216-152.811-58.05-12.278-18.392-18.975-46.709-19.287-49.355-.662-1.188-4.35-15.288-4.599-16.292 1.511.831 34.96 25.45 35.973 26.231zm-1.928 64.667c2.188 2.052 4.735 3.699 6.864 5.815 2.659 1.429 9.147 6.887 22.368 13.144 1.549.751 3.191 1.348 4.637 2.312 8.062 2 28.38 16.193 111.608 20.862-1.112 25.545-3.132 41.95-6.13 59.782-43.28-43.817-218.601-73.392-238.753-117.636-9.022-9.786-7.727-28.572.021-36.066 5.6-11.751 30.468-20.631 44.889-5.934 2.672 2.644 20.382 34.118 54.496 57.721zm40.831 63.741c.903-.314 18.948 6.443 19.778 6.954 4.868 1.425 9.535 3.481 14.283 5.264-6.496 10.068-16.925 19.19-27.18 25.303l-30.192-16.242c8.862-5.69 17.838-12.047 23.311-21.279zm-33.118 16.412c-.533-.118-26.666-12.117-28.217-13.067 8.724-4.283 17.764-8.916 23.882-16.728 9.556 3.34 19.087 6.753 28.677 9.991-2.815 6.86-21.784 18.992-24.342 19.804zm75.861-.674c10.085 4.155 20.051 8.66 29.556 14.036-6.766 21.103-21.483 36.769-24.416 39.057-1.049-.35-1.689-1.391-2.5-2.078-14.147-13.702-27.128-21.505-29.97-23.805 16.257-11.269 21.382-18.772 27.33-27.21zm37.466 19.07c5.262 3.211 13.196 9.993 15.806 15.401-4.47 21.298-13.792 48.122-14.778 49.782-.858 3.695-2.457 7.171-3.656 10.768-2.904-4.273-6.853-15.875-23.502-35.077 11.155-11.654 20.101-23.8 26.13-40.874zM339.24 788.705c-4.343 6.152-11.118 9.851-17.402 13.695-10.55-12.07-30.705-36.119-36.194-49.949 19.234 21.879 45.356 31.797 53.596 36.254zm8.387 3.819s11.418 4.766 37.048 14.313c-4.967 5.79-18.551 12.107-25.648 14.996-3.72-1.38-23.468-10.823-28.865-13.801 6.608-4.156 13.22-8.793 17.465-15.508zm264.38 269.7c17.195 8.866-11.378 20.892-25.358 10.422-10.192-7.229 10.13-17.657 25.358-10.422zm19.766 55.763c13.437 14.457 38.149 14.005 57.479 9.599-29.094 26.57-89.798 22.319-114.308.047 18.756 4.397 43.966 4.641 56.829-9.646zm26.062-57.64c11.015-2.061 21.409 2.257 22.308 7.517.31 4.968-8.435 8.938-17.368 8.822-17.127-.536-22.85-12.654-4.94-16.339zm198.216-215.545c-9.65 5.004-19.369 9.915-28.665 15.572-.619.294-1.331 1.02-1.992.431-14.509-9.196-23.139-18.916-26.634-25.068 10.507-4.204 31.692-11.883 33.984-12.363 4.865 8.903 14.729 15.976 23.307 21.428zm-14.527-24.634c9.582-3.234 19.095-6.677 28.652-9.979 6.135 7.845 15.234 12.393 23.925 16.805-9.394 4.441-18.899 8.66-28.255 13.182-6.236-3.654-21.557-13.329-24.322-20.008zm-24.129 46.319c-1.519 1.256-17.228 10.875-32.316 26.007-3.028-2.364-17.933-17.776-24.616-39.215 9.514-5.346 19.467-9.864 29.548-14.023 11.33 17.002 21.289 22.498 27.384 27.231zm-38.673 32.7c-9.347 10.584-17.218 22.436-23.404 35.128-13.138-34.966-18.306-58.119-18.583-60.576 2.351-5.26 10.496-12.131 15.828-15.418 8.121 22.96 21.583 35.876 26.159 40.866zm125.562-77.645c-6.199-2.708-20.06-8.962-24.833-14.718 21.937-8.03 37.064-14.296 37.064-14.296 4.245 6.698 10.841 11.331 17.427 15.495-.999.592-27.989 14.567-29.658 13.519zm20.563-32.841c32.837-15.801 33.004-18.697 39.492-22.487 4.096-4.143 4.087-2.486 14.151-13.754-5.967 15.444-35.258 49.146-36.258 49.855-5.694-3.241-13.529-7.873-17.385-13.614zm48.119-44.628c-16.27 30.956-130.96 66.232-131.962 66.433-1.123.764-9.5 3.617-10.866 3.857-10.214 4.902-71.036 21.818-95.904 47.329-3.723-20.601-5.186-39.631-6.13-59.821 5.315-.383 41.228-1.075 77.504-9.859 2.073-.465 4.091-1.22 6.224-1.421 8.919-3.385 33.052-7.289 62.201-31.199 52.651-36.164 46.407-69.42 77.551-64.74 23.8 3.159 36.571 33.934 21.382 49.421zm-128.703 24.816c-38.181 19.703-98.107 23.834-112.892 23.639 1.655-1.692 20.746-16.288 31.143-24.364 5.784-4.135-.072-1.192 18.481.179 51.932 5.936 85.674-22.945 90.307-71.753-.034-.96.533-1.719 1.31-2.21 4.628-3.354 34.219-25.093 35.017-25.529-9.879 49.886-25.777 80.918-63.366 100.038zm-26.151-77.871c6.015-1.096 12.141-1.745 18.259-1.643 25.018 18.842 16.531 60.554-17.257 68.669 8.32-21.653 11.622-47.841-1.002-67.026zm-2.65 64.24c-7.33-10.198-15.103-37.638-1.809-62.866 12.492 15.917 9.432 45.088 1.809 62.866zm-2.85 3.938c-27.364 2.64-45.23-20.347-44.867-33.515 9.108-15.09 23.665-27.005 40.605-32.154-8.871 19.381-8.918 43.191 4.262 65.669zm53.669-73.011c-38.522-10.108-70.586-9.252-96.586 26.028-10.781 14.755-9.953 32.226-11.054 35.815.401 3.038.158 6.118.085 9.172.162 1.855-18.555 15.286-19.556 15.815-.929 1.095-9.471 7.547-10.969 8.502.909-19.078 4.492-38.259 12.432-55.721 28.547-63.117 111.233-74.263 162.41-67.09-1.452 1.505-35.415 26.969-36.762 27.479zm152.243-148.81c-5.482 6.685-11.096 13.281-16.664 19.897-.805-1.651-5.104-12.589-5.175-13.729 2.87-5.757 11.172-20.839 13.195-22.893 8.778 16.617 8.381 15.76 8.644 16.725zm-4.923-22.802c11.045-16.053 21.334-26.248 24.198-28.498.285 2.569 1.519 23.944 1.574 24.945.341 1.706-15.629 20.193-16.506 21.194-3.161-5.841-6.284-11.711-9.266-17.641zm13.592 78.156c-6.688 9.765-6.416 10.112-7.773 10.422-1.991.572-25.214 7.33-29.654 7.722.876-.682 35.998-18.494 37.086-18.195-.474-.955 1.293-.486.341.051zm8.153 31.89c-15.365.181-45.157-1.931-54.816-5.499 1.655-.615 3.426-.768 5.154-1.097 37.441-7.131 32.968-11.174 37.082-7.504 2.414 2.834 11.429 12.515 12.58 14.1zm-61.932-20.128c9.04-13.247 18.895-25.926 29.04-38.34 9.202 4.053 18.447 8.025 27.573 12.248-15.223 11.089-38.646 20.711-56.613 26.092zm23.656-42.517c.35.627.004 1.271-.41 1.762-4.984 6.087-17.873 22.538-17.922 22.589.05-.159 4.958-11.662 8.912-24.36 1.583-3.677 3.417-7.244 5.145-10.853 1.625 3.533 2.854 7.24 4.275 10.862zm22.274 76.984c10.495 4.586 20.516 10.188 30.456 15.866l.252 14.927c-1.945-1.753-3.929-3.511-5.499-5.614-.83-.647-24.994-24.926-25.209-25.179zm4.257-4.962c1.001.031 25.975 1.544 43.635 3.887a2004.63 2004.63 0 0 1-14.565 11.476l-29.07-15.363zm19.783-9.705c-1.433-1.489-13.904-15.251-15.529-17.257 10.448-3.11 20.973-6.045 31.651-8.264.73 1 15.706 21.573 16.796 23.46-14.151 1.624-30.789 2.6-32.918 2.061zm-7.718-50.077c-9.731-4.258-19.458-8.528-29.134-12.901.797-1.005 16.473-20.765 18.008-20.345l35.503 3.136c-1.916 4.971-9.469 18.44-24.377 30.11zm26.945-35.973c-11.429-.875-22.837-2.009-34.253-2.995 17.271-21.693 15.406-19.464 18.003-19.944 7.457-1.306 14.889-2.782 22.355-4.04-.908 9.189-2.828 18.328-6.105 26.979zm-18.924-57.064c.885-1.771 17.918-13.267 26.595-15.951-5.781 12.268-17.102 29.025-25.209 39.467-.058-1.002-1.404-20.996-1.386-23.516zm25.661 23.805c-6.48 1.143-12.931 2.491-19.433 3.486 0 0 9.052-12.322 14.944-21.54 1.13-1.648 5.437-9.033 6.434-10.478-.623 4.445-.312 8.98-1.092 13.4.299 1.793-.539 12.547-.853 15.132zm-2.714-432.809c7.671 5.591 49.026 83.606 10.226 175.438-14.061 33.405-27.625 45.439-11.429 43.515 17.103-2.555 29.166-18.224 41.975-26.412-1.669 40.822-23.347 70.123-46.975 100.426-4.082 5.258 3.894 12.35 25.503 2.048 5.414-2.504 10.776-5.354 16.685-6.523 1.161 49.21-26.443 92.867-28.468 93.357-43.721 14.504-64.401 49.262-79.889 74.548 14.788-42.926 2.542-84.996-2.415-124.36-.651-7.997-7.581-6.695-8.963-3.127-6.591 14.698-21.366 24.956-36.399 29.343 12.477-10.672 12.228-11.53 16.395-15.516v-.248c1.711-1.668 3.021-3.694 4.748-5.341 0 0 15.973-19.026 18.614-42.346.816-8.38-5.013-7.978-7.078-6.31-22.718 16.434-46.792 26.988-58.396 30.435 40.705-26.18 70.943-56.177 84.381-102.939 1.483-4.898-5.399-8.186-8.225-3.579-27.865 38.207-66.945 53.704-113.553 60.362 100.647-45.391 128.288-113.596 127.951-118.037-.222-3.376-4.57-5.944-7.845-2.752-19.212 18.436-46.5 34.715-63.157 42.107 44.02-49.738 25.597-55.306 20.904-49.407-15.345 17.94-50.128 29.766-76.373 37.841 27.064-51.471 134.049-60.36 131.582-128.071-.094-1.562.034-3.276-.887-4.629-1.28-2.048-4.33-2.679-6.28-1.25-3.016 2.36-20.594 26.085-64.56 42.973 32.863-46.082 93.86-111.781 121.928-91.546zm-125.622 62.704c1.704-2.875 17.947-21.021 20.465-23.072 3.157-4.686 11.238-9.386 12.351-9.778 1.855-2.148 22.278-14.329 28.093-16.331l-21.787 20.444-17.172 19.044c-.527.673-11.896 14.851-12.7 15.503-1.003 1.653-10.104 13.87-11.22 14.881-.614 1.36-9.573 13.714-10.985 15.427-2.045 9.934 8.816 5.196 9.816 5.128 1.256-.719 14.296-5.669 15.324-5.798.125-.085 20.99-10.274 21.399-10.358.849-.913 10.206-6.496 11.088-6.864 3.042-2.564 6.485-4.62 9.569-7.142 3.968-2.952 7.508-6.421 11.386-9.479-1.357 10.932-8.457 21.221-11.135 23.438-1.437 2.2-6.013 7.131-8.456 8.575-2.504 2.929-13.645 10.932-17.223 12.649-1.352 1.245-8.419 5.535-10.175 6.075-.725 1.002-23.827 13.545-25.089 14.1-.077.098-.226.299-.303.397l-.26-.154c-3.555 2.485-18.263 10.047-31.169 20.064-.892.708-1.809 1.386-2.79 1.945-.966 1-32.754 28.382-27.385 41.681 4.982 3.521 4.315.742 22.573-4.3l33.694-12.265s5.654-2.36 23.144-12.014c-2.482 4.898-15.069 22.417-35.61 39.142-1.455 1.212-3.323 2.261-3.835 4.219-.845 2.577 1.31 5.525 4.001 5.576 5.877-.077 37.19-16.059 38.759-16.472 1.925-1.377 19.538-10.885 28.323-17.393 2.432-1.574 4.672-3.43 7.159-4.927-1.772 3.702-8.611 13.231-10.269 14.731-.761 1.725-9.976 12.847-11.971 14.066-.334 1.33-11.157 11.776-12.662 12.653-9.228 11.433-42.735 31.213-48.319 34.573-27.803 15.425-58.054 25.589-58.054 25.589-3.901 2.164-2.306 8.799 3.029 8.268 49.624-2.441 71.962-11.982 76.233-12.611 2.163-1.109 4.578-1.753 6.885-2.534 22.766-9.156 36.241-19.091 36.241-19.091l14.697-12.15c-.985 2.858-5.777 11.517-7.376 13.127-3.241 7.955-25.536 32.961-28.135 33.421-2.335 5.665-44.413 34.123-62.713 40.81-.525.431-1.084.815-1.608 1.233-8.984 20.773 56.154-6.826 57.154-6.783.589-.93 1.737-1.169 2.658-1.66 14.034-6.679 28.886-16.075 28.886-16.075-7.454 34.387-49.864 59.64-52.513 62.026-1.252 4.949 1.205 5.224 2.308 6.66 5.934.296 19.044-2.3 19.044-2.3 2.412-1.311 14.809-3.418 27.769-12.888.794-.563 1.519-1.288 2.462-1.625 1.749-2.001 3.968-3.528 5.747-5.516 1.412-1.433 2.641-3.033 4.049-4.471 3.323 18.07 12.028 71.293 6.259 88.831-4.13-16.265-9.753-23.803-10.99-26.941-.977-1.037-1.625-2.312-2.402-3.481-3.635-5.69-12.863-16.57-12.863-16.57-2.274-1.361-3.63-3.801-5.823-5.26-1.849-1.127-6.854-1.459-6.724 5.452 1.059 3.146 9.177 34.917-3.093 60.418l-4.8-22.308a8.24 8.24 0 0 1-.909-3.2c-1.122-2.355-1.689-4.919-2.577-7.359-9.104-25.138-21.533-33.214-23.797-35.951-1.169-.563-2.18-1.399-3.063-2.321-2.752-1.427-7.847-5.474-17.338-8.758-4.302-1.601-7.877 3.393-5.192 6.881 12.547 18.617 14.975 38.705 11.911 50.234-1.327-1.371-8.193-12.497-19.279-20.704-.717-.546-1.515-1.003-2.078-1.698-5.563-3.55-11.493-6.608-17.888-8.345 4.582-27.998-6.349-41.817-8.639-46.749-2.061-2.334-3.724-5.013-5.926-7.231-1.698-1.979-3.814-3.537-5.516-5.495-2.884-1.816-19.705-17.12-50.84-16.48 33.725-80.556 90.86-177.341 94.291-180.285 3.249-6.009 23.092-35.154 24.787-36.646.643-1.261 4.013-6.187 5.09-6.843 1.134-2.636 20.851-27.697 24.007-30.585zM792.42 278.034c.351-.389 25.165-27.079 25.644-27.304.8-1.419 15.604-17.548 16.992-18.733.862-1.489 2.107-2.76 3.498-3.771 1.261-1.873 8.2-9.457 9.381-10.256 1.493-2.048 10.218-11.667 11.945-12.803.884-1.504 4.948-5.997 6.408-6.804 1.25-1.958 2.807-3.763 4.731-5.09 1.83-2.521 4.074-4.752 6.421-6.796 1.015-1.676 12.55-13.141 13.562-13.78.988-1.367 6.594-7.062 8.157-8.012.682-1.06 18.175-18.749 23.05-21.77-.712 1.603-6.591 9.65-7.833 10.094-1.001.949-11.18 16.534-13.067 18.063-.614 1.286-4.682 7.291-5.998 8.532-.544 1.357-4.972 8.047-6.101 8.917-.423 1.23-6.555 10.612-7.713 11.855-.981 2.027-2.137 4.006-3.656 5.678-.842 1.827-7.057 11.966-8.17 13.182a38.108 38.108 0 0 1-4.659 7.722c-.514 1.452-3.453 6.512-4.693 7.696-.215 1.196-5.073 9.616-6.088 10.61 0 0-28.278 49.709-60.371 119.551-1.621 3.293-2.799 6.83-4.787 9.927-2.444-8.702-2.351-29.79-30.072-63.362 1.388-1.439 15.79-14.527 33.419-33.346zm-34.603 66.945c1.319-4.52 2.722-5.743 4.514-14.369 2.171 3.115 4.484 6.241 5.823 9.821 1.677 1.637 6.548 13.178 7.265 16.583 4.439 6.557 5.567 32.319 5.666 33.319-2.207.627-24.799 3.294-45.853 21.617-1.408 1.109-2.568 2.521-4.091 3.469-.653.934-1.446 1.753-2.261 2.542-.482 1.417-1.596 2.453-2.931 3.067-1.975 2.107-3.673 4.454-5.648 6.562.09-10.047 6.073-25.827 8.212-29.121l-.179-.209 9.586-18.315.328-.008c.388-1.063.887-2.104 1.672-2.935.771-1.605 5.568-10.09 7.112-11.634.661-2.125 1.898-4.044 3.234-5.802.769-1.889 4.094-7.789 4.663-8.524.802-2.092 1.694-4.169 2.888-6.063zm-42.551-37.206c2.396 1.289 8.757 8.031 8.972 13.451l.273.166c.365 12.174-9.708 20.932-24.723 39.496-.175.098-.516.299-.691.397l.128.358c-.167.094-.503.273-.67.363-.435 1.241-1.429 2.265-2.372 3.166-1.964 3.302-15.079 18.258-21.621 39.612-1.169-1.421-2.197-2.965-2.961-4.637-.367-.341-.589-.789-.721-1.246-13.866-18.296-34.411-101.531 37.547-74.688 1.647.025 3.191-.602 4.441-1.668.597-1.506.798-3.127.67-4.735l-2.534-9.407c-1.156-2.065-2.112-4.232-3.033-6.404 2.637 1.617 5.273 3.4 7.295 5.776zm-159.099-5.742c-6.808 14.992-2.815 7.522-5.619 15.499.017 1.869.051 3.776.926 5.482 1.378.584 2.756 1.241 4.296 1.241 70.145-26.436 54.25 55.492 33.784 80.58-4.373-14.482-10.966-24.434-19.108-36.314l-.226.06c-.823-1.297-1.89-2.419-2.607-3.771-.65-.562-12.549-14.697-13.123-15.862-1.952-1.641-5.691-6.495-6.028-7.265-1.798-1.776-6.068-8.064-6.719-10.503-7.746-10.768 3.586-21.751 14.424-29.147zm-13.285-1.689c-2.449 2.786-5.38 5.162-7.351 8.353-11.804 15.759.872 30.743 2.282 34.274.933 1 26.569 31.87 28.157 35.363 2.808 3.153 9.042 13.825 10.26 17.5 2.678 3.517 6.375 17.757 7.112 20.618.764 3.183 5.346 4.049 7.406 1.634 9.899-11.159 14.785-23.323 16.126-25.252.709-2.957 4.957-11.373 7.252-23.485.55-2.496.713-5.064 1.391-7.525 0-5.469.695-10.96.064-16.421a16.06 16.06 0 0 1-.098-3.532c-.904-1.903-.892-4.044-1.48-6.028-3.116-11.04-5.427-11.638-6.642-14.633-3.041-2.279-8.726-11.519-26.924-11.933-12.381.621-13.833 2.348-18.699 2.918 5.115-20.602 40.497-30.232 59.893-8.294 3.259 3.298 5.303 7.509 7.884 11.314 1.668.341 3.426.388 5.102.009 2.287-3.289 4.019-6.958 6.711-9.953 13.791-17.416 41.883-18.309 55.256-2.957 2.509 2.88 4.851 6.101 5.849 9.846-3.261-.384-34.089-10.722-47.363 11.979-1.045 1.689-1.792 3.55-2.918 5.192-9.601 34.362 2.768 54.569 4.232 61.369 1.348 2.3 2.231 4.838 3.507 7.18 2.3 4.317 6.971 12.046 7.15 12.534 3.677 2.981 7.165 13.753 13.729 6.792 3.828-21.042 16.902-38.948 18.652-40.589 1.34-2.706 9.79-13.268 12.065-15.209.818-1.389 11.926-14.836 13.067-15.968 4.046-8.947 20.142-21.326-3.336-45.072 3.886.806 7.649 2.129 11.365 3.515 21.82 8.06 24.767 19.185 16.557 37.918-1.088 1.941-1.557 4.296-3.204 5.87-.563 2.451-9.971 18.279-11.02 19.211-.164.554-10.529 18.883-11.126 19.599-.006.02-7.518 16.847-7.683 17.09-.72 4.418-2.336 3.537-5.235 24.403 1.508 9.868-1.63 19.337 8.208 17.355 3.328-4.906 6.523-9.91 10.269-14.522 46.774-56.823 130.453-32.74 126.493 24.39-1.016-.746-28.573-39.695-69.953-24.189-24.238 8.437-35.253 29.184-37.385 31.007-1.926 5.399-12.652 16.234-18.029 54.479-1.226 12.773-5.069 24.26 10.96 17.739 1.664-.674 3.165-1.715 4.88-2.287 1.203-1.433 2.901-2.287 4.309-3.486 10.186-8.567 17.039-19.86 19.757-22.406 1.525 10.181-.891 29.771-2.201 32.354-.189 2.933-2.149 9.743-2.969 11.122.017 2.462-6.439 18.314-8.763 20.998-.279 3.426-17.355 27.665-22.048 30.529-1.574 3.069-14.951 14.42-18.204 17.107-2.261 1.549-2.385 5.226-.269 6.954 1.109 1.212 2.871.87 4.347 1.037 12.581-3.313 15.398-1.844 39.795-15.217-3.42 8.462-19.226 33.553-24.821 37.918-7.756 11.729-35.74 30.584-37.641 32.227-10.249 8.603-17.159 22.419-18.605 24.471-3.359 9.559-30.097 48.526-29.718 176.207.746 57.785 16.662 102.612 16.907 103.681-32.895-6.751-51.942-3.232-68.212-.324 3.527-12.931 12.499-31.167 16.787-99.931 2.09-60.788-5.928-174.771-55.887-209.683-30.786-21.23-48.101-49.615-50.473-56.51-2.005-2.432-3.046-5.473-4.59-8.191a1007.273 1007.273 0 0 0 13.123 7.342c3.142.848 7.849 3.887 21.651 6.916 8.991 1.765 8.606 1.3 11.062-1.719-.572-6.723 2.61-.164-16.613-18.409-1.395-1.57-3.157-2.846-4.215-4.68-12.773-10.289-34.149-49.855-33.66-66.1-.918-1.76-2.607-14.612-1.579-28.276 2.967 2.873 11.555 16.874 23.037 25.017.401.324.785.683 1.182 1.054 1.376.468 7.949 4.423 13.187 4.006 5.767-.416 3.431-8.072 3.614-11.173-.525-2.278-.337-4.637-.772-6.924-2.426-18.597-7.107-32.385-7.107-32.385-1.472-2.944-2.372-6.139-3.788-9.113-14.795-33.944-37.668-41.734-39.257-43.438-2.944-.704-5.627-2.193-8.562-2.935-40.534-12.256-65.323 24.061-66.813 25.213-3.819-58.756 82.248-80.158 126.454-24.352 2.009 2.465 7.682 9.897 9.031 13.191 1.583 1.217 3.03 2.738 6.822.887 3.295-6.592 2.212-15.843 2.62-18.191-.661-2.121-.691-4.356-1.037-6.532-2.841-16.688-8.972-26.262-9.735-29.449l-17.338-30.789c-1.226-1.145-6.719-10.779-7.816-13.972-1.845-1.725-4.771-10.26-5.781-13.882-4.16-18.77 11.465-26.806 31.356-31.766zm-20.473 73.852c1.578 1.625 2.645 3.784 3.46 5.896 1.23 1.025 6.593 11.145 7.709 14.019 1.171 1.491 10.092 20.128 10.141 33.383-1.971-2.466-4.057-4.829-6.058-7.261-.644-.431-1.216-.981-1.536-1.685-1.075-.717-2.014-1.625-2.688-2.722-2.065-1.387-3.686-3.332-5.666-4.834-2.914-2.577-6.246-4.612-9.275-7.026-.301-.127-8.69-4.839-8.733-4.864l-9.68-4.352a5.879 5.879 0 0 1-1.57-.567c-5.865-1.25-1.398-.918-15.414-3.818.188-2.406-.192-4.962.508-7.265-.134-1.551.216-7.01.968-8.038-.299-4.449 4.193-20.069 5.947-23.05.41-1.888 3.003-8.007 4.151-9.04.97-3.29 5.455-10.315 7.159-12.039 2.008 6.492.939 5.41 4.07 12.641 5.472 11.863 16.507 30.622 16.507 30.622zM370.123 169.728c1.496 1.171 12.232 11.674 13.626 13.72 1.074.687 11.319 11.314 11.92 12.491.515.237 19.451 20.089 20.938 22.487 1 .707 5.681 5.556 6.493 7.172 1.079.727 9.055 9.209 10.636 11.566 1 .693 11.116 11.601 12.116 13.485l.269-.081c.94 1.001 20.221 21.668 21.301 23.2 0 0 19.951 20.689 26.224 26.702 3.724 3.72 7.688 7.197 11.412 10.909-3.358 4.547-22.325 24.24-28.81 56.992-.499 2.172-.555 4.441-1.297 6.557-17.181-37.054-33.609-71.113-33.609-71.113-1.274-1.575-5.604-10.063-5.853-11.199-.965-1.4-6.839-12.388-7.782-14.915-.889-.856-12.58-22.755-12.816-23.417-1.081-1.236-4.574-7.593-5.043-9.006-1.334-1.408-4.604-7.389-5.154-8.959-1.082-1.097-9.048-14.683-9.42-15.764-1.354-1.44-5.562-8.473-6.352-10.303-1.409-1.369-4.943-7.243-5.606-8.891-1.256-1.309-7.379-10.648-8.089-12.364-1.383-1.172-9.002-12.906-9.714-14.198-1.242-1.251-17.565-23.769-18.076-25.947 3.369 1.515 20.666 18.158 22.686 20.876zm-85.264-71.233c2.362 1.104 13.762 8.504 14.859 10.312 6.558 4.802 44.634 50.886 48.707 58.327 1.072 1.105 9.268 12.332 10.627 14.996 2.51 2.757 17.383 25.336 18.387 27.675 17.79 17.936 81.919 151.742 83.668 156.991a10.084 10.084 0 0 1 1.485 3.212c1.363 2.326 7.924 17.047 8.831 19.394-32.947-.808-63.671 17.383-70.516 48.724-.222 1.037-.452 2.082-.862 3.072 0 0-1.658 10.651.439 24.104-3.413.922-6.608 2.445-9.936 3.584-.614.503-1.297.99-2.086 1.139-13.594 8.416-12.955 10.073-16.647 12.679l-8.178 9.829c-.666 1.305-1.523 2.5-2.47 3.614-.986-5.367-1.28-10.926-.657-16.344-.627-.393-.623-1.945.239-1.92.608-21.727 20.786-36.386 10.055-39.134-3.454-.978-16.494 5.608-24.347 12.334-2.818 2.432-6.826 6.48-6.826 6.48-20.373 28.5-20.199 45.735-22.389 51.31-.328 3.332-1.045 6.621-1.753 9.893-1.489-2.871-2.892-5.892-3.366-9.108-2.694-3.736-4.903-30.295-1.856-40.307-.525-4.946 5.946-16.793-2.052-17.061-6.993-.658-25.515 29.563-26.356 30.563-.009.029-4.402 8.834-7.227 18.089-.354 1.523-.704 3.055-1.203 4.539-1.294-5.632-1.644-20.385-1.105-23.643-2.217-9.154 6.987-62.335 7.427-65.524 15.613 18.321 34.152 24.489 57.436 27.137 6.289-2.032 4.583-7.075 2.299-8.451-33.149-21.142-48.236-46.102-50.896-60.58 16.014 8.494 26.44 19.933 76.638 31.455 3.322-.395 8.222 2.43 12.41-1.318a9.104 9.104 0 0 0 .712-3.26c-.303-1.02-.849-1.945-1.459-2.799-57.518-26.596-90.225-63.364-99.419-88.169 3.234 2.319 17.593 17.575 45.785 29.151.806.375 1.775.546 2.402 1.237 4.733.713 27.789 13.15 86.284 16.088 5.017.548 7.002-7.107 1.395-8.848-42.697-14.753-71.664-33.249-74.906-36.135-.439-.175-.9-.345-1.177-.729-11.306-6.13-39.454-30.785-42.88-36.382-4.936-4.582-18.242-21.946-21.207-27.875 2.73 1.724 5.448 3.549 7.884 5.678 2.675 1.28 4.949 3.242 7.513 4.727 8.142 5.159 24.821 14.492 24.821 14.492l.282-.252.427.136.124.371c.747.246 12.017 5.595 13.02 6.225 13.677 5.136 22.949 11.291 24.36 4.049.452-1.792-.375-3.656-1.834-4.723-21.803-17.295-34.783-35.304-37.752-40.853 26.363 15.839 73.94 30.272 77.316 30.188 5.762-4.182 1.365-7.559.384-12.172-1.527-2.252-2.534-4.816-4.023-7.094-10.71-17.542-27.593-28.079-29.77-30.017-24.884-16.415-68.744-38.523-70.042-42.24-4.996-1.948-19.577-16.481-20.085-19.198-3.807-3.807-7.777-14.11-8.353-19.774 1.694 1.327 3.383 2.701 4.774 4.36.643.442 10.908 8.512 11.45 9.087.607.287 12.39 7.925 12.914 8.353 0 0 11.301 6.365 24.066 11.736 1.792.755 3.656 1.365 5.358 2.325 4.667.854 20.487 10.163 20.328.849.51-6.342-47.536-61.648-48.135-62.649-1.311-.945-7.819-7.584-8.383-8.575-.406-.239-17.589-16.113-17.671-16.212 4.291 1.525 20.272 10.536 22.718 12.842zm-123.43 262.107c9.748 1.803 32.977 16.742 41.182 10.64 7.876-5.517-10.099-12.365-30.051-50.896-8.929-17.235-15.115-36.199-15.909-55.695 13.003 8.236 26.236 25.484 44.531 26.668 2.403.314 6.916-1.931 3.524-8.234-20.116-36.63-34.682-72.335-34.411-114.214.065-43.845 19.319-89.871 25.49-95.426 7.251-7.072 21.659-4.181 31.625-1.173 37.83 22.022 66.511 56.084 92.039 91.395-15.58-6.028-30.55-13.844-43.878-23.959-18.349-13.978-18.917-19.731-23.11-19.808-9.227-.587-3.957 23.859.708 33.217 21.771 44.614 102.511 57.399 126.062 101.527-29.555-9.686-60.693-19.638-76.309-37.773-3.655-4.305-17.396-3.695 3.05 27.252 8.022 12.05 16.016 19.773 17.824 22.12-14.804-6.709-41.577-21.832-61.817-40.857-21.061-20.523-3.949 61.483 118.118 119.261-38.738-2.479-84.819-22.332-111.791-58.592-18.478-24.639-10.819 51.492 71.659 102.828 1.135.721 2.325 1.369 3.387 2.206-20.236-6.607-41.5-18.208-58.37-30.435-12.418-9.565-12.108 32.7 32.666 69.748-20.747-6.286-29.209-16.763-36.868-30.119-1.416-2.291-4.923-2.7-6.834-.811-1 .876-20.364 84.718-4.083 129.057l-13.737-22.227c-3.122-2.487-22.723-37.722-66.164-52.346-1.918-.399-29.639-43.547-28.533-93.354zm59.061 120.575c-.363 7.824-.875 15.648-1.416 23.468-4.001-4.764-19.083-26.136-25.2-39.449 9.613 3.344 24.262 13.114 26.616 15.981zm-27.679-4.706s7.134 12.243 16.463 25.171c1.574 2.312 3.447 4.411 4.88 6.817-6.527-1.028-13.029-2.265-19.509-3.575.001 0-1.765-27.679-1.834-28.413zm2.616 34.834c27.079 4.519 24.657 3.898 26.984 7.79 1.143.964 12.621 15.184 13.405 16.186-2.043.187-33.142 2.966-34.215 3.076-3.355-8.652-5.257-17.837-6.174-27.052zm8.698 32.815c42.943-3.162 33.16-7.231 46.177 8.259 1.566 1.988 3.413 3.776 4.736 5.956 1.041.815 1.809 1.907 2.577 2.978a2809.974 2809.974 0 0 1-29.151 12.893c-12.464-9.793-21.047-21.899-24.339-30.086zm21.592 43.068c1.345 1.334 8.09 11.557 8.861 12.969-32.842-8.728-29.017-6.695-30.845-8.912-4.305-5.124-8.839-10.06-13.025-15.273 5.11.341 20.328 4.737 35.009 11.216zm-44.467-12.709c1.295 1.295 13.635 15.692 14.121 16.395-3.919-.369-12.571-1.833-20.179-2.005-16.11-.534-11.434 1.235-14.723-1.305-3.443-3.319-7.248-6.271-10.516-9.765 14.356-4.885 28.584-3.984 31.297-3.32zm-37.679 5.947a518.185 518.185 0 0 1 10.252 9.365c-20.46 2.55-33.325 9.436-37.244 10.921 2.813-3.562 14.144-14.492 26.992-20.286zm-28.741 28.216c3.772-2.522 20.608-10.762 39.074-12.833-4.032 6.079-8.353 11.971-12.491 17.978-.661 1.452-25.577-4.889-26.583-5.145zm66.117 12.748c-19.667-2.575-28.205-4.578-33.507-5.499 4.543-6.885 9.433-13.545 14.078-20.363l.371-.013-.064-.529c12.159-.892 24.369.35 36.344 2.453-5.69 8.021-11.471 15.977-17.222 23.951zm-23.528 26.352c4.635-1.974 28.772-10.404 32.726-7.513 5.226 4.189 10.546 8.264 15.781 12.449-.489.307-18.349 11.253-18.865 11.519-1.677-.553-27.123-14.513-29.718-15.93.021-.133.059-.393.076-.525zm-36.31 35.614c7.837 2.338 15.584 4.975 23.379 7.457-9.394 5.819-19.164 11.041-29.066 15.934.798-8.007 2.74-15.904 5.687-23.391zm4.075 25.363 23.771-13.4c.004 3.985-.017 7.974.009 11.962-.001 0-9.102 1.674-23.78 1.438zm-1.327-30.965c8.165-16.69 24.39-25.928 26.519-26.344 4.433 2.246 28.822 15.583 30.606 16.634-6.031 4.081-26.532 16.996-29.313 18.515-2.149-.469-25.236-7.943-27.812-8.805zm31.186 28.362c-.037-1.44-.5-14.435.67-14.893 4.982-3.045 28.348-17.874 29.019-18.161.734 6.557 1.591 13.097 2.351 19.654-3.152 1.758-14.216 9.793-32.04 13.4zm-10.252 197.06c-1.463-1.847-2.585-3.95-3.498-6.109 7.482 1.221 26.834 3.843 33.447-.196 5.558-8.925-7.038-7.835-17.5-17.538-2.251-1.125-20.052-13.64-30.243-37.069 1.001.007 33.393.116 36.233-.209 3.73-3.093 2.335-4.362 2.27-6.681-2.095-2.163-5.183-2.432-7.82-3.571-4.13-1.643-8.153-3.724-11.617-6.531l-.184.068-.034-.26c-7.317-4.757-18.563-16.929-28.195-38.835 17.951 2.181 24.84-1.833 28.485-2.718 4.851-2.964 9.483-4.465 15.947-14.599l.32-.102c1.054-2.841 2.777-5.38 3.827-8.225 10.776-25.915 9.797-53.005 35.303-67.047.735-.839 9.328-8.265 10.281-8.852 1.284-1.61 9.898-9.754 10.9-10.636.273 1.131.614 2.248 1.079 3.328 4.99 3.594 6.836-.849 11.024-1.638 1.842-1.568 16.991-8.687 29.65-7.176-.264.199-15.029 9.519-15.503 9.744-2.875 2.662-6.233 4.774-9.155 7.402-2.54 2.146-10.604 10.03-10.687 10.085-.241.576-7.453 9.787-7.897 10.226-.317 1.002-15.45 26.836-11.421 32.303 1.186 1.835 3.75 2.568 5.725 1.613 1.63-.713 2.244-2.534 3.498-3.673 1.922-3.684 13.579-18.719 31.813-20.93-.223.414-9.43 16.133-9.932 16.707a3.341 3.341 0 0 1-.853 1.647c-4.424 11.188-43.048 73.175 1.988 130.661 1.915 2.61 6.806 9.63 9.957 9.607 13.664 1.461-11.106-24.483 12.547-50.635 4.694 16.41 14.711 48.484.653 61.071a1.852 1.852 0 0 1-.76.798c-5.029 6.742-20.131 9.68-28.729 10.576-1.997.068-3.848 1.531-4.211 3.524-.371 1.506.435 2.931.712 4.386 2.456 2.707 6.337 20.03 37.372 17.765.294-.721 1.446.218.738.614-6.938 15.731-32.076 20.511-51.459-11.463-1.59-2.481-2.526-6.124-8.357-3.686-.098.107-.299.324-.397.435-2.102 4.386-4.45 31.714 10.354 53.664.917 1.51 2.346 2.743 2.867 4.48.828.158 1.263.947 1.822 1.51 4.483 5.242 8.987 7.681 11.079 9.471-35.656-7.372-80.416-46.43-91.439-73.306zm108.707 312.264c2.248 2.342 4.386 4.808 6.463 7.317-7.47 1.177-14.983 2.099-22.496 2.952-1.8-2.056-3.673-4.049-5.367-6.186 5.703-1.511 19.51-4.256 21.4-4.083zm-28.067 5.802c1.549 1.724 3.157 3.4 4.561 5.256-3.967.613-20.264 1.996-25.055 1.937.524-1.722 18.195-6.628 20.494-7.193zm-3.413 25.175c-11.073-3.025-21.762-9.531-24.036-11.451 14.767-1.098-2.471.73 34.727-2.53-.508.689-9.97 13.52-10.691 13.981zm6.527 1.698c3.998-5.593 8.234-11.015 12.3-16.557.873-.39 19.94-2.728 20.892-2.82-3.204 7.001-6.916 13.767-10.294 20.687-7.651.609-15.368.136-22.898-1.31zm31.945-33.951c3.392-.516 14.248-1.7 20.926-2.069 1.492-.312 8.832 5.112 9.833 5.909-.047.124-.145.371-.192.491-28.354 3.507-21.653 6.211-30.567-4.331zm-1.873 34.454c.661-1.697 10.062-20.06 10.567-21.062 3.481-.409 21.27-3.051 26.088-3.562-.651 2.226-4.911 14.431-5.589 16.276-9.74 3.595-20.052 6.93-31.066 8.348zm116.915 9.791c-.319 18.036 6.979 31.019 32.099 34.799 1.677.209 3.66.508 5.034-.742 7.154-5.532-11.464-13.168-4.795-28.656 8.25-19.955 58.747-39.498 62.679-40.461-1 .866-57.588 42.044-51.77 60.716.969.84 2.142 1.399 3.387 1.736 4.635-.732 23.884-15.201 35.042-16.361-7.333 15.337-17.677 28.432-20.985 30.913-1.894 2.573-4.467 4.565-6.8 6.732-23.333 18.782-37.35 16.5-44.462 19.578-.094.115-.286.337-.384.448-1.968 6.47 1.382 30.191 38.259 31.583-1.114 3.327-5.123 11.051-7.436 13.383-1.772 3.278-7.947 9.926-10.196 11.339-12.515 14.77-56.277 26.142-56.975-12.773-.529-18.808 6.212-20.398 1.805-27.321l-.725-.461c-2.962-.25-3.168-1.458-15.452 8.549 5.9-16.13 8.976-33.199 10.051-50.307 2.901 9.727 5.922 19.479 10.401 28.622 1.953 4.006 7.976 2.998 8.481-1.352.256-2.043-.009-4.117.303-6.143l.201.431.064-.346c-.906-1.908-.22-44.263 12.174-63.906zm-40.989 48.336c-.536-1.001-4.65-9.271-4.1-10.367 1.517-4.113 5.091-14.222 5.098-14.236.354 7.266-.35 17.328-.998 24.603zm-7.432-1.442c6.995 14.65 5.903 13.319 5.584 15.879-1.536 9.138-3.823 18.166-7.073 26.851-3.392-5.512-6.643-11.118-10-16.651 4.028-8.609 7.816-17.325 11.489-26.079zm-16.89 23.374c-7.73.977-15.465 1.924-23.212 2.739a204.973 204.973 0 0 1 14.514-26.007c6.792-1.195 13.541-2.603 20.345-3.712-3.353 9.207-7.564 18.081-11.647 26.98zm13.46-33.51c-.231.037-17.486 3.228-17.581 3.246 1.63-2.457 3.136-5.043 5.145-7.21.697-1.833 19.818-27.594 20.819-28.554.9-1.502 1.958-2.901 3.072-4.245.681 3.881-9.505 36.713-11.455 36.763zm-11.502-21.686c2.025-18.631.422-15.169 17.103-29.539-.089-.499.503-.964.947-.712.26.465-.256 1.143-.764 1.182.722 1.78-12.495 23.971-17.286 29.069zm-18.041-22.871c11.894-5.913 35.016-16.21 37.133-16.911-23.18 22.317-18.982 18.672-37.133 16.911zm4.245-14.036c.038 1.173-1.89.371-.815-.256 1.327-4.437 3.025-8.754 4.432-13.166 10.051-1.331 20.136-2.513 30.26-3.076-10.988 6.278-32.33 16.719-33.877 16.498zm2.248-19.466c-2.718-1.706-5.401-3.52-7.884-5.555.337-.013 1.007-.047 1.344-.06 1.678-.617 8.515-.618 10.008.026 4.971.227 19.63.939 24.309 2.709-12.273 1.126-27.777 2.88-27.777 2.88zm-23.204 42.141c6.453-4.889 7.718-3.557 26.677-1.591-2.589 2.459-20.313 16.322-23.208 18.648-.768.904-1.788.085-2.628-.23-5.602-2.654-11.34-5.021-16.886-7.777 3.324-2.272 13.924-8.286 16.045-9.05zm-61.958 75.239c-3.248-13.889 1.366-25.28 9.309-36.211 7.393 1.719 14.701 3.805 22.078 5.606 0 0-15.058 13.37-27.419 26.578-1.323 1.339-2.419 2.922-3.968 4.027zm33.886-8.724c-10.34 4.847-22.759 9.13-24.897 8.912.35.994-1.63.619-.666-.06 13.285-14.039 24.107-23.695 26.13-25.162-.004 1 .088 6.858-.567 16.31zm-20.051-32.611c2.677-3.54 12.039-12.066 25.708-21.028 6.566 2.944 13.157 5.853 19.65 8.963l-22.253 18.072c-7.691-2.048-15.4-4.019-23.105-6.007zm26.365 29.347c.013-6.25.444-12.491.619-18.737 0 0 11.621-9.583 22.585-18.153 1.771 5.841 3.456 11.719 4.979 17.628-2.301 2.45-15.67 12.737-28.183 19.262zm28.371-40.93c.673-.534 22.691-18.186 23.426-18.652-.081 1-2.189 19.64-3.609 20.981-4.697 5.222-9.539 10.345-14.868 14.932-1.792-5.712-3.251-11.523-4.949-17.261zm-6.622 79.189c.009-.717.115-1.425.482-2.022 1.02-7.206 3.673-14.07 6.177-20.866 7.645-.981 15.298-1.941 22.965-2.709-1.647 3.501-9.936 20.468-10.96 22.039-2.09 1.171-18.958 8.967-19.659 9.224.24-1.912.432-3.831.995-5.666zm.184 35.567c-1.515-7.526-2.193-15.264-1.647-22.931 5.299-2.316 10.435-5.008 15.785-7.201 0 0-7.525 15.95-13.4 30.409.286 1.242-1.608.525-.738-.277zm28.972-15.861c-8.891 10.385-19.776 18.205-23.204 20.119 4.305-11.86 9.863-23.217 15.269-34.603 2.649 4.006 4.983 8.217 7.564 12.274.341.657 1.173 1.527.371 2.21zm4.573-5.794c-3.289-4.923-6.207-10.085-9.322-15.115 3.413-7.12 6.984-14.164 10.435-21.263.76.03.002-.752 10.435 16.647-3.122 6.962-6.94 13.643-11.548 19.731zm4.77 110.943c3.758 1.079 7.555 2.052 11.284 3.251-16.753 12.519-19.06 18.404-22.47 21.634.921-9.199 4.953-18.068 11.186-24.885zm-9.949 35.503c.341 1.02-1.608.568-.653-.089 6.489-11.348 15.862-21.011 26.822-28.093 1.041 6.135 1.941 12.295 2.952 18.443-7.063 2.965-27.378 10.032-29.121 9.739zm15.013-40.44c3.287-3.168 11.703-8.781 20.751-12.573 1.017-.549 11.748 4.741 12.747 5.265-24.999 12.679-17.117 12.623-33.498 7.308zm19.957 28.482c-4.374-22.754-3.25-19.835-1.685-20.934 2.69-1.555 16.948-9.56 19.974-10.136.105 2.612 1.118 17.24 1.293 21.839a216.543 216.543 0 0 1-19.582 9.231zm9.398-44.399c2.995-1.463 6.259-2.274 9.403-3.366 12.059-3.825 8.952-2.816 13.413-2.043 2.747.687 5.576 1.071 8.264 2.005-6.182 2.79-12.44 5.41-18.609 8.234-1.001.638-2.079.171-12.471-4.83zm20.423 29.011c-1.318 1.126-2.845 1.971-4.386 2.76-.115-2.061-.307-4.117-.205-6.173-.389-1.547-1.019-13.813-1.049-15.183 7.764-3.49 15.567-6.898 23.37-10.29.439 5.089.836 10.188 1.165 15.29-4.908 4.305-15.403 11.966-18.895 13.596zm30.9-11.959 13.379-14.053c-.32 1.022-4.796 13.518-6.139 13.477-2.407.282-4.826.521-7.24.576zm4.872 5.743c-3.741 8.66-8.084 17.052-12.188 25.546-6.608 1.101-13.242 2.031-19.863 3.033 6.629-11.648 17.499-24.715 20.222-27.453 3.893-.644 7.882-.815 11.829-1.126zm-11.186-13.097c-.405-4.117-.747-8.247-.875-12.376 6.287-2.834 20.375-9.915 20.375-9.915-.043-.58.751-1.007 1.229-.742.252.452-.252 1.148-.776 1.101-2.732 4.772-18.952 21.014-19.953 21.932zm8.276-23.652c-3.66 2.248-7.73 3.878-11.6 5.776-1.427.93-9.001-1.248-10.013-1.63 7.284-1.854 14.443-4.15 21.915-4.919.572-.584 1.506-.422 2.253-.533-.763.585-1.612 1.075-2.555 1.306zm-32.534 71.936c6.668-.896 13.293-2.099 19.974-2.922-11.131 23.431-10 22.078-11.25 22.628-5.149 2.743-10.171 5.734-15.38 8.366-.23-9.727 2.441-19.369 6.656-28.072zm-.576 51.502c.64.981-1.404.619-.627-.175-2.628-5.132-4.202-10.823-5.026-16.523 4.036-2.167 7.974-4.522 12.078-6.544-2.654 7.585-5.371 15.234-6.425 23.242zm6.647 12.551c-4.495-5.593 3.71-29.735 6.689-36.548 5.538 7.474 11.118 14.932 16.527 22.504-9.264 10.722-21.295 14.197-23.216 14.044zm27.018-19.279c-3.192-4.066-17.051-23.04-17.5-23.729 1.036-3.162 8.356-18.632 10.2-21.843 5.64 7.709 11.169 15.499 16.758 23.242-2.065 7.829-4.992 15.534-9.458 22.33zm16.467-65.068c-1.25 11.728-2.679 23.455-5.06 35.021-5.316-7.21-10.512-14.509-15.708-21.805 4.066-8.537 8.353-16.971 12.257-25.58.904 1.001 8.868 10.648 8.511 12.364zm1.02-10.115c-2.287-2.807-4.407-5.742-6.557-8.648l6.962-16.647c.266-1 3.168-9.552 3.806-10.695-1.18 10.496-.676 1.575-4.211 35.99zm10.149-4.514s2.825 15.968 6.796 27.666c.171.717.704 1.583.149 2.287-.742 1.136-9.163 14.004-10.119 15.175-1.005-11.242 1.291-33.562 3.174-45.128zm13.008 27.402c-5.279-15.403-7.742-31.747-8.097-38.903 3.516 7.847 1.06 8.981 19.633 42.5-3.891-1.059-7.701-2.377-11.536-3.597zm18.272 14.194c4.279 7.372 9.027 14.467 13.336 21.822-1-.247-16.866-4.275-17.466-5.776-4.241-7.389-8.238-14.962-11.288-22.922 16.164 4.592 13.607 4.134 15.418 6.876zm-15.73 59.317c-14.331-18.884-18.828-44.966-17.325-46.813 3.921-5.9 7.777-11.839 11.736-17.709 13.966 33.877 17.714 14.7 5.589 64.522zm4.992 6.279c2.333-12.257 4.778-24.492 7.18-36.732.233.199 15.141 21.623 15.584 22.709-1.945 9.855-4.151 19.663-6.173 29.505-2.625-1.626-10.477-8.353-16.591-15.482zm54.5 37.837c-1.896.212-20.811-9.719-32.602-18.221.198-1.001 3.589-17.668 4.189-19.138.239-2.645.964-5.213 1.493-7.799 1.727 1.698 18.854 26.587 27.555 45.111 1.277.828-1.036 1.263-.635.047zm4.429-6.181c-15.848-28.887-23.081-37.318-25.593-41.476 1.102.209 10.031 2.735 12.978 3.771 5.739 10.451 11.606 25.312 12.615 37.705zm-16.575-45.282c-16.335-4.224-14.541-4.099-15.862-5.883-3.091-4.456-12.416-17.628-14.309-21.224 1 .228 16.828 4.188 17.504 5.648 4.314 7.095 8.743 14.134 12.667 21.459zm131.851 61.54c-2.828-2.308-5.264-5.06-7.99-7.487-19.128-16.906-72-47.367-72-47.367-3.235-1.185-30.335-19.051-32.385-21.741-4.911-1.575-42.621-36.66-46.369-47.12-6.449-6.801-32.494-62.974-30.32-85.469-2.6-6.507-7.762-2.711-11.041-1.608-18.008 6.265-17.786 6.015-17.786 6.015-43.258 13.441-75.866-6.378-83.78-25.196-5.446-6.822-11.718-33.488 15.303-55.047-2.336 23.681 2.305 28.053 4.778 34.113 31.256 34.213 68.14-3.844 69.901-4.65 2.363-3.455 12.921-12.658 18.925-31.873 3.694-12.991-35.197 2.315-39.735-21.775 36.253-7.601 56.988-30.676 73.481-64.458.951-1.877.866-4.446-.772-5.913-7.647-7.8-22.868 1.055-32.163 5.375 15.296-22.601 71.332-58.85 74.257-60.183 3.348-5.469-1.199-9.185-5.482-7.521-65.494 24.361-77.785 33.485-77.785 33.485-4.646 3.797-32.425 18.053-27.44 41.561.444 1.988 1.224 3.882 1.796 5.845-16.584-4.568-17.808-20.518-12.146-36.604-.897-13.064-15.834.141-21.851 11.958-9.57 17.388-10.293 44.246-11.344 47.7-.4-1.032-1.088-3.047-1.22-4.147-2-4.803-14.175-50.85-1.958-82.312.567-1.485-.013-3.021-.482-4.424-21.006-19.369-61.307-11.608-68.976-13.174-3.31.398-27.689.24-31.288.162-15.113-.3-38.174-7.198-43.98-20.2-1.806-1.796-4.077-6.769-4.684-9.398l17.146 5.525c1.059.088 26.443 4.47 37.069-.823.286-1.485.939-3.072.196-4.518-1.048-3.145-12.579-6.992-15.503-9.633-3.122-.914-23.061-11.982-24.782-13.639-2.396-.912-13.01-8.234-14.514-10.23-4.905-3.05-18.625-15.953-17.436-34.94 2.515 1.762 10.329 10.409 27.7 13.605 1.489.384 2.965-.158 4.322-.747 1.143-1.617 1.766-3.609 1.156-5.559-1.315-1.418-5.547-7.045-6.31-9.066-3.525-4.59-8.35-15.597-8.498-17.304-1.474-2.065-5.504-16.033-5.119-18.69-2.306-3.892-4.654-34.834 2.675-53.17.609 1.128 9.953 35.269 10.026 37.193.487.614 6.672 20.39 6.771 22.257.844.755 5.749 14.778 6.088 16.032 1.16 1.847 1.839 3.951 2.517 6.015 0 0 6.27 13.133 10.124 19.313 1.216 2.295 2.888 4.33 3.963 6.711 0 0 5.256 7.44 12.939 15.61 1.57 1.724 3.575 3.029 4.949 4.936 13.699 9.485 11.793 9.732 16.587 8.878a27.769 27.769 0 0 0 2.146-2.167c.26-1.625.243-3.345-.725-4.74-9.943-16.151-11.053-31.059-9.569-35.908 1.958 2.15 3.908 4.394 5.269 6.984 0 0 9.97 11.986 16.182 18.332 1.749 2.095 4.027 3.729 5.542 6.032 1 .659 23.919 22.766 46.676 34.74 5.895 3.323 32.519 17.373 39.113 16.105 6.052-6.174-4.68-11.268 1.062-28.729 0 0 8.547 15.275 18.596 25.533 11.941 11.622 20.2 13.85 22.572 15.473 25.339 6.744 43.216 9.334 86.924-17.99 2.523-4.191.923-7.159-2.543-8.05-60.244-18.362-65.911-16.578-94.705-16.745 1.143-3.545 5.23-10.585 7.773-12.317 6.993-8.899 20.444-14.315 27.188-15.427 5.791-2.801 4.08-7.804.883-8.908-2.649-.61-5.333.341-7.995.158-2.212 1.066-45.592 3.512-43.14 3.959-1-.012-57.492 2.202-72.329-8.306 1.001-.063 33.537 1.31 37.154-10.397 1.835-5.683-6.298-5.97-8.17-6.557-1.408.279-10.755-1.202-12.521-1.856-12.576 0-64.272-14.212-73.75-23.054 2.422-.963 13.972-1.054 26.314-7.265 23.061-11.517 7.233-15.14 5.111-16.536-3.336-.809-29.224-12.143-31.416-13.793-3.369-.809-24.792-12.178-27.415-14.407-2.918-1.276-5.712-2.982-8.119-5.064-2.139-.796-31.048-18.472-30.089-38.92 1.527.559 2.688 1.715 3.891 2.769 16.266 13.331 36.586 19.518 39.471 21.608 1.684.392 16.024 5.629 17.508 6.442.967.074 26.444 8.642 28.75 9.842 2.541.137 39.194 14.137 43.319 17.85 4.433 1.352 20.711 11.586 23.929 15.324 3.255 2.026 5.802 4.962 8.537 7.611 14.156 14.796 12.927 23.948 19.04 21.792 2.304-.657 3.575-3.234 3.076-5.508-5.241-33.14 8.328-47.105 41.941-44.496-1.449 3.55-11.853 18.284-10.324 36.416.145 3.315 1.182 6.497 1.749 9.752 1.182 2.517 1.928 5.239 3.379 7.641 11.018 19.439 14.541 14.98 17.009 14.147.307-.508.414-1.25 1.002-1.497 1.966-19.308 8.522-39.073 27.905-40.205-22.456 59.361 8.914 87.528 10.806 90.439 2.063.909 9.305 9.12 25.87 11.932 28.516 4.277 88.788 12.57 113.549 33.264-5.699 1.156-37.154 3.261-66.616 20.333-2.76 1.459-5.162 3.511-7.982 4.842-1.349 1.41-12.588 8.501-21.13 21.493-1.515 2.112-2.479 4.565-4.053 6.638-7.421 22.056-8.873 32.401 4.177 61.463-2.771-.493-7.861-2.801-9.373-4.373-26.547-12.861-16.738-59.959-37.798-21.604-1.809 2.957-3.067 6.207-4.791 9.215-.616 3.03-33.699 64.776 13.976 143.506.375.636.678 1.327.964 2.043 2.579 3.344 5.199 8.931 16.284 22.073 1.429 1.826 3.328 3.294 4.42 5.38-22.805-2.503-38.091-21.892-39.095-22.756-10.268-7.736-9.29 24.051 3.575 46.437 11.768 19.948 29.433 32.842 47.389 44.799l.043.265c.964.431 46.422 27.315 57.952 35.132l.073.286c22.652 11.127 51.196 45.828 48.029 73.222zm-377.946-568.837c2.952 3.264 6.89 5.418 10.265 8.195.9.341 1.758.849 2.432 1.566 3.119 1.399 5.994 3.293 9.108 4.719 27.464 13.238 59.308 17.18 64.206 18.69 1.327-.265 2.688.281 4.002.495-6.604 2.191-28.527-1.201-35.524-2.466-6.207-.929-9.177.032-7.248 6.873l.35.401c11.09 5.704 24.677 27.723 115.324 20.849 2.304-.145 4.599-.482 6.915-.465-14.41 12.221-27.838 38.285-11.766 35.047 25.768-4.935 61.761 4.752 87.606 12.914-21.699 13.665-50.502 21.491-73.788 9.637-21.493-10.742-29.807-31.371-37.043-44.39-5.43-9.178-15.626 9.396-13.993 30.879-41.383-16.621-72.508-46.285-78.387-54.633-1.141-.903-5.979-6.279-6.66-7.607-3.48-3.187-12.686-15.76-16.237-21.015-5.947-8.721-16.729 2.824-8.933 35.507-25.946-23.927-39.964-79.503-48.686-113.929 2.658 2.364 5.648 4.33 8.251 6.753.769.369 11.571 7.55 12.005 7.927 0 0 19.438 11.706 52.871 26.02 2.142.934 4.347 1.724 6.425 2.807-10.832 6.507-25.555 7.966-38.135 8.204-3.326.081-5.51 4.381-3.36 7.022zm382.84 541.819c-4.156-9.845-6.762-14.445-6.762-14.445-2.004-2.488-5.238-8.812-14.778-18.375-21.728-23.264-84.77-54.275-93.144-62.679-.452-.179-.862-.435-1.139-.798-4.266-2.286-19.191-14.501-21.446-18.029-1.293-.879-2.372-2.073-3.2-3.379-2.032-1.709-16.037-17.07-18.767-39.714 5.398 3.296 14.41 13.646 50.23 18.968 2.339.514 6.649-.431 5.218-6.745 17.145 7.464 30.135 3.149 41.911-1.771-11.569 38.926 10.716 62.325 12.274 65.077l8.422 8.055c2.711 1.533 13.475 10.873 33.285 12.969 22.852 2.478 45.624-4.626 60.222-23.042.951-1.216 1.804-2.517 2.897-3.613.158-.465.41-.875.772-1.177 2.61-5.698 16.691-24.685 7.197-58.212 16.017 6.3 23.832 8.205 41.894 1.749-.729 4.359-.468 3.776 1.847 6.596 2.842.534 33.83-2.369 53.639-19.104-2.005 17.352-12.042 33.014-16.207 36.676-.584 1.109-1.412 2.107-2.449 2.833-3.451 5.464-20.326 19.245-24.01 21.02-4.329 3.955-32.547 20.878-34.799 21.711-2.73 2.103-5.909 3.541-8.827 5.367-25.95 15.265-38.255 24.573-38.255 24.573a4.41 4.41 0 0 1-1.557 1.203c-4.502 4.612-24.615 17.809-34.468 44.286zm149.747-54.313c.672-1.221 17.135-6.449 18.135-6.749-.807 1.32-15.142 23.665-17.351 24.164-4.569 1.553-9.049 3.37-13.669 4.77 1.769-4.079 10.41-18.232 12.885-22.185zm43.857-68.728c.104 1.505-2.6 13.445-5.764 22.359-3.904 1.203-7.752 2.589-11.702 3.613 1.345-2.781 8.827-13.68 15.512-30.93 2.376-5.897 2.343-7.089 3.758-9.868-.047-.738.252-1.433.469-2.099-.043 3.566-1.251 13.466-2.273 16.925zm-9.475 29.966c.691-1.002 1.353.964.218.866.42 1.59-7.84 17.008-9.496 19.902-1.863 2.934.866 2.862-19.411 8.959.588-1 15.418-25.801 16.818-26.071 3.953-1.22 7.86-2.615 11.871-3.656zm-62.73 103.839c.473-11.856 9.355-32.231 11.224-34.851 1.002-.477 10.869-4.064 12.76-4.526-1.779 3.169-11.945 16.797-21.788 35.324-.682 1.37-1.369 2.752-2.196 4.053zm37.081-11.992c-10.333 7.38-21.544 13.46-33.054 18.792-.499.969-1.045-.772-.064-.337-.385-1.408 11.222-22.828 26.975-44.889 6.844 27.179 6.945 25.943 6.143 26.434zm5.67-4.326c-8.252-33.102-7.762-27.683-6.011-30.55 5.414-7.449 10.486-15.136 15.691-22.726 2.931 11.903 5.495 23.899 8.26 35.845-5.235 6.509-11.387 12.26-17.94 17.431zm22.628-23.793c-3.548-15.947-8.164-35.555-8.332-37.09 11.526-21.406 8.782-17.279 12.466-25.119 3.806 5.422 7.317 11.049 11.041 16.536 3.262 5.271-4.894 32.482-15.175 45.673zm17.248-53.634c-1.357-1.572-7.071-10.681-9.441-14.087-1.963-3.658-.947 1.39 3.34-16.958.55-2.044.751-4.181 1.519-6.152.111-2.218.674-4.369.964-6.553-.32-.474-.286-.926.103-1.352.567-.529.99.533.593.943.172 2.894 3.745 24.492 2.922 44.159zm7.01-40.576c-3.097-28.743-4.228-36.007-4.228-36.007s3.029 8.793 10.789 27.363c-2.146 2.91-4.27 5.845-6.561 8.644zm27.521-2.974c7.171 8.379 14.142 17.06 19.501 26.736-6.595-.866-13.161-1.92-19.727-2.965-4.334-8.417-8.375-16.984-12.381-25.555 10.814.666 11.976.784 12.607 1.784zm-15.474-8.349c-1.967-4.356-3.929-8.741-5.435-13.272l13.383 14.04c-2.649-.115-5.375-.132-7.948-.768zm3.511-31.437c2.834.409 20.948 4.037 23.788 5.508-2.385.815-4.885 1.207-7.321 1.826-1.948.674-15.453-6.712-16.467-7.334zm11.673 14.053c-.32 3.596-.469 7.21-.883 10.806-1-.908-17.232-17.011-20.725-23.016 2.935 1.246 5.653 2.965 8.532 4.356 15.464 8.025 12.751 5.135 13.076 7.854zm-21.216 73.574c-.801-3.681-6.388-35.119-4.514-36.617 2.483-3.592 5.167-7.065 7.871-10.499 4.113 8.511 8.187 17.052 12.355 25.542-.964 1.31-1.749 2.799-2.986 3.886-1.614 2.799-11.514 16.476-12.726 17.688zm1.962 7.965a2243.208 2243.208 0 0 1 16.775-23.289c.539 1.001 11.151 21.25 9.612 22.726-5.678 7.59-11.13 15.354-16.919 22.858-4.476-6.774-7.373-14.487-9.468-22.295zm37.829 39.501c-.478.832-.986 2.521-2.223 2.108-8.626-2.295-16.489-7.253-22.291-14.036 3.765-5.356 16.144-22.177 16.485-22.602 5.37 12.526 8.777 27.885 8.029 34.53zm5.349-10.448c-1.109-7.995-3.754-15.653-6.455-23.212 4.134 1.962 8.038 4.381 12.09 6.519-.806 5.704-2.364 11.399-5.009 16.527.748.806-1.295 1.135-.626.166zm-.588-51.497c4.202 8.707 6.89 18.344 6.66 28.072-19.659-9.785-15.078-6.807-26.617-30.977 6.672.819 13.293 2.013 19.957 2.905zm4.722-26.182c-1.83-.941-11.818-6.766-23.229-16.288.066-2.334.613-11.132 1.109-15.418 7.833 3.439 15.704 6.813 23.477 10.388-.52 7.099-.909 14.211-1.357 21.318zm25.546 12.466c-4.664-1.446-15.373-6.864-19.684-9.121.277-7.274.943-14.526 1.297-21.792 4.795 1.406 17.379 8.588 21.442 10.934-.819 6.686-2.082 13.311-3.055 19.979zm34.855 12.099c-1.681.296-21.73-6.688-29.117-9.727.998-6.169 1.886-12.355 2.957-18.511 10.909 7.176 20.328 16.771 26.809 28.144.947.649-1.007 1.114-.649.094zm-9.953-35.537c6.522 7.047 10.311 16.235 11.417 25.422-.64-.836-1.792-1.6-1.882-2.641-4.75-4.942-5.528-7.796-20.811-19.531 3.712-1.237 7.509-2.192 11.276-3.25zm-26.446-17.628c9.035 3.604 18.577 9.736 21.34 12.854-17.334 4.667-6.978 6.132-33.464-7.415 1.502-.813 10.993-5.116 12.124-5.439zm-7.965-3.174c-1.01.501-11.226 5.607-12.53 4.829-3.32-1.505-18.605-8.242-18.605-8.242 1.847-.78 7.911-1.837 10.806-2.547 2.405-.725 17.929 4.926 20.329 5.96zm39.385-89.731c-4.612-5.892-8.336-12.444-11.502-19.211-.728-1.107 9.6-15.858 10.303-16.86.853 1.591 10.166 20.062 10.84 22.231-3.109 4.68-6.403 9.245-9.641 13.84zm-30.836-29.842c-2.983-1.073-3.874-4.126-8.652-1.378-3.581 6.089 4.38 13.586 1.826 32.286-5.224 35.336-51.449 19.698-63.276.602-2.444-2.199-7.71-9.638-11.062-17.982 19.229-.502 25.131-6.435 28.545-8.195 1.736-1.928 3.784-3.579 5.205-5.777 3.064-4.345 7.097-13.481 4.151-18.033-3.062-1.369-24.27-4.504-30.734-10.363-6.58-1.232-29.018-20.115-41.399-46.839 8.885 1.105 24.984 11.196 32.504 15.729 2.875 1.817 7.031-.815 6.63-4.181-3.369-22.904-50.172-55.329-52.496-57.658 5.67 1.999 23.573 9.546 24.343 10.759 2.22.233 17.356 8.281 26.224 15.226 13.432 10.722 18.358 21.769 7.619 35.495-9.445 12.137 12.825 9.836 25.431.725 9.376-6.779 11.684-16.214 11.344-27.197 19.666 31.403 5.515 79.1 18.793 73.583 4.313-1.464 11.571-26.5 12.867-30.9 1.045 16.766 4.027 33.481 9.659 49.343 1.267.721-.943 1.271-.316.026-.738.083-6.674-4.752-7.206-5.271zm7.394-36.783c-1.131-11.791-1.413-23.556-1.16-26.258.186.391 5.906 16.746 5.985 17.18-1.532 3.058-3.021 6.164-4.825 9.078zm32.384-85.273c1.519 4.719 3.285 9.352 4.774 14.083-11.271-4.392-32.581-15.462-35.081-17.176 4.332-.087 25.221 2.43 30.307 3.093zm-26.783-8.929c7.605-2.31 25.901-2.927 36.101-2.641-1.082.918-6.374 4.671-7.939 5.529-.001 0-22.599-2.579-28.162-2.888zm-1.92 19.735c2.44.659 34.586 15.375 36.595 16.698-.001 0-12.319 1.096-14.117 1.297-1.122.043-2.461.478-3.315-.482-1.612-1.421-16.601-14.218-19.163-17.513zm18.571 39.821c-9.206-12.084-16.041-24.779-17.986-30.422 1.157.799 14.903 13.006 15.559 13.677.951 5.55 1.676 11.156 2.427 16.745zm5.798 24.39c-6.169-1.011-12.287-2.338-18.409-3.588-1.693-4.594-11.043-30.876-10.388-36.186 1.225 1.469 26.351 35.17 28.797 39.774zm4.748 7.287c5.984 8.646 12.997 22.085 14.514 26.032-7.543-.431-15.077-1.088-22.606-1.647-4.428-9.356-8.793-18.767-12.376-28.481 2.929.445 19.3 3.766 20.468 4.096zm-24.799 1.488c12.585 31.164 14.189 21.263 3.938 36.74-1.003 1.493-1.881 3.084-3.119 4.411-3.413-9.032-5.725-18.451-7.265-27.973-.397-1.462 5.543-12.264 6.446-13.178zm19.42 73.059c2.918-4.215 5.747-8.502 8.869-12.564 6.513 13.012 13.429 28.94 14.68 33.153-8.835-5.598-16.753-12.654-23.549-20.589zm29.176 17.594-13.537-30.503c5.209 1.732 10.273 3.886 15.439 5.764.487 8.28-.187 16.62-1.902 24.739zm-6.079-59.006c3.464 8.84 6.254 18.042 7.274 27.508-6.375-2.391-18.901-6.793-19.368-8.2-3.537-7.265-7.265-14.437-10.661-21.766 23.196 1.301 22.585 1.458 22.755 2.458zm-5.145-39.757c-15.746-13.591-16.617-17.352-16.374-21.903-.514-1.667-1.956-12.297-2.099-14.01 1.295.874 22.395 17.797 23.396 18.613-1.66 5.76-3.166 11.567-4.923 17.3zm5.153 4.356c1.493-5.858 3.293-11.638 4.864-17.479 1.943.926 18.877 14.856 22.594 18.136.198 1.054.747 16.81.729 18.528-10.582-5.179-24.794-15.739-28.187-19.185zm34.475 22.585c-.565-6.811-.557-15.331-.576-16.331 2.197 1.67 15.324 13.26 26.595 25.781-8.975-2.214-17.649-5.55-26.019-9.45zm23.908-27.384c1.327-.716 14.653 17.046 9.983 36.109 0 0-13.118-14.333-31.403-30.516 7.094-2.01 14.278-3.72 21.42-5.593zm-3.844-5.248c-23.538 6.076-23.111 6.408-23.946 5.457-7.939-6.705-21.455-17.538-21.455-17.538a783.163 783.163 0 0 1 19.693-8.933c14.054 9.24 23.099 17.638 25.708 21.014zm-31.949-24.94c-21.429 10.345-18.603 8.692-20.559 7.329-2.715-2.187-19.302-15.157-22.265-17.888 21.313-2.426 20.568-2.382 22.811-.567 2.626 1.112 14.756 7.748 20.013 11.126zm-28.469-27.862c-.348-1.001-5.301-15.127-5.653-16.361 4.721.535 22.983 3.214 26.13 3.639.51 1 7.352 14.17 10.602 21.066-4.059-.29-15.705-2.557-31.079-8.344zm-1.8-21.976c.853-.739 7.152-5.174 9.019-6.224 7.359.179 14.68 1.224 21.996 2.043-2.282 2.521-4.377 5.252-6.86 7.568-1-.131-19.743-2.507-24.155-3.387zm40.111 31.084c-3.357-6.933-7.061-13.694-10.286-20.683 1.005.096 20.742 2.169 21.438 3.494 3.835 5.354 7.939 10.508 11.758 15.875a82.766 82.766 0 0 1-22.91 1.314zm29.364-2.935c-.805-1.039-9.556-12.477-10.516-14.108 4.511.288 23.77 2.371 34.842 2.462-2.002 1.559-11.847 8.044-24.326 11.646zm-3.379-25.286c7.406 1.954 14.782 4.224 21.787 7.355-8.865-.23-17.7-1.126-26.523-1.963 1.524-1.847 3.149-3.6 4.736-5.392zm-6.548-1.826c-1.728 2.184-3.677 4.181-5.469 6.314-7.496-.887-15.004-1.724-22.444-2.978 6.982-9.299 5.191-8.257 27.913-3.336zm20.149-116.19c-2.269 5.303-6.018 6.078-5.64 11.049 2.393 3.64 3.496 4.154 14.364.678 10.979-3.646 16.096-8.965 18.908-11.284 2.295 23.24-22.604 40.598-27.219 42.214-2.378 2.049-14.523 9.193-17.969 10.572-5.208 4.547-55.415 22.516-6.344 22.628 16.847.066 30.638-6.431 33.724-7.163-3.438 18.104-29.797 29.9-44.778 29.044-7.027 2.017-45.969.124-49.104.183-48.402-.641-50.594 11.866-54.24 12.483-4.711 7.047 3.996 8.235 3.746 34.172-.06 35.156-7.463 56.152-8.268 57.641-6.963-52.65-13.645-49.513-17.914-57.969-1.82-.899-5.852-6.104-9.923-7.12-3.089-.542-5.815 2.684-4.945 5.648 4.828 16.354 4.521 31.942-12.423 36.382 4.66-14.921 1.198-18.461-.179-23.34-.985-1.096-1.523-2.496-2.346-3.695-7.166-10.902-18.275-16.533-20.201-18.698-.934-.174-9.436-5.262-10.294-6.071-1-.175-69.658-32.798-75.102-28.916-2.636 1.54-2.722 5.896-.068 7.47 2.65 1.836 59.777 38.409 73.541 59.97-3.896-1.471-25.015-14.757-32.756-4.561-2.837 3.424 19.365 58.47 73.208 69.641-.366 4.482-5.67 13.623-22.666 15.401-9.361 1.428-15.442-1.715-17.018 3.601-.88 3.148 8.923 37.436 47.043 51.493 2.997.068 7.169 3.39 22.466 1.34 1.66-.922 3.541-1.263 5.286-1.971 23.627-9.566 19.199-37.42 19.181-45.333 29.331 22.564 25.113 59.682-7.76 76.77-9.307 4.909-21.061 7.615-25.789 7.453-15.038 4.376-50.46-8.963-52.453-10.486-2.493-.019-10.593-6.151-11.728 3.05-4.992 46.188-28.555 81.709-29.556 82.589-.773 2.674-14.306 21.583-36.16 39.85-43.899 36.357-94.935 54.183-124.897 85.75-.71-24.322 13.159-43.573 17.154-46.698.516-2.348 15.239-16.075 17.526-17.09 14.539-14.325 68.299-39.345 96.407-63.101 43.959-34.878 37.297-88.745 26.293-72.67-11.67 14.541-30.67 20.751-38.016 21.647l15.038-18.391 13.016-21.685c.452-1.574 1.25-3.008 2.005-4.441 39.05-80.303 1.006-136.198-.683-141.079-2.364-3.067-3.972-6.689-6.519-9.62-9.226-10.755-7.983 24.032-32.201 36.169-2.078 1.007-4.147 2.163-6.459 2.496 1.045-2.833 2.59-5.444 3.652-8.268 26.114-63.531-32.043-96.23-99.308-106.28 22.765-21.971 109.655-32.877 110.917-32.773 3.643-.862 7.372-1.403 10.917-2.671 28.11-9.184 36.319-36.556 35.862-65.998-3.576-28.299-5.343-25.474-7.59-34.112 18.827-.602 25.565 21.501 27.867 40.188 3.718 4.983 7.477 1.131 8.477.414 3.258-5.371 26.577-24.061 6.8-62.129-.811-1.634-2.056-3.097-2.321-4.945 58.616-2.255 37.608 39.275 43.097 49.556 7.576 1.792 4.882.126 13.554-12.679.563-.832 1.182-1.634 1.979-2.248 2.388-4.031 12.177-13.416 15.397-15.316 5.443-5.845 30.635-19.04 34.983-20.026 3.555-2.092 24.117-9.951 26.442-10.269 1.066-.765 34.437-12.112 35.439-12.248.405-.282 18.26-7.121 19.586-7.376.332-.231 20.074-8.723 29.74-15.96 3.221-1.941 5.7-4.919 9.001-6.711 1.695 17.883-24.099 35.72-26.749 36.779-1.559 1.707-10.631 7.422-12.812 8.131-3.906 3.556-40.833 21.232-44.829 22.103-1.751 1.079-14.564 6.547-16.613 6.852-1 .805-5.328 3.537-2.163 7.359 8.841 10.905 36.531 14.73 37.547 14.94-20.851 13.387-51.165 19.113-74.965 23.404-16.84 2.121-18.112 2.857-18.946 4.586-3.086 4.988 4.818 9.051 10.294 11.207 3.703 1.395 7.653 1.86 11.519 2.594.183-.016 14.373-.013 15.051.038-9.99 4.976-37.527 9.096-48.383 8.097-1.987.467-38.31-.197-40.439-1.088-1.756-.071-16.92-1.351-18.792-1.894-4.966.004-9.872-1.186-14.833-1.207-3.178.077-5.324 4.079-3.537 6.741 1.139 1.996 3.558 2.368 5.589 2.931 17.965 4.912 29.617 17.428 32.474 27.158-11.438-.475-30.776-3.989-95.648 17.125-3.251.998-3.835 5.776-1.22 7.76 35.238 28.627 73.171 21.501 74.172 21.583 4.45-1.318 9.053-2.201 13.298-4.147 1.651-.64 3.119-1.813 4.919-2.022 1.919-1.735 10.086-5.458 18.72-14.851.734-.793 1.378-1.719 2.346-2.244 0 0 7.401-9.802 11.131-16.314 1.083-1.719 1.822-3.682 3.285-5.128 5.055 16.257-2.731 20.625-.29 27.773 4.901 3.023 3.927 1.101 19.219-4.232.935-.658 8.718-4.481 10.158-4.693 4.325-3.474 42.55-18.217 80.29-66.561 1.489-1.86 2.773-3.895 4.492-5.559 1.981 16.199-5.799 28.955-10.085 36.651-1.57 2.709.819 6.442 3.865 6.421 3.266.137 7.048-4.291 9.262-4.953 3.11-2.952 6.625-5.474 9.603-8.584 2.59-2.389 4.663-5.269 7.231-7.666 0 0 6.204-8.15 11.962-17.952.956-1.583 1.574-3.387 2.867-4.748 0 0 7.948-16.405 13.392-32.666l.281-.149 17.398-60.247c12.331 27.191.127 77.623-11.84 90.521zm-56.873-8.681c-26.419 38.544-60.794 66.419-100.81 82.474 2.352-13.299-4.232-33.271-10.41-32.931-1.062.094-2.026.55-3.003.909-.098.102-.294.312-.392.418-23.802 56.19-68.116 63.496-111.019 35.456 19.751-6.566 61.718-17.239 79.279-13.844 2.054-.399 8.859 1.037 10.896 1.37 2.747.521 5.461-2.236 4.932-4.974-1.105-5.452-3.639-10.457-5.986-15.448a10.043 10.043 0 0 1-1.997-3.276c-1.979-2.078-3.515-4.526-5.576-6.527-1.749-1.89-3.78-3.481-5.636-5.247 24.014 1.018 82.916 9.422 119.368-18.426 7.814-6.101 1.756-10.52-1.523-9.727-11.154 2.095-27.09 4.731-38.396 2.986 77.255-11.213 104.02-41.667 86.625-40.751-24.467-.362-37.796-7.245-37.389-8.409 26.46-10.92 47.679-22.069 47.679-22.069l21.992-13.537c3.033-2.709 6.472-4.945 9.514-7.658-12.438 51.781-26.297 92.198-48.959 114.249 6.93-19.764.961-49.139-9.189-35.038zm127.491-309.363c1.408.384 2.88.563 4.232 1.177.798-.354 1.685-.021 2.534.043 5.499.802 11.071.363 16.578-.167-1.163 3.168-6.101 13.184-7.803 14.97-1.011 2.602-2.893 4.744-4.262 7.163l-.269-.064c-11.653 20.1-31.216 24.308-34.629 26.173a12.286 12.286 0 0 0-1.075 1.979c0 7.932 2.793 5.634 38.639 5.785-2.999 10.489-19.534 29.965-23.456 31.762-2.589 3.17-12.884 10.205-20.606 14.125-11.364 6.119-4.657 15.376 29.94 8.921-24.036 45.726-65.231 73.654-95.208 79.441 2.316-1.531 4.488-3.268 6.792-4.816l7.227-7.568c1.4-2.428 17.442-21.742 13.281-54.582-.546-3.656-6.028-4.731-7.944-1.604-1.915 3.136-7.097 11.723-10.384 14.053-.998 1.442-2.282 2.747-3.771 3.673-11.264 12.246-33.115 11.841-39.223-4.36 17.905 1.822 32.743-2.815 38.989-19.624 2.411-6.316-7.083-6.233-8.332-6.442-40.313-5.916-36.218-32.258-24.628-71.915 23.564 25.604-1.308 52.303 12.658 50.618 4.172-.296 20.901-21.27 27.333-42.41 7.856-25.334 2.069-51.489 2.069-51.489l-.175.435c-6.084-26.181-18.114-48.511-18.114-48.511-.978-.602-4.737-7.689-5.141-8.788-1.894-2.397-3.413-5.094-4.83-7.786 2.82.174 8.988 1.788 11.297 3.413 11.26 3.075 21.871 19.685 23.831 21.305.405.132.823.277 1.259.427 15.018-1.828-8.149-38.923-19.616-49.449-.721-.696-1.51-1.335-2.014-2.193-.618-.426-9.733-7.902-10.106-8.605l-18.272-11.689c13.133-1.404 29.259 6.103 33.003 8.793 1.707.623 3.447 1.864 5.358 1.19 2.026-.529 3.2-2.479 3.341-4.475.098.094 15.967 15.189 16.049 15.298 1.238.555 7.261 5.493 8.042 6.493 1.001.298 10.131 5.689 12.001 10.998h.354c18.074 28.115 12.673 69.385 45.051 78.302zm-13.818-79.044c-9.004-1.591-20.898-6.117-31.988-13.443.742-6.536 1.493-13.076 2.406-19.59.654.389 29.198 18.201 29.552 18.874.149 4.713.06 9.44.03 14.159zm6.391 1.292.055-.017-.299-.124c-.269-3.959-.051-7.995-.103-11.979l23.823 13.434c-14.227.079-7.854-.109-23.476-1.314zm33.191-.84c-4.654-1.912-21.167-10.758-29.083-15.827 2.24-.773 21.304-6.912 23.413-7.402a89.209 89.209 0 0 1 5.67 23.229zm-34.906-55.153c1.269.058 18.095 9.102 26.506 26.327-31.058 10.269-27.298 9.087-29.309 7.973-9.313-5.836-18.677-11.604-27.833-17.675 4.615-2.597 29.341-16.098 30.636-16.625zm-6.736-3.422c-5.659 3.297-28.074 15.392-29.949 16.297-6.211-3.972-12.573-7.705-18.801-11.629 1-.826 16.782-13.865 18.054-13.392 10.465 1.898 20.981 4.283 30.696 8.724zm-8.085-29.07c-1.029.496-14.078 2.27-15.742 2.453-.662-.917-16.509-22.886-17.158-23.878 5.218-1.298 21.199-3.498 36.156-2.56 1.036 1.488 13.727 19.485 14.543 20.96-16.377 3.088-16.354 2.976-17.799 3.025zm24.236-4.407c-4.279-6.271-8.823-12.368-12.982-18.72 15.893 1.78 32.405 8.671 39.083 12.829-8.648 2.18-17.368 4.074-26.101 5.891z" class="st0"/>
  <path d="M766.567 1436.04c.209.209.209.209 0 0" class="st0"/>
  <path d="M628.957 407.231c1.689-1.66 4.518-1.647 6.224-.013 102.632 95.566 112.394 196.117.081 309.222-3.77 3.944-7.582-1.079-8.776-2.312-102.636-105.977-106.649-205.687 2.471-306.897m-8.985 286.475c2.491 2.683 4.744 5.644 7.568 7.991 1.105 1.843 2.978 3.247 4.526 4.778 1.263-1.071 2.427-2.248 3.618-3.392l-.124-.303c5.236-4.504 28.004-31.369 28.332-33.302 10.288-11.032 35.845-55.341 38.771-78.336.879-1.688 2.5-11.685 2.654-13.989 10.041-58.411-33.48-122.508-51.113-137.406-.241-1.024-12.644-14.178-22.129-23.012-99.44 91.784-95.679 182.735-12.103 276.971z" style="fill:#030102"/>
  <path d="M625.181 470.861c2.824-3.238 8.033-4.066 11.681-1.741 5.105 3.43 35.894 48.251 36.045 83.289.431 35.835-9.729 60.063-31.817 90.507-.887 1.073-4.977 8.128-11.723 5.576-1.941-.678-3.69-1.928-4.868-3.609-46.818-62.675-42.872-121.87.682-174.022m-20.844 59.91-.239.162c-.514 2.018-2.396 9.395-2.299 11.485-4.678 12.395 1.121 48.497 7.163 57.606.047.968.478 1.864 1.032 2.654 1.972 5.541 10.07 21.333 22.065 37.039 12.181-16.047 21.133-33.32 21.813-36.45 14.34-27.507 14.917-68.384-9.463-107.687-.149-.849-.802-1.476-1.28-2.137-.453-1.255-3.854-6.603-4.582-7.133-1.809-3.392-4.241-6.412-6.476-9.522-17.015 23.179-25.722 44.21-27.734 53.983z" style="fill:#030103"/>
  <path d="M628.718 1251.263c16.127-18.132 113.706 185.184-1.766 177.418-78.428-5.091-41.768-127.764 1.766-177.418m-6.971 25.196c-7.738 3.507-78.469 150.364 20.555 142.555a17.66 17.66 0 0 0 3.157-.798l-.392-.141c8.6.574 25.322-13.001 26.433-25.52l.026.414c11.289-31.47-15.564-95.336-18.089-96.885-1.778-4.176-8.818-17.488-10.35-18.387-.107-2.008-9.224-14.091-11.015-16.293-2.59 3.193-9.24 12.163-10.325 15.055z" style="fill:#020103"/>
  <path d="M528.616 1410.507c28.646-15.186 49.166 25.437 22.368 39.531-7.509 3.895-17.291 3.225-23.98-2.048-14.291-10.693-10.051-31.97 1.612-37.483m-2.291 27.914c4.745 8.039 15.21 10.204 22.466 5.943 11.153-6.026 11.121-22.375.619-28.601-13.641-9.345-32.491 7.439-23.085 22.658zM714.05 1409.219c27.233-11.642 44.157 26.309 22.376 39.33-28.276 18.494-50.996-25.971-22.376-39.33m6.481 4.275c-16.292 2.797-18.864 25.893-2.598 32.078 14.298 4.707 25.932-9.171 21.293-21.224-2.479-7.531-10.914-12.484-18.695-10.854z" class="st4"/>
  <path d="M625.007 1469.969c27.377-7.349 50.797 26.896 31.489 50.094-5.883 7.47-15.333 11.979-24.851 11.732-35.47.038-43.727-51.998-6.638-61.826m-17.202 37.56c4.359 15.566 22.956 23.445 37.474 14.543 14.67-9.038 16.297-30.125 2.517-41.284-18.577-15.283-47.23 3.147-39.991 26.741z" style="fill:#040103"/>
</svg>
