<svg xmlns="http://www.w3.org/2000/svg" xml:space="preserve" viewBox="0 0 252.509 139.149"><path d="M245.04 24.345c-.113.751 2.613-1.048 1.932 1.16 1.343-.494 2.741-3.152 1.16-4.251.241-1.304 1.371-1.72 1.545-3.091.028-1.316-1.137-1.439-1.932-1.932.376-1.394 1.874-2.759.387-3.864 1.17-2.308 1.915-5.04 2.318-8.115-1.906-.102-1.181 2.427-1.933 3.478-1.787-.75.082-2.825-.386-4.637-2.038 3.115-5.565 4.74-6.956 8.501-1.679-1.283-.301-3.593-.387-5.41 3.169.077 2.811-3.373 3.864-5.41 1.619-.46.69 1.629 1.546 1.933.598-.562.812-1.507.772-2.705 2.098.839 3.625.417 5.41 1.932-.399 9.171 2.529 24.805-6.955 27.05-.568 2.61-3.404 4.991-6.184 6.569-2.265 1.287-5.578 2.918-7.729 2.319.819-.88 2.585-1.648 3.864-2.319 2.773-1.452 6.033-2.817 7.729-5.796-4.305 1.255-7.05 6.06-11.979 5.41.492-.925 1.261-1.573 2.705-1.546.033-.548.064-1.094-.386-1.159 4.743-2.728 8.624-6.318 12.365-10.047-.66.232.04 1.831-.76 1.93z" style="fill:currentColor;clip-rule:evenodd;fill-rule:evenodd"/><path d="M238.47 7.342h1.159c-.487 3.067 1.282 6.011-.772 7.342.095.42.768.262.772.773-.975 2.374-3.405 3.293-5.023 5.023-.988-.429-2.685-.149-3.092-1.159-1.561-.144-1.513 1.321-2.318 1.932-1.299.397-.602-1.202-.772-1.932-1.491.441-2.199 1.665-3.864 1.932-.158-.931.705-.84.386-1.932-2.17.36-3.28 3.562-5.023 3.091 2.111-3.847 7.146-7.907 11.979-6.569 3.51-1.493 5.47-4.554 6.55-8.501zM223.01 16.23c-.609 2.869-3.62 3.335-5.024 5.41-2.794.039-4.763.905-5.796 2.705-2.586-1.237-3.11 2.073-5.797 1.933.991-3.131 1.723-6.522 4.638-7.729.842.808-.193 1.103 0 2.319.98-1.982 3.958-1.967 5.023-3.864 2.59.492 3.71-1.269 6.96-.774zM238.08 18.548c1.669.575-.309 3.672-1.932 3.478-.02-1.824 1.49-2.122 1.93-3.478zM42.162 31.301c2.089.101 2.151 2.229 3.092 3.478h-1.546c-.265 2.917 4.051 3.058 2.705 5.796-2.838-1.026-4.174-3.555-5.024-6.569 1.693-.33.707-1.098.773-2.705M242.72 34.392c1.946 1.606-2.214 2.979-2.705 4.637-1.802.518-3.628 1.01-4.638 2.319-1.44-.023-2.444.39-3.478.772-.187 1.217 1.186.875.772 2.319-1.83.254-4.115-.162-4.25 1.932-1.205-.212-1.663-1.171-2.705-1.546-1.21.497-.199.799-.773 1.932-3.516-.864-5.961-2.798-9.274-3.864 2.439-.999 5.175.304 7.729 1.159.812-.107-.56-1.032.387-1.545 1.406.397 2.391 1.216 3.864 1.545-.213-1.848-1.986-2.135-2.318-3.864 1.219-.739 3.183.521 4.251 1.16 4.29-2.395 10.11-3.273 13.13-6.956zM27.478 37.483c-1.002.415-1.895.939-3.478.773-.324-.835-1-1.318-.773-2.705 2.017-.712 3.747.097 4.251 1.932M111.72 44.053h1.546c.64-1.236-2.04-1.671 0-1.932-.058-.714-1.309-.237-1.546-.772.77-1.034 2.43-1.177 3.864-1.546-2.023-2.148-4.491 1.246-7.342.773-.331-1.233.608-1.195.773-1.932-5.303 2.014-11.303 1.014-16.23 3.478.242.918 2.378-.06 2.705.773-1.074 1.631-3.893 1.518-5.796 2.319.035-1.055-.644-.778 0-1.546-.907.123-1.451.61-2.705.386-.069-1.356 1.305-1.271 1.545-2.318h-1.932c.128-1.546 2.274-1.076 3.092-1.932-.288-.872-2.167-.151-3.092-.386.552-1.896 3.561-1.334 5.41-1.933.967-.065 1.21.594 1.546 1.16 3.658-.583 8.234-.007 12.366-.773 2.964-.55 10.569-5.339 12.366-.387-1.688.298-3.013-1.044-4.25 0 1.879 1.326 4.523.467 6.569-.386.926 1.374.243 2.508 2.318 3.091-1.064 2.11-6.456-1.031-8.888 1.16 1.352 1.48 3.974.492 6.183.772 2.56.325 6.051.716 6.183 3.092-3.464.035-7.455-2.185-12.366-1.932 1.28 2.197 6.516.439 6.956 3.478-2.48-.674-7.59-.692-9.27-2.707zM55.688 40.961c-1.204.471-2.45.9-4.251.773.128-1.397 3.894-3.191 4.251-.773M7.77 40.961c1.883.178 4.526-.404 5.796.387-.046 1.113.211 2.529-.386 3.091-2.062.129-3.384-.481-5.024-.773-.123-.907-.61-1.45-.386-2.705" style="fill:currentColor;clip-rule:evenodd;fill-rule:evenodd"/><path d="M15.499 40.961c6.066-.377 12.326 6.642 7.729 10.82-1.363-.931-1.313-1.208-3.091-.387v-2.705c-.505-.75-2.045.774-2.319-.772-.554 3-5.067-.339-5.41 2.705-3.377.415-5.238-.688-6.569-2.318-.644.515-.601 1.718-1.16 2.318 1.15 2.161 4.912.682 6.183 1.932-1.285 2.551-5.168 1.089-7.729.773-1.984-2.771.906-4.532 0-7.342.562-.598 1.978-.34 3.091-.387.506 3.295 6.078 5.053 7.342 1.159.897-.933 1.034.604 1.932.773.99-.771 2.227-1.722 3.864-.773.208-1.496-.985-1.591-1.159-2.705-.921.239-.635 1.684-2.319 1.16 1.446-2.385-.69-2.686-.385-4.251m6.569 6.184c-.045-1.136-1.395-2.956-1.932-2.319 1.176.24.755 2.078 1.932 2.319M54.915 42.121c-.6 1.681.982 3.469-1.546 3.478.076-1.106.048-2.109-1.159-1.932.012-1.405 1.136-1.698 2.705-1.546M42.162 42.894h1.546c.361 2.28 2.477 5.631.386 6.956.213 1.333 1.38 1.711 1.16 3.478-2.712.265-1.847-3.048-3.092-4.25 1.406-2.068.043-3.577 0-6.184" style="fill:currentColor;clip-rule:evenodd;fill-rule:evenodd"/><path d="M39.844 44.439c.311.205.627.403 1.159.386 1.716 5.894-.567 11.583-6.183 12.366 4.23 1.689 6.628 6.639 5.024 11.979-2.648-2.247-2.944-6.846-5.024-9.661-1.216.977-1.731.643-3.091 0-.089 1.635 2.216.875 1.546 3.091-1.428.74-2.522-.354-2.319-2.318-5.461.051-5.662-5.159-11.207-5.024-.343-.687-1.079-.982-.772-2.318-2.244-1.943-7.17 2.492-6.956-1.546 3.368.814 4.043-1.283 7.342-.386v1.932c5.893-.225 6.772 4.563 11.593 5.41.524-.12.321-.968.387-1.546 5.99-1.006 9.248-5.781 8.501-12.365M117.13 47.145c-.801 2.042-6.702.314-6.956-1.932 2.66.31 4.95.977 6.96 1.932zM88.92 46.372c-.014 1.661-2.053 1.296-1.546 3.478h-2.705c-.304 1.592 1.851.726 1.546 2.318-2.175.114-3.679-.443-5.023-1.159.878-1.047 1.326-1.374.772-3.091 3.266.431 3.442-2.227 6.956-1.546M107.86 47.145c1.733-1.238 4.87 1.17 3.864 2.705-2.2.004-2.29-2.094-3.86-2.705zM98.195 47.531c3.479.643 5.976 2.268 8.115 4.251-2.298 1.735-5.222-2.122-7.729-2.705-.3-.345-.415-.873-.386-1.546M108.63 50.236c-1.938.134-2.647-.96-3.091-2.318 1.46-.982 3.29.415 3.09 2.318zM101.67 52.941c-1.712-.091-3.192-.414-3.478-1.932 1.111-.629 3.648.057 3.478 1.932M183.98 51.009c1.666-.12 1.801 1.292 2.705 1.932 3.108-1.357 6.456-.535 8.889.773.92-.822-1.149-1.439.386-2.319 1.959 1.004 3.048 2.878 4.251 4.637-.587 1.345-1.955 1.91-3.092 2.705-.251-.393-.888-.399-.772-1.159-2.986 1.46-4.506-2.573-7.729-.773.202 1.214.678 2.156 1.159 3.091-.469 6.78 3.329 9.294 2.318 16.616-.687.344-.981 1.079-2.318.773.852 2.189-.284 4.184 0 5.796.883 5.008 6.157 6.593 7.729 11.207-.644 5.926-4.056 9.083-4.637 15.07-2.325 2.441-5.374 4.159-7.343 6.956 2.322-.383 2.851-2.56 5.023-3.092.336 1.484.901.936 2.319.773 1.226 3.705-4.121 3.749-3.479 8.115-.735.165-.971.832-1.932.772-.288 1.189 1.061.743.772 1.933-.815.343-1.142 1.176-2.318 1.159 1.999 1.818.476 4.477-1.159 5.796.119.911 1.342.72 1.159 1.933-3.309 2.219-6.867-.243-11.593.772a13.7 13.7 0 0 1-2.705-2.705c.102-2.216 2.361-2.275 2.705-4.25-2.207.369-2.783 2.369-4.638 3.091.613 3.318-1.158 4.252-1.932 6.183-5.375.232-7.544.5-11.207-.386.634-.827-.984-1.877-.386-3.864 2.659-1.978 5.884-3.39 8.501-5.41.941-7.58 5.841-13.03 4.251-20.867-1.015-1.305-1.87-2.768-2.318-4.638-2.527-2.275-5.391-4.921-7.729-8.115-.273-.373-.462-.812-.773-1.159-.626-.698-1.521-1.294-1.932-2.705-.91-3.123.793-7.057-2.705-8.888-1.562-.67-2.523.568-3.864.773-1.703.26-3.551-.31-5.024 0-3.19.67-4.751 3.986-8.114 3.478.991-2.358 3.172-3.526 5.796-4.251.29-1.32-1.569-.49-1.159-1.932 3.181-1.714 7.195-.725 10.82 0 1.02.117.996-.807 1.159-1.546 1.593-.305.727 1.85 2.318 1.546 1.418-1.803.294-6.147 1.159-8.502-.773-.997-1.129 1.679-2.318 1.546.258-3.091 1.558-5.14 3.478-6.569q.088 1.44-.772 1.932c.114 1.346 1.046-.032 1.159.773.035 4.801-.034 9.497-1.546 12.752 1.126 2.353 2.489 4.468 3.479 6.956.406 1.438-1.304.758-1.546 1.546 2.515 7.771 12.885 9.277 12.752 20.48-.079 6.683-3.947 11.269-5.023 18.162-1.732 1.044-3.245 4.13-3.092 5.797 5.385 1.774 5.854-4.708 7.343-8.115 1.373-.601.233 1.312 1.159 1.159 2.188-.619.916-3.365 1.159-4.637.418-2.189 1.561-3.951 2.318-6.184 1.522-4.479 2.723-10.574 5.023-15.07-.069-1.219-1.271-1.306-2.705-1.159-1.509-3.855-2.381-6.525-1.932-10.048 1.575-.287 1.331 1.246 3.092.773.265-1.861-2.114-2.532-.773-4.251 1.825-.021 2.122 1.484 3.478 1.933 2.526-2.372-2.016-5.354-.386-8.115 1.086-.057 1.114.946 1.159 1.932 1.984-1.175 2.594.887 3.864 1.546-.393-3.157-2.312-4.848-1.159-7.729 2.131-.328.499 3.107 1.546 3.864.812.347 1.247 1.071 1.932 1.546 1.099-2.523-1.484-4.692-1.159-7.729 1.349.584 1.552 2.312 2.318 3.478 1.82-1.071-.085-2.414-.386-3.864-.258-1.24.079-3.029-.387-4.25-1.032-2.707-4.318-4.529-4.251-7.342-1.095-.064-1.61-.708-2.705-.773.411-.877 2.43-.147 3.479-.386.716 1.603 1.833 2.804 2.318 4.637 1.914-1.446-3.029-4.103.387-4.637-.44-3.938-3.75-5.003-3.87-9.267zm0 36.711c-.601-.951 1.312-1.137 1.16-.387-1.049 2.043-2.249 3.935-2.705 6.569 3.73-.777 2.169-6.847 5.796-7.729-.107.881.093 1.453.773 1.546v-2.318c-3.52.685-4.098-1.571-6.184-2.319 1.34 1.377-.51 3.576 1.15 4.638zm.78 7.728c2.353-1.254 2.721-4.492 3.864-6.956h-1.159c-.49 2.727-2.53 3.912-2.7 6.956zm1.93 1.546c2.989-.747 2.45-5.021 5.41-5.797-.51 3.612-2.661 5.583-4.637 7.729-.198 1.508-1.309 3.623-3.092 2.319.119-.911 1.342-.72 1.159-1.933-3.302-1.491-4.386-7.169-7.729-7.342.134 4.184 3.802 6.021 3.864 9.66.032 1.876-1.919 5.054-3.091 8.502-1.839 5.409-4.143 10.765-3.864 16.229 1.321-.888 2.682-.687 3.864-1.545 2.318-1.686 3.202-6.511 5.409-5.41-.629-1.918 1.345-1.232 1.16-2.705-1.446.044-2.031 2.324-3.479 1.159.448-1.612 1.994-2.128 3.092-3.092-1.495-4.81 6.083-5.696 5.796-9.274-1.604 1.472-4.353 5.097-6.569 3.479 4.419-3.826 9.701-6.787 10.82-13.912-2.625 2.271-4.825 4.965-6.183 8.502-2.021-.204-1.984 3.228-3.864 1.932 2.744-4.727 6.879-8.062 8.888-13.524-1.168-.894-1.821-2.301-3.092-3.092-1.33 2.683-3.02 4.991-3.87 8.13zm-5.03-5.41c1.083-1.276-.096-2.766-1.932-2.318.25 1.168.61 2.229 1.93 2.318zm7.35 25.116c.967.065 1.209-.594 1.545-1.159-.98-.06-1.22.6-1.55 1.16zm-4.25 3.09c1.146-.142 1.906-.67 2.318-1.545-1.26.04-2.09.5-2.32 1.55zm.38 2.71c.307-.853 1.816-.502 1.932-1.545-.931-.158-.84.705-1.932.386.15.65-.57.98 0 1.15zm-3.86 1.93c.688-.214 1.605-.198 1.933-.772-.96-.06-1.88-.07-1.93.77zm-5.03 6.96c1.634.939 4.479.228 4.638-1.546-1.669-.005-2.166.71-3.092-.387-.07 1.09-1.84.49-1.55 1.94zm5.41.77c1.28.015 3.063-1.891 1.546-2.318-.24 1.05-1.61.96-1.55 2.32zm-21.25 2.7c1.504.073 2.153-3.459.773-3.864-.86.62-1.58 2.77-.77 3.86zM98.195 53.327c-1.112.83-3.07-.077-4.251-.386v-1.159c1.46-.876 3.744.234 4.251 1.545" style="fill:currentColor;clip-rule:evenodd;fill-rule:evenodd"/><path d="M41.389 52.168h1.546c.212 2.264 2.206 4.315 0 5.796q-2.07-.635-2.705-2.705c.508-.394 1.425-.379 1.932-.773-.308-.721-.645-1.415-.773-2.318M158.09 52.168h1.159c-.394 3.614 1.929 4.512 1.159 8.501-.985-.045-1.988-.073-1.932-1.159-1.25.167-.313 2.52-2.318 1.932.73-3.005 1.49-5.979 1.93-9.274zM85.056 54.873c-1.256.337-3.958-.831-5.41-1.546 1.227-1.866 5.524-.47 5.41 1.546M154.61 52.554h1.159c.471 2.071.918 5.932-1.159 6.569-.01-2.968.31-3.895 0-6.569M148.82 52.941h1.159c.498 3.559 1.565 7.688-1.932 9.274-.621-2.728-1.846-4.853-2.318-7.729 2.23.216 2.186 2.709 3.091 4.251 1.16-1.564-.52-3.59 0-5.796M151.91 52.941c.311.205.627.403 1.159.386.386 1.734 1.053 6.235-.387 7.342-1.18-1.473-1.02-6.084-.77-7.728zM95.103 54.486c2.261.959 4.613 1.828 5.024 4.637-2.171-1.052-4.508-1.935-5.027-4.637zM83.897 57.191c-1.191.813-2.837-.59-4.637-.386.049-.693-.473-.815-.387-1.546 1.131-.212 5.268-.479 5.024 1.932M38.685 56.805c1.301-.492 1.597 1.96.772 2.318-1.396.367-.539-1.521-.772-2.318" style="fill:currentColor;clip-rule:evenodd;fill-rule:evenodd"/><path d="M99.74 61.442c-2.969-.638-5.036-2.177-6.183-4.637 2.946.661 5.65 1.564 6.183 4.637M165.82 56.805c-.026 2.062-1.811 3.248-2.705 4.637-1.007 1.564-1.42 3.221-2.705 4.637.152 1.569-.141 2.692-1.545 2.705-.25-5.024 2.83-10.015 6.94-11.979zM143.02 57.191c.692-.049.814.473 1.545.387-.016 3.263 3.33 4.255 2.319 7.342-1.011-.166-1.436-1.499-1.933-2.319-.94-1.553-1.85-2.631-1.93-5.41zM78.487 57.578c2.046.273 4.676-.039 4.637 2.318-1.894-.424-4.442-.195-4.637-2.318M76.555 59.51c2.585-.009 4.848.304 5.41 2.318-1.39.237-5.2-.12-5.41-2.318M140.32 60.283c2.424 1.353 4.776 4.699 3.864 8.115-2.229-1.25-1.963-4.993-3.864-6.569-.45-.572-.45-.974 0-1.546" style="fill:currentColor;clip-rule:evenodd;fill-rule:evenodd"/><path d="M80.805 64.534c-1.418-1.157-4.85-.302-5.41-2.318 1.907-.755 5.293.027 5.41 2.318M137.22 61.829c2.535 1.557 5.652 4.258 5.023 7.729-2.414-1.321-2.518-4.953-5.023-6.183z" style="fill:currentColor;clip-rule:evenodd;fill-rule:evenodd"/><path d="M81.964 69.558c-.808-.351-1.178-1.141-1.159-2.319-1.978 1.17-5.486 2.68-8.115 1.932.521-2.055 3.855-1.297 5.41-2.318-.108-1.695-3.605-.001-4.25-1.16 2.184-2.837 11.292.086 8.114 3.865M135.68 64.534c2.341 1.019 4.284 4.024 4.251 6.183-2.33-1.146-3.25-3.71-4.25-6.183zM42.162 64.92c1.308-.148.608 1.71 2.319 1.159.279 1.181-.395 1.408-.387 2.318-2.137-.988-1.348.923-3.091 1.16-.208-2.14.519-3.344 1.159-4.637M132.97 65.693c2.729 2.448 6.862 5.472 6.569 9.661-2.674-2.349-3.873-6.173-6.955-8.115-.16-.808.27-1.023.39-1.546z" style="fill:currentColor;clip-rule:evenodd;fill-rule:evenodd"/><path d="M131.43 69.171c2.955.822 6.254 3.221 5.409 6.569-1.45-2.548-4.25-3.74-5.41-6.569zM75.782 70.33c.015 1.611-2.771 1.875-3.864 1.16.654-.942 2.865-1.78 3.864-1.16M130.66 71.876c2.352 1.514 5.167 2.562 5.797 5.797-1.658.182-2.495-1.775-3.479-2.705-1-.939-3.26-1.378-2.32-3.092zM129.88 75.354c2.716 1.535 5.5 3.001 6.955 5.797-3.097-.51-4.181-3.032-6.569-4.251-.3-.344-.42-.873-.39-1.546zM76.168 78.059c1.695 1.205 5.984 1.655 4.637 4.638-1.733-.07-2.25-1.356-3.478-1.933-1.272.146-.78 2.055-2.319 1.933-1.008-1.895.917-2.857 1.16-4.638M129.5 78.445c2.249.714 3.622 2.304 4.637 4.251-2.54-.245-4.66-2.724-4.64-4.251zM133.75 85.787c-2.445-1.677-6.075-2.169-7.342-5.023 2.45.004 7.75 2.127 7.34 5.023zM126.4 88.106c.714-.059.237-1.309.773-1.546 1.34.077 2.512.321 2.318 1.932-1.642.496-1.705-.364-1.932 1.546-2.951-.141-4.989-1.193-5.796-3.478 1.83-.853 3.24.835 4.64 1.546zM133.36 88.492c-1.58.771-2.66-.819-3.864-1.545.73-1.558 4.29-.5 3.86 1.545zM113.27 86.947c2.769.372 4.099.188 6.956 0-.248 1.664 1.582 1.252 1.159 3.091-2.66.055-7.01.837-8.12-3.091zM169.3 94.289c2.844 1.407 3.684 4.817 5.796 6.956-.305 1.355-1.352.446-1.932 0 .37 2.034 1.146 2.651 2.705 2.705-.844 3.476.415 6.663-2.319 8.114-.231-2.067-.283-4.714-.386-5.796.153-.927-1.761.214-1.159-1.159.312.073.385.388.772.386.553-3.136-3.373-4.572-1.546-6.569-.67-1.501-2.16-2.203-1.93-4.622zM244.65 16.23c-.612 1.744-.168 3.843-.772 5.41-.649 1.681-5.134 6.039-6.956 7.342-1.527 1.093-3.587 1.813-5.023 1.546 3.595-5.035 9.704-7.556 11.593-14.298h1.16zm-6.57 9.661c.574-.456 1.727-.334 1.546-1.546-.92-.106-2.03 1.528-1.55 1.546z" style="fill:currentColor;clip-rule:evenodd;fill-rule:evenodd"/><path d="M37.525 27.823c-.356-2.417.421-3.701 1.546-4.637-.355-1.053-1.208.54-2.318 0-.015-1.432.593-2.24 1.159-3.091-2.47-1.857.339-5.259-.387-7.342-1.541.263-1.295 2.312-1.545 3.864-4.871 6.737 3.684 12.536 3.478 18.163-1.423-1.206-1.518-1.013-3.478-.387-.563-1.498-1.785-2.337-3.478-2.705-1.318.161.584 2.119-.386 1.932-1.44.37-1.423-1.282-1.932-1.932-1.193-1.522-2.338-3.001-4.637-3.478.101 3.298 5.507 3.183 4.25 6.569-1.494-.052-1.524-1.567-2.705-1.932-.653 1.794-2.364.795-3.864.386-.888.915-1.04 2.567-3.091 2.318-.031-2.35 1.9-2.736 2.318-4.637.06-.961-.607-1.196-.773-1.932-1.153 1.938-2.154 4.029-3.864 5.41-.108 3.329 3.47 2.971 5.024 4.637-1.345 2.585-7.074.686-7.729-1.159-1.093-.066-2.651.333-2.705-.773-2.68 2.129-5.647-.022-9.661.773.404 1.786 2.419 1.96 3.865 2.705-.385 1.436-.826 1.01-.387 2.705-1.34-.31-1.485.575-2.705.386-.771-1.54-3.194-3.335-3.478-5.41-.28-2.043.933-3.262 1.159-5.41 2.603-.413 3.258 1.121 4.637 1.932 4.546-1.25 11.081-.512 13.139-4.251-.208-1.753.776-2.315 1.159-3.478 2.119.431 3.862-1.436 5.41-2.705 2.773.197 3.906-1.246 6.956-.772.705-.875-.322-1.154-.386-1.932-.245-2.968 2.614-6.923 3.091-10.434.416-3.058-.18-5.957 3.091-6.183 1.297.764 1.097 3.025 2.705 3.478.674-1.258.316-3.549 2.319-3.478 2.133 6.431 7.402 11.867 5.41 20.094 1.843.962 3.077 2.446 2.319 5.024 3.087-.004 4.555-1.628 8.115-1.16.336 1.496-.944 1.375-1.159 2.319-.065.838 1.371.175 1.932.386.776.788-.171.758-.386 1.546 2.04 1.309 3.878 2.82 5.023 5.023 1.753-1.398-.077-3.447 0-5.41.059-1.508.877-2.669 1.159-4.251.673-3.781.094-8.705 3.092-10.434.228 1.645-.278 2.556-.387 3.864 2.229-.604 2.233-3.435 3.478-5.023-.539-.492-.168-1.893-1.159-1.932-.997.291.282 2.858-1.16 2.705-2.242-.978-.627-5.813-1.545-8.115 3.592 1.045 4.018 5.256 6.569 7.342-1.117 2.883.909 5.396.773 7.729-.152 2.593-2.364 4.256-2.705 6.956 3.875 1.01 8.254-2.781 11.979-1.932.279 1.181-.395 1.408-.386 2.319-3.413 1.482-5.183 4.606-8.115 6.569 2.8.678 6.574-4.803 8.888-.387-.068 3.024-1.711 4.472-2.705 6.569-.647-.512-1.295-1.024-2.705-.773-.345-2.277 1.668-2.196 1.932-3.864-2.067-1.086-3.086 4.024-5.023 3.092-.407-1.695 1.307-1.27 1.159-2.705-1.181-.279-1.408.395-2.318.386-.93.359.234 2.81-1.546 2.319-.561-1.441.292-3.433-1.546-4.251-1.315 1.467.531 3.059.773 4.251-4.123 9.91-.81 26.901-6.569 35.938.801 1.431 2.758-.125 3.864 0 .552-1.985-1.064-3.808 0-5.023 2.249.885.495 4.415 1.932 5.41 1.464-1.11-.959-4.38.773-4.637 2.045 1.083.932 5.131.387 6.955-.731.429-1.826.493-2.705.773-.454 2.55-.248 2.537-.387 4.251-1.557-.376-2.365-1.499-3.478-2.319-.39-1.162.861-.685 1.545-.772-.088-1.328-1.15-1.684-2.318-1.933-1.979 2.272-1.127 7.375-1.932 10.82 1.194 1.2.653-1.309 2.318-.772.528.494.528 1.824 0 2.318-1.005 1.04-1.166-.473-2.318-.387.079 1.209-.261 2.837.386 3.479 2.857-1.137 7.407-.579 7.729-4.251-.815-.789-2.282 1.047-4.25.386-.651-1.413 1.166-1.104 1.159-1.545-.03-2.013-2.44-.385-3.864-1.159.171-1.375 1.399-1.692 1.932-2.705 1.475-.316 1.496.822 1.932 1.545.651-.689 1.737-1.08 2.318 0 1.661-.013 1.296-2.053 3.478-1.545.407 1.694-1.307 1.269-1.159 2.705 2.23 1.892 8.453-.209 10.82 1.545 4.06-1.608 10.34-.995 14.298-2.705-.473-2.618-.981-5.202-2.319-6.955-.763 2.554-.693 3.63-.773 6.955-2.714-1.168-.361-3.852-.386-6.569-1.899-2.858-1.22-7.93-1.159-11.206 2.955.671 1.259 6.871.772 8.888 3.134.43.236-5.174 2.319-5.796 2.604.422.639 3.201.773 4.637.314 3.364 1.658 5.277 4.25 6.956 4.254.512 8.771.76 10.82 3.478-.492.538-1.893.168-1.932 1.159-.891-.912-1.814-1.793-3.478-1.932-.301 1.718 2.323.511 1.546 2.705-3.25.286-3.57-2.355-5.796-3.092-.453.062-.326.704-.387 1.159-3.317.161-3.589 3.367-7.729 2.705-1.28 1.683-1.917 4.008-3.864 5.023-.288 1.189 1.061.743.773 1.933-1.135.926-1.856 2.266-3.478 2.705.099.803 1.698.105 1.932.772.167 1.455-.816 1.76-1.546 2.318-.052 5.358-5.859 4.961-8.115 8.115 2.656 1.304 4.316-3.587 6.569-2.705-.917 2.39-3.678 4.177-.773 6.569-.432 3.304-.945 6.526-4.251 6.956-.049.693.473.815.387 1.546-1.354 1.093-2.616 2.278-4.637 2.705.277 2.596-.03 4.606-1.932 5.023 1.039 1.848-.398 3.081-.773 4.637-3.347 1.423-9.931.757-13.139-.386 1.778-5.436 5.572-8.854 9.274-12.366.639-3.097 2.332-5.139 5.023-6.183-1.08-2.087 1.116-2.972-.386-4.638 2.354-2.54 6.287-3.502 8.501-6.183-2.872.349-3.863 2.577-6.569 3.092-.176-2.056-.193-4.702 2.318-5.41-1.918-1.755-.432-5.09 1.159-6.569-.157-.745-1.498-.306-1.159-1.546.905-.898 2.578-1.028 3.092-2.318-.58-1.277-.945.803-1.933.386.336-1.495-.943-1.374-1.159-2.318-2.004.187-4.795-.416-6.183.387-.978.311-.985 1.591-1.546 2.318-1.604 1.23-3.585 2.082-5.796 2.705-1.502.945-1.967 2.928-4.637 2.705q-1.264.105-1.159-1.159c-1.312.491-2.235 1.372-3.478 1.932-2.166.258-2.842-1.222-5.023-1.159-3.512.101-7.35 3.941-8.888-1.932-3.652-2.166-7.599-3.803-6.569-9.661.264-1.501 1.448-3.968 2.319-5.023 3.354-4.063 12.002-2.17 12.366-8.888-2.609.787-9.378.893-9.661-3.864 5.21 1.542 3.72-6.447 6.569-8.502.352 4.216-1.367 6.362-2.705 8.888 1.7-.759 2.923-2.074 3.864-3.864.769-1.462.42-4.456 2.705-4.637-.33 4.565-3.208 6.581-5.024 9.661.048.854 1.64.164 2.319.386.996-.093-.531-.665 0-1.546 2.4-.949 2.142-4.556 4.25-5.796.127 2.96-1.696 3.971-2.318 6.183 3.48-1.932 4.289-7.106 5.796-11.979 1.46-4.718 3.68-9.625 4.637-13.911.424-1.896.962-4.919 0-6.183.347-.683.933-1.128 1.159-1.932-1.131-.101-1.187.874-2.318.773-.032-1.901-1.843-2.021-3.478-2.319-.846-.804.339-1.249-.386-1.932H55.3c-.233 1.306-1.206 2.116-1.159 3.865h-2.705c.968-1.587-1.782-1.972.386-3.092-1.742.069-1.929.474-3.091-.386.75-2.084 5.322-.346 6.183-2.319-2.138-1.857-4.993 1.158-8.501.387-.262-.888.257-2.528-1.546-2.705 1.458-1.717 2.184-2.108 4.251-3.478.171-1.975-2.734-.873-4.251-1.159-.922.624.313 3.405-1.159 3.478-1.868-.173-.925-2.56-.773-3.864 5.019-4.577.268-14.769-4.25-17.003-1.02 1.213.322 2.539 1.159 3.091-1.088 3.271 1.756 4.284 0 7.342-.117 1.018.535 1.268 1.545 1.159-.434 1.599-.273 2.213.773 3.091-1.196 1.649-1.516 4.162-4.638 3.874zm29.755-1.159c-.043 4.334-2.74 8.369 2.318 9.274.562-1.895 1.479-4.036 2.319-6.183.732-1.872 2.516-4.279 1.159-5.796-1.173 2.433-2.753 4.46-4.25 6.569.079 1.625.139 3.231-1.16 3.478-1.116-6.161 6.421-9.021 5.024-15.458-1.608 2.9-3.383 5.634-5.41 8.116m-30.528 4.637c-.79-1.013-.481-3.126-2.319-3.091.012 1.549.993 4.14 2.319 3.091m-10.82.773c.188-.998-1.367-2.191-1.932-1.16.997.034.407 1.655 1.932 1.16m45.985 1.932c-.088 1.891.985 2.621 1.546 3.864 2.994-.999 5.178-2.808 6.569-5.41-3.057.163-5.11 1.331-8.115 1.546m-3.478 5.796c.532-.017.849.182 1.159.386.868-.678.761-2.331 1.16-3.478h-1.546c-.188.977-.212 1.727-.773 3.092m-1.159-.773c.122-.522.55-.738.386-1.546-1.317-.29-1.507 1.477-.386 1.546m-3.864 11.207c-.707 2.852-2.27 5.567-2.705 8.501-.748 5.037-.109 9.687-1.159 14.298-.453 1.987-.966 4.372-1.546 6.183-2.016 6.292-7.996 13.561-4.637 20.481 1.633.428 3.677.445 5.796.386 4.47-1.584 3.336-8.772 3.864-14.298-1.76 1.225-3.866 4.835-4.637 6.569-.814 1.833-1.088 3.971-3.091 3.092 2.327-7.199 7.616-11.443 10.047-18.544-.112-4.389-.995-11.239-.773-15.844.117-2.424 1.601-4.741 2.319-7.342.736-2.669.711-5.108.772-6.956.058-1.723 2.169-4.615-.386-5.796.756 4.877-1.15 8.71-1.932 11.207-.491 1.567.23 4.397-1.932 4.637.484-5.4 4.354-11.241 1.932-17.003-1.022 3.175-1.083 7.008-1.932 10.434zm6.956-8.115v.773c.951.601 1.136-1.312.387-1.159-.023.235-.059.457-.387.386m-3.865 30.914c1.17-.153.936-1.867 1.159-2.705 1.526-5.728 1.045-14.031 1.932-20.48-.086-.3-.01-.763-.386-.773-2.707 6.18-3.055 14.72-2.705 23.958M46.026 99.699c1.67.955 3.197.566 5.024 0-2.064-8.716 3.413-15.067 5.796-22.8.405-1.313.401-2.916.773-4.251.69-2.478 1.452-4.365 1.545-6.956-.085-.301-.323-.449-.773-.386-3.545 11.8-12.044 20.649-12.365 34.393m-6.182-5.797c1.733.714 2.126 2.769 4.637 2.705.514-1.16.393-2.956.386-4.637-.268-.763-2.156.095-2.318-.773.515-1.417 2.593-1.271 3.864-1.932.528-1.688-1.497-.822-1.159-2.318 1.425-1.022 4.004-.891 3.478-3.865-5.633 1.009-9.989 4.228-8.888 10.82M79.26 117.86c1.985-.076 2.768-1.354 3.864-2.318-1.675.39-3.325.8-3.864 2.32zm4.25-.38c-.065.968.594 1.21 1.159 1.546-.106-.678 1.088-1.928 0-2.318-.1.53-.847.43-1.159.77zm-4.637 3.86c2.134-.185 3.194-1.443 3.864-3.091-1.631.53-4.477 1.56-3.864 3.09zm3.091.39c1.256.075 3.118-1.232 1.933-2.318-.4 1.01-1.533 1.3-1.933 2.32zm-5.023 3.09c1.336-.339 2.537-.812 3.092-1.933-1.439.23-2.617.73-3.092 1.93zm-8.888 7.34c.777 1.647 5.128.607 5.796-.387-2.119-.06-4.163-.04-5.796.39zM206.4 22.413c-.813 2.536-.954 5.745-1.545 8.501-1.62.332-.847-1.729-1.546-2.318-1.063.869-1.131 2.734-1.933 3.864-.808.164-1.023-.265-1.546-.386-.934.998-1.139 2.726-1.545 4.25-3.938 2.198-5.246 7.459-10.048 8.888-1.334.397-2.942-.166-4.637.386-1.63.065.007-.594 0-1.159-3.604-2.193-9.771-1.823-13.525-3.864-1.978.303-2.807-.542-4.637-.387-.333-.312-.229-1.058-.773-1.159-3.69-.084-7.211.002-10.434.387-.824.18-.735-.552-.772-1.16-4.516-.23-8.302 2.215-11.593 1.932.011-1.534 1.504-1.587 2.704-1.932-5.059-1.299-8.754 4.096-13.138 3.478.404-2.043 3.148-1.746 4.637-2.705-3.142-2.095-7.862 2.575-11.593 1.159-.209-2.012 1.778-1.828 3.478-1.932 1.383-.55 2.761-1.104 4.638-1.159.987-.043 1.353-.708 1.932-1.159 3.351 1.907 9.394-1.113 14.298 1.159 3.371-1.138 8.186-.832 11.979-1.546.659.243.636 1.167 1.159 1.546 3.403-.837 7.048-2.377 10.82-.773-.635 2.091-2.756.315-5.023.773 4.319 3.022 10.731 3.953 17.003 5.023 1.88-.438 2.022-2.615 4.251-2.705 1.439-.41 1.247.813 1.932 1.159 3.237-2.431 4.472-6.863 6.956-10.047 1.336-.306 1.631.43 2.318.773.083-4.425 3.986-5.03 4.638-8.888l1.54.001zM212.96 43.667c3.189.804 6.721 1.266 7.729 4.251-1.41.794-1.735-.174-2.705-.773-.587.958-.687 2.404-1.932 2.705-2.097-.608-3.504-1.907-5.41-2.705.206 2.757 2.848 3.078 2.705 6.183-3.372 1.396-4.057-2.081-6.569-2.705-.973 1.179 2.083 1.034.772 2.705-1.753-.179-2.291-1.573-4.25-1.545.361 1.184 2.142.949 2.705 1.932-1.276 2.138-5.736-.964-6.569-1.932-.632-.735-1.129-1.025-.773-1.932 1.933.415 3.901-.825 5.41-1.932 2.233.6 4.203 1.464 6.183 2.318-.453-1.35-1.492-2.114-1.545-3.864.744-.852 2.414-2.231 3.864-1.159-.14-.81.28-1.025.4-1.547z" style="fill:currentColor;clip-rule:evenodd;fill-rule:evenodd" style="fill:currentColor" /></svg>